<svg width="24" height="24" viewBox="0 0 24 24" fill="none" xmlns="http://www.w3.org/2000/svg">
<g id="alarm-bold-duotone (2) 1">
<g id="Group">
<path id="Vector" opacity="0.5" d="M12.0002 22.0004C16.8362 22.0004 20.7562 18.1164 20.7562 13.3254C20.7562 8.53539 16.8362 4.65039 12.0002 4.65039C7.16416 4.65039 3.24316 8.53439 3.24316 13.3254C3.24316 18.1154 7.16316 22.0004 12.0002 22.0004Z" fill="black"/>
<path id="Vector_2" d="M11.9995 8.74707C12.4015 8.74707 12.7285 9.07107 12.7285 9.47007V13.0261L14.9475 15.2241C15.0152 15.2909 15.0689 15.3704 15.1056 15.4581C15.1423 15.5459 15.1611 15.64 15.1611 15.7351C15.1611 15.8301 15.1423 15.9243 15.1056 16.012C15.0689 16.0997 15.0152 16.1793 14.9475 16.2461C14.8101 16.3819 14.6247 16.4581 14.4315 16.4581C14.2383 16.4581 14.0529 16.3819 13.9155 16.2461L11.4825 13.8361C11.4152 13.7693 11.3617 13.6898 11.3251 13.6023C11.2886 13.5148 11.2697 13.4209 11.2695 13.3261V9.47007C11.2695 9.07007 11.5955 8.74707 11.9995 8.74707Z" fill="black"/>
<path id="Vector_3" fill-rule="evenodd" clip-rule="evenodd" d="M8.23971 2.3401C8.29042 2.42057 8.32466 2.5103 8.34045 2.6041C8.35623 2.6979 8.35325 2.7939 8.33167 2.88654C8.31009 2.97918 8.27035 3.06661 8.21474 3.14378C8.15913 3.22095 8.08876 3.28632 8.00771 3.3361L4.11671 5.7461C3.9525 5.84786 3.75479 5.88079 3.56647 5.83773C3.37814 5.79467 3.21438 5.67911 3.11071 5.5161C3.06 5.43562 3.02576 5.34589 3.00997 5.25209C2.99418 5.15829 2.99717 5.06229 3.01875 4.96966C3.04032 4.87702 3.08007 4.78958 3.13568 4.71241C3.19129 4.63525 3.26166 4.56988 3.34271 4.5201L7.23471 2.1101C7.39892 2.00833 7.59662 1.97541 7.78495 2.01847C7.97328 2.06152 8.13703 2.17709 8.24071 2.3401H8.23971ZM15.7597 2.3401C15.8634 2.17736 16.0269 2.06199 16.215 2.01894C16.4031 1.9759 16.6006 2.00865 16.7647 2.1101L20.6567 4.5201C20.7378 4.56988 20.8081 4.63525 20.8637 4.71241C20.9193 4.78958 20.9591 4.87702 20.9807 4.96966C21.0022 5.06229 21.0052 5.15829 20.9894 5.25209C20.9737 5.34589 20.9394 5.43562 20.8887 5.5161C20.785 5.67911 20.6213 5.79467 20.433 5.83773C20.2446 5.88079 20.0469 5.84786 19.8827 5.7461L15.9917 3.3361C15.9106 3.2864 15.8401 3.22109 15.7844 3.14396C15.7287 3.06683 15.6889 2.97941 15.6672 2.88676C15.6455 2.79412 15.6424 2.69809 15.6581 2.60426C15.6739 2.51042 15.708 2.42063 15.7587 2.3401H15.7597Z" fill="black"/>
</g>
</g>
</svg>
