<svg width="18" height="20" viewBox="0 0 18 20" fill="none" xmlns="http://www.w3.org/2000/svg">
<g id="Group">
<path id="Vector" opacity="0.5" d="M9.00016 20.0004C13.8362 20.0004 17.7562 16.1164 17.7562 11.3254C17.7562 6.53539 13.8362 2.65039 9.00016 2.65039C4.16416 2.65039 0.243164 6.53439 0.243164 11.3254C0.243164 16.1154 4.16316 20.0004 9.00016 20.0004Z" fill="#6D6E73"/>
<path id="Vector_2" d="M8.99953 6.74707C9.40153 6.74707 9.72853 7.07107 9.72853 7.47007V11.0261L11.9475 13.2241C12.0152 13.2909 12.0689 13.3704 12.1056 13.4581C12.1423 13.5459 12.1611 13.64 12.1611 13.7351C12.1611 13.8301 12.1423 13.9243 12.1056 14.012C12.0689 14.0997 12.0152 14.1793 11.9475 14.2461C11.8101 14.3819 11.6247 14.4581 11.4315 14.4581C11.2383 14.4581 11.0529 14.3819 10.9155 14.2461L8.48253 11.8361C8.41518 11.7693 8.3617 11.6898 8.32515 11.6023C8.28859 11.5148 8.26969 11.4209 8.26953 11.3261V7.47007C8.26953 7.07007 8.59553 6.74707 8.99953 6.74707Z" fill="#6D6E73"/>
<path id="Vector_3" fill-rule="evenodd" clip-rule="evenodd" d="M5.23971 0.340097C5.29042 0.420569 5.32466 0.510304 5.34045 0.604102C5.35623 0.697901 5.35325 0.7939 5.33167 0.886538C5.31009 0.979176 5.27035 1.06661 5.21474 1.14378C5.15913 1.22095 5.08876 1.28632 5.00771 1.3361L1.11671 3.7461C0.952499 3.84786 0.754792 3.88079 0.566466 3.83773C0.37814 3.79467 0.214382 3.67911 0.110708 3.5161C0.0599965 3.43562 0.0257562 3.34589 0.00997055 3.25209C-0.00581506 3.15829 -0.00283229 3.06229 0.018746 2.96966C0.0403243 2.87702 0.0800693 2.78958 0.135679 2.71241C0.191288 2.63525 0.261656 2.56988 0.342708 2.5201L4.23471 0.110097C4.39892 0.00833278 4.59662 -0.0245914 4.78495 0.0184651C4.97328 0.0615217 5.13703 0.177087 5.24071 0.340097H5.23971ZM12.7597 0.340097C12.8634 0.177362 13.0269 0.061989 13.215 0.0189446C13.4031 -0.0240998 13.6006 0.00864632 13.7647 0.110097L17.6567 2.5201C17.7378 2.56988 17.8081 2.63525 17.8637 2.71241C17.9193 2.78958 17.9591 2.87702 17.9807 2.96966C18.0022 3.06229 18.0052 3.15829 17.9894 3.25209C17.9737 3.34589 17.9394 3.43562 17.8887 3.5161C17.785 3.67911 17.6213 3.79467 17.433 3.83773C17.2446 3.88079 17.0469 3.84786 16.8827 3.7461L12.9917 1.3361C12.9106 1.2864 12.8401 1.22109 12.7844 1.14396C12.7287 1.06683 12.6889 0.979406 12.6672 0.886762C12.6455 0.794118 12.6424 0.698094 12.6581 0.604256C12.6739 0.510417 12.708 0.420629 12.7587 0.340097H12.7597Z" fill="#6D6E73"/>
</g>
</svg>
