<svg width="18" height="20" viewBox="0 0 18 20" fill="none" xmlns="http://www.w3.org/2000/svg">
<g id="Group">
<path id="Vector" opacity="0.5" d="M15.7501 7V7.704C15.7501 8.549 15.9901 9.375 16.4421 10.078L17.5501 11.801C18.5611 13.375 17.7891 15.514 16.0301 16.011C11.4338 17.313 6.56631 17.313 1.97006 16.011C0.211062 15.514 -0.560938 13.375 0.450062 11.801L1.55806 10.078C2.01164 9.36936 2.25217 8.54537 2.25106 7.704V7C2.25106 3.134 5.27306 0 9.00006 0C12.7271 0 15.7501 3.134 15.7501 7Z" fill="#6D6E73"/>
<path id="Vector_2" d="M4.24316 16.5449C4.56991 17.549 5.20605 18.424 6.06046 19.0445C6.91487 19.6649 7.94372 19.9991 8.99966 19.9991C10.0556 19.9991 11.0845 19.6649 11.9389 19.0445C12.7933 18.424 13.4294 17.549 13.7562 16.5449C10.6112 17.1349 7.38916 17.1349 4.24316 16.5449Z" fill="#6D6E73"/>
</g>
</svg>
