<svg width="20" height="20" viewBox="0 0 20 20" fill="none" xmlns="http://www.w3.org/2000/svg">
<g id="Group">
<path id="Vector" d="M6.422 18.6182C8.178 19.5402 9.056 20.0002 10 20.0002V10.0002L0.638 5.07324C0.624395 5.09541 0.61106 5.11775 0.598 5.14024C5.96047e-08 6.15424 0 7.41724 0 9.94224V10.0592C0 12.5832 -1.19209e-07 13.8462 0.597 14.8602C1.195 15.8752 2.271 16.4402 4.422 17.5692L6.422 18.6182Z" fill="#6D6E73"/>
<path id="Vector_2" opacity="0.7" d="M15.5767 2.432L13.5767 1.382C11.8217 0.461 10.9437 0 9.99969 0C9.0547 0 8.1777 0.46 6.4217 1.382L4.4217 2.432C2.3177 3.536 1.2417 4.1 0.637695 5.072L9.99969 10L19.3617 5.073C18.7557 4.1 17.6817 3.536 15.5767 2.432Z" fill="#6D6E73"/>
<path id="Vector_3" opacity="0.5" d="M19.403 5.14024C19.3896 5.11774 19.3759 5.0954 19.362 5.07324L10 10.0002V20.0002C10.944 20.0002 11.822 19.5402 13.578 18.6182L15.578 17.5682C17.729 16.4392 18.805 15.8752 19.403 14.8602C20 13.8462 20 12.5832 20 10.0602V9.94324C20 7.41824 20 6.15424 19.403 5.14024Z" fill="#6D6E73"/>
</g>
</svg>
