<svg width="22" height="21" viewBox="0 0 22 21" fill="none" xmlns="http://www.w3.org/2000/svg">
<g id="Group">
<path id="Vector" fill-rule="evenodd" clip-rule="evenodd" d="M9.75 0H11.75C13.636 0 14.578 -5.96047e-08 15.164 0.586C15.75 1.172 15.75 2.114 15.75 4V19.25H20.75C20.9489 19.25 21.1397 19.329 21.2803 19.4697C21.421 19.6103 21.5 19.8011 21.5 20C21.5 20.1989 21.421 20.3897 21.2803 20.5303C21.1397 20.671 20.9489 20.75 20.75 20.75H0.75C0.551088 20.75 0.360322 20.671 0.21967 20.5303C0.0790177 20.3897 0 20.1989 0 20C0 19.8011 0.0790177 19.6103 0.21967 19.4697C0.360322 19.329 0.551088 19.25 0.75 19.25H5.75V4C5.75 2.114 5.75 1.172 6.336 0.586C6.922 -5.96047e-08 7.864 0 9.75 0ZM8 10C8 9.80109 8.07902 9.61032 8.21967 9.46967C8.36032 9.32902 8.55109 9.25 8.75 9.25H12.75C12.9489 9.25 13.1397 9.32902 13.2803 9.46967C13.421 9.61032 13.5 9.80109 13.5 10C13.5 10.1989 13.421 10.3897 13.2803 10.5303C13.1397 10.671 12.9489 10.75 12.75 10.75H8.75C8.55109 10.75 8.36032 10.671 8.21967 10.5303C8.07902 10.3897 8 10.1989 8 10ZM8 13C8 12.8011 8.07902 12.6103 8.21967 12.4697C8.36032 12.329 8.55109 12.25 8.75 12.25H12.75C12.9489 12.25 13.1397 12.329 13.2803 12.4697C13.421 12.6103 13.5 12.8011 13.5 13C13.5 13.1989 13.421 13.3897 13.2803 13.5303C13.1397 13.671 12.9489 13.75 12.75 13.75H8.75C8.55109 13.75 8.36032 13.671 8.21967 13.5303C8.07902 13.3897 8 13.1989 8 13ZM10.75 16.25C10.9489 16.25 11.1397 16.329 11.2803 16.4697C11.421 16.6103 11.5 16.8011 11.5 17V19.25H10V17C10 16.8011 10.079 16.6103 10.2197 16.4697C10.3603 16.329 10.5511 16.25 10.75 16.25ZM8.25 5C8.25 4.27066 8.53973 3.57118 9.05546 3.05546C9.57118 2.53973 10.2707 2.25 11 2.25C11.7293 2.25 12.4288 2.53973 12.9445 3.05546C13.4603 3.57118 13.75 4.27066 13.75 5C13.75 5.72935 13.4603 6.42882 12.9445 6.94454C12.4288 7.46027 11.7293 7.75 11 7.75C10.2707 7.75 9.57118 7.46027 9.05546 6.94454C8.53973 6.42882 8.25 5.72935 8.25 5Z" fill="#6D6E73"/>
<path id="Vector_2" opacity="0.5" d="M9.75 5C9.75 4.66848 9.8817 4.35054 10.1161 4.11612C10.3505 3.8817 10.6685 3.75 11 3.75C11.3315 3.75 11.6495 3.8817 11.8839 4.11612C12.1183 4.35054 12.25 4.66848 12.25 5C12.25 5.33152 12.1183 5.64946 11.8839 5.88388C11.6495 6.1183 11.3315 6.25 11 6.25C10.6685 6.25 10.3505 6.1183 10.1161 5.88388C9.8817 5.64946 9.75 5.33152 9.75 5Z" fill="#6D6E73"/>
<path id="Vector_3" opacity="0.5" d="M19.913 3.889C20.25 4.393 20.25 5.095 20.25 6.5V19.25H20.75C20.9489 19.25 21.1397 19.329 21.2803 19.4697C21.421 19.6103 21.5 19.8011 21.5 20C21.5 20.1989 21.421 20.3897 21.2803 20.5303C21.1397 20.671 20.9489 20.75 20.75 20.75H0.75C0.551088 20.75 0.360322 20.671 0.21967 20.5303C0.0790177 20.3897 0 20.1989 0 20C0 19.8011 0.0790177 19.6103 0.21967 19.4697C0.360322 19.329 0.551088 19.25 0.75 19.25H1.25V6.5C1.25 5.095 1.25 4.393 1.587 3.889C1.73296 3.67053 1.92053 3.48296 2.139 3.337C2.58 3.042 4.676 3.005 5.757 3.001C5.753 3.292 5.753 3.596 5.753 3.911V5.25H3.25C3.05109 5.25 2.86032 5.32902 2.71967 5.46967C2.57902 5.61032 2.5 5.80109 2.5 6C2.5 6.19891 2.57902 6.38968 2.71967 6.53033C2.86032 6.67098 3.05109 6.75 3.25 6.75H5.753V8.25H3.25C3.05109 8.25 2.86032 8.32902 2.71967 8.46967C2.57902 8.61032 2.5 8.80109 2.5 9C2.5 9.19891 2.57902 9.38968 2.71967 9.53033C2.86032 9.67098 3.05109 9.75 3.25 9.75H5.753V11.25H3.25C3.05109 11.25 2.86032 11.329 2.71967 11.4697C2.57902 11.6103 2.5 11.8011 2.5 12C2.5 12.1989 2.57902 12.3897 2.71967 12.5303C2.86032 12.671 3.05109 12.75 3.25 12.75H5.753V19.25H15.753V12.75H18.25C18.4489 12.75 18.6397 12.671 18.7803 12.5303C18.921 12.3897 19 12.1989 19 12C19 11.8011 18.921 11.6103 18.7803 11.4697C18.6397 11.329 18.4489 11.25 18.25 11.25H15.753V9.75H18.25C18.4489 9.75 18.6397 9.67098 18.7803 9.53033C18.921 9.38968 19 9.19891 19 9C19 8.80109 18.921 8.61032 18.7803 8.46967C18.6397 8.32902 18.4489 8.25 18.25 8.25H15.753V6.75H18.25C18.4489 6.75 18.6397 6.67098 18.7803 6.53033C18.921 6.38968 19 6.19891 19 6C19 5.80109 18.921 5.61032 18.7803 5.46967C18.6397 5.32902 18.4489 5.25 18.25 5.25H15.753V3.91C15.753 3.596 15.753 3.292 15.749 3C16.83 3.005 18.919 3.042 19.361 3.337C19.5795 3.48296 19.767 3.67053 19.913 3.889Z" fill="#6D6E73"/>
</g>
</svg>
