<svg width="22" height="21" viewBox="0 0 22 21" fill="none" xmlns="http://www.w3.org/2000/svg">
<g id="Group">
<path id="Vector" opacity="0.5" d="M19.913 3.889C20.25 4.393 20.25 5.095 20.25 6.5V19.25H20.75C20.9489 19.25 21.1397 19.329 21.2803 19.4697C21.421 19.6103 21.5 19.8011 21.5 20C21.5 20.1989 21.421 20.3897 21.2803 20.5303C21.1397 20.671 20.9489 20.75 20.75 20.75H0.75C0.551088 20.75 0.360322 20.671 0.21967 20.5303C0.0790177 20.3897 0 20.1989 0 20C0 19.8011 0.0790177 19.6103 0.21967 19.4697C0.360322 19.329 0.551088 19.25 0.75 19.25H1.25V6.5C1.25 5.095 1.25 4.393 1.587 3.889C1.73296 3.67053 1.92053 3.48296 2.139 3.337C2.58 3.042 4.676 3.005 5.757 3.001C5.753 3.292 5.753 3.596 5.753 3.911V5.25H3.25C3.05109 5.25 2.86032 5.32902 2.71967 5.46967C2.57902 5.61032 2.5 5.80109 2.5 6C2.5 6.19891 2.57902 6.38968 2.71967 6.53033C2.86032 6.67098 3.05109 6.75 3.25 6.75H5.753V8.25H3.25C3.05109 8.25 2.86032 8.32902 2.71967 8.46967C2.57902 8.61032 2.5 8.80109 2.5 9C2.5 9.19891 2.57902 9.38968 2.71967 9.53033C2.86032 9.67098 3.05109 9.75 3.25 9.75H5.753V11.25H3.25C3.05109 11.25 2.86032 11.329 2.71967 11.4697C2.57902 11.6103 2.5 11.8011 2.5 12C2.5 12.1989 2.57902 12.3897 2.71967 12.5303C2.86032 12.671 3.05109 12.75 3.25 12.75H5.753V19.25H15.753V12.75H18.25C18.4489 12.75 18.6397 12.671 18.7803 12.5303C18.921 12.3897 19 12.1989 19 12C19 11.8011 18.921 11.6103 18.7803 11.4697C18.6397 11.329 18.4489 11.25 18.25 11.25H15.753V9.75H18.25C18.4489 9.75 18.6397 9.67098 18.7803 9.53033C18.921 9.38968 19 9.19891 19 9C19 8.80109 18.921 8.61032 18.7803 8.46967C18.6397 8.32902 18.4489 8.25 18.25 8.25H15.753V6.75H18.25C18.4489 6.75 18.6397 6.67098 18.7803 6.53033C18.921 6.38968 19 6.19891 19 6C19 5.80109 18.921 5.61032 18.7803 5.46967C18.6397 5.32902 18.4489 5.25 18.25 5.25H15.753V3.91C15.753 3.596 15.753 3.292 15.749 3C16.83 3.005 18.919 3.042 19.361 3.337C19.5795 3.48296 19.767 3.67053 19.913 3.889Z" fill="#6D6E73"/>
<path id="Vector_2" fill-rule="evenodd" clip-rule="evenodd" d="M9.75 0H11.75C13.636 0 14.578 -5.96046e-08 15.164 0.586C15.75 1.172 15.75 2.114 15.75 4V19.25H20.75C20.9489 19.25 21.1397 19.329 21.2803 19.4697C21.421 19.6103 21.5 19.8011 21.5 20C21.5 20.1989 21.421 20.3897 21.2803 20.5303C21.1397 20.671 20.9489 20.75 20.75 20.75H0.75C0.551088 20.75 0.360322 20.671 0.21967 20.5303C0.0790177 20.3897 0 20.1989 0 20C0 19.8011 0.0790177 19.6103 0.21967 19.4697C0.360322 19.329 0.551088 19.25 0.75 19.25H5.75V4C5.75 2.114 5.75 1.172 6.336 0.586C6.922 -5.96046e-08 7.864 0 9.75 0ZM10.75 16.25C10.9489 16.25 11.1397 16.329 11.2803 16.4697C11.421 16.6103 11.5 16.8011 11.5 17V19.25H10V17C10 16.8011 10.079 16.6103 10.2197 16.4697C10.3603 16.329 10.5511 16.25 10.75 16.25ZM8.75 12C8.55109 12 8.36032 12.079 8.21967 12.2197C8.07902 12.3603 8 12.5511 8 12.75C8 12.9489 8.07902 13.1397 8.21967 13.2803C8.36032 13.421 8.55109 13.5 8.75 13.5H12.75C12.9489 13.5 13.1397 13.421 13.2803 13.2803C13.421 13.1397 13.5 12.9489 13.5 12.75C13.5 12.5511 13.421 12.3603 13.2803 12.2197C13.1397 12.079 12.9489 12 12.75 12H8.75ZM8 9.75C8 9.55109 8.07902 9.36032 8.21967 9.21967C8.36032 9.07902 8.55109 9 8.75 9H12.75C12.9489 9 13.1397 9.07902 13.2803 9.21967C13.421 9.36032 13.5 9.55109 13.5 9.75C13.5 9.94891 13.421 10.1397 13.2803 10.2803C13.1397 10.421 12.9489 10.5 12.75 10.5H8.75C8.55109 10.5 8.36032 10.421 8.21967 10.2803C8.07902 10.1397 8 9.94891 8 9.75ZM8.75 6.5C8.55109 6.5 8.36032 6.57902 8.21967 6.71967C8.07902 6.86032 8 7.05109 8 7.25C8 7.44891 8.07902 7.63968 8.21967 7.78033C8.36032 7.92098 8.55109 8 8.75 8H12.75C12.9489 8 13.1397 7.92098 13.2803 7.78033C13.421 7.63968 13.5 7.44891 13.5 7.25C13.5 7.05109 13.421 6.86032 13.2803 6.71967C13.1397 6.57902 12.9489 6.5 12.75 6.5H8.75ZM8 4.25C8 4.05109 8.07902 3.86032 8.21967 3.71967C8.36032 3.57902 8.55109 3.5 8.75 3.5H12.75C12.9489 3.5 13.1397 3.57902 13.2803 3.71967C13.421 3.86032 13.5 4.05109 13.5 4.25C13.5 4.44891 13.421 4.63968 13.2803 4.78033C13.1397 4.92098 12.9489 5 12.75 5H8.75C8.55109 5 8.36032 4.92098 8.21967 4.78033C8.07902 4.63968 8 4.44891 8 4.25Z" fill="#6D6E73"/>
</g>
</svg>
