<svg width="20" height="20" viewBox="0 0 20 20" fill="none" xmlns="http://www.w3.org/2000/svg">
<g id="Group">
<path id="Vector" d="M4.96 0C5.378 0 5.716 0.31 5.716 0.692V2.09C6.386 2.078 7.138 2.078 7.984 2.078H12.016C12.862 2.078 13.613 2.078 14.284 2.09V0.692C14.284 0.31 14.622 0 15.04 0C15.458 0 15.796 0.31 15.796 0.692V2.15C17.246 2.256 18.199 2.518 18.899 3.158C19.599 3.799 19.884 4.671 20 6V7H0V6C0.116 4.671 0.401 3.8 1.101 3.158C1.801 2.518 2.753 2.256 4.204 2.15V0.692C4.204 0.31 4.543 0 4.96 0Z" fill="#6D6E73"/>
<path id="Vector_2" opacity="0.5" d="M19.9998 12V10C19.9998 9.161 19.9868 7.665 19.9738 7H0.00577778C-0.00722222 7.665 0.00577778 9.161 0.00577778 10V12C0.00577778 15.771 0.00577796 17.657 1.17578 18.828C2.34878 20 4.23378 20 8.00378 20H12.0038C15.7738 20 17.6578 20 18.8298 18.828C19.9998 17.657 19.9998 15.771 19.9998 12Z" fill="#6D6E73"/>
<path id="Vector_3" d="M16 14.5C16 14.8978 15.842 15.2794 15.5607 15.5607C15.2794 15.842 14.8978 16 14.5 16C14.1022 16 13.7206 15.842 13.4393 15.5607C13.158 15.2794 13 14.8978 13 14.5C13 14.1022 13.158 13.7206 13.4393 13.4393C13.7206 13.158 14.1022 13 14.5 13C14.8978 13 15.2794 13.158 15.5607 13.4393C15.842 13.7206 16 14.1022 16 14.5Z" fill="#6D6E73"/>
</g>
</svg>
