<svg width="21" height="18" viewBox="0 0 21 18" fill="none" xmlns="http://www.w3.org/2000/svg">
<g id="Group">
<path id="Vector" opacity="0.5" d="M8 16H11.627C11.2014 15.4512 10.8889 14.8235 10.7076 14.1531C10.5262 13.4828 10.4797 12.7831 10.5707 12.0946C10.6617 11.4061 10.8884 10.7425 11.2376 10.1423C11.5869 9.54203 12.0517 9.01702 12.6053 8.59767C13.1588 8.17832 13.7901 7.87296 14.4625 7.69928C15.1349 7.5256 15.835 7.48704 16.5224 7.58585C17.2098 7.68465 17.8708 7.91886 18.467 8.27489C19.0633 8.63092 19.583 9.10172 19.996 9.66C20 9.153 20 8.6 20 8C20 7.558 20 6.392 19.998 6H0.00200009C9.33651e-08 6.392 0 7.558 0 8C0 11.771 -1.19209e-07 13.657 1.172 14.828C2.343 16 4.229 16 8 16Z" fill="#6D6E73"/>
<path id="Vector_2" d="M3.25 12C3.25 11.8011 3.32902 11.6103 3.46967 11.4697C3.61032 11.329 3.80109 11.25 4 11.25H8C8.19891 11.25 8.38968 11.329 8.53033 11.4697C8.67098 11.6103 8.75 11.8011 8.75 12C8.75 12.1989 8.67098 12.3897 8.53033 12.5303C8.38968 12.671 8.19891 12.75 8 12.75H4C3.80109 12.75 3.61032 12.671 3.46967 12.5303C3.32902 12.3897 3.25 12.1989 3.25 12Z" fill="#6D6E73"/>
<path id="Vector_3" fill-rule="evenodd" clip-rule="evenodd" d="M15.75 10.4998C15.1533 10.4998 14.581 10.7369 14.159 11.1588C13.7371 11.5808 13.5 12.1531 13.5 12.7498C13.5 13.3466 13.7371 13.9189 14.159 14.3408C14.581 14.7628 15.1533 14.9998 15.75 14.9998C16.3467 14.9998 16.919 14.7628 17.341 14.3408C17.7629 13.9189 18 13.3466 18 12.7498C18 12.1531 17.7629 11.5808 17.341 11.1588C16.919 10.7369 16.3467 10.4998 15.75 10.4998ZM12 12.7498C12.0002 12.1651 12.1371 11.5886 12.3997 11.0663C12.6624 10.5439 13.0436 10.0902 13.5128 9.74139C13.9821 9.39259 14.5264 9.15833 15.1023 9.05734C15.6782 8.95635 16.2697 8.99142 16.8296 9.15975C17.3895 9.32807 17.9023 9.625 18.3271 10.0268C18.7518 10.4286 19.0767 10.9242 19.2758 11.4739C19.475 12.0236 19.5428 12.6123 19.4739 13.1929C19.405 13.7735 19.2013 14.33 18.879 14.8178L19.78 15.7198C19.8537 15.7885 19.9128 15.8713 19.9538 15.9633C19.9948 16.0553 20.0168 16.1546 20.0186 16.2553C20.0204 16.356 20.0018 16.456 19.9641 16.5494C19.9264 16.6428 19.8703 16.7276 19.799 16.7989C19.7278 16.8701 19.643 16.9262 19.5496 16.9639C19.4562 17.0017 19.3562 17.0202 19.2555 17.0184C19.1548 17.0166 19.0555 16.9946 18.9635 16.9536C18.8715 16.9126 18.7887 16.8535 18.72 16.7798L17.818 15.8788C17.2528 16.2525 16.5969 16.466 15.92 16.4967C15.2431 16.5274 14.5705 16.3742 13.9738 16.0532C13.377 15.7323 12.8784 15.2557 12.5309 14.674C12.1833 14.0924 11.9999 13.4274 12 12.7498Z" fill="#6D6E73"/>
<path id="Vector_4" d="M7.995 0H12.005C15.786 0 17.677 1.19209e-07 18.851 1.116C19.697 1.919 19.934 3.076 20 5V6H0V5C0.066 3.075 0.303 1.92 1.149 1.116C2.323 1.19209e-07 4.214 0 7.995 0Z" fill="#6D6E73"/>
</g>
</svg>
