<svg width="20" height="20" viewBox="0 0 20 20" fill="none" xmlns="http://www.w3.org/2000/svg">
<g id="Group">
<path id="Vector" d="M20 3C20 3.79565 19.6839 4.55871 19.1213 5.12132C18.5587 5.68393 17.7956 6 17 6C16.2044 6 15.4413 5.68393 14.8787 5.12132C14.3161 4.55871 14 3.79565 14 3C14 2.20435 14.3161 1.44129 14.8787 0.87868C15.4413 0.316071 16.2044 0 17 0C17.7956 0 18.5587 0.316071 19.1213 0.87868C19.6839 1.44129 20 2.20435 20 3Z" fill="#6D6E73"/>
<path id="Vector_2" opacity="0.5" d="M13.636 0.0109999C13.011 -8.19564e-08 12.306 0 11.5 0H8.5C5.227 0 3.59 0 2.388 0.737C1.7152 1.14904 1.14945 1.71445 0.737 2.387C0 3.59 0 5.228 0 8.5V9.5C0 11.83 1.19209e-07 12.995 0.38 13.913C0.631389 14.5197 0.999842 15.071 1.46432 15.5353C1.92879 15.9996 2.48018 16.3678 3.087 16.619C3.747 16.893 4.534 16.969 5.79 16.991C6.64 17.006 7.065 17.013 7.403 17.21C7.74 17.406 7.951 17.761 8.371 18.472L8.913 19.388C9.396 20.204 10.603 20.204 11.087 19.388L11.629 18.472C12.049 17.762 12.259 17.406 12.597 17.21C12.935 17.013 13.36 17.006 14.21 16.991C15.466 16.97 16.253 16.893 16.913 16.619C17.5196 16.3677 18.0708 15.9994 18.5351 15.5351C18.9994 15.0708 19.3677 14.5196 19.619 13.913C20 12.995 20 11.83 20 9.5V8.5C20 7.695 20 6.989 19.989 6.364C19.1312 7.12659 18.0144 7.53257 16.8671 7.49889C15.7198 7.4652 14.6288 6.9944 13.8172 6.18281C13.0056 5.37121 12.5348 4.28016 12.5011 3.13288C12.4674 1.9856 12.8734 0.868814 13.636 0.0109999Z" fill="#6D6E73"/>
</g>
</svg>
