<svg width="22" height="21" viewBox="0 0 22 21" fill="none" xmlns="http://www.w3.org/2000/svg">
<g id="Group">
<path id="Vector" fill-rule="evenodd" clip-rule="evenodd" d="M1 19.25C0.801088 19.25 0.610322 19.329 0.46967 19.4697C0.329018 19.6103 0.25 19.8011 0.25 20C0.25 20.1989 0.329018 20.3897 0.46967 20.5303C0.610322 20.671 0.801088 20.75 1 20.75H21C21.1989 20.75 21.3897 20.671 21.5303 20.5303C21.671 20.3897 21.75 20.1989 21.75 20C21.75 19.8011 21.671 19.6103 21.5303 19.4697C21.3897 19.329 21.1989 19.25 21 19.25H16V14C16 12.114 16 11.172 15.414 10.586C14.828 10 13.886 10 12 10H10C8.114 10 7.172 10 6.586 10.586C6 11.172 6 12.114 6 14V19.25H1ZM8.25 13C8.25 12.8011 8.32902 12.6103 8.46967 12.4697C8.61032 12.329 8.80109 12.25 9 12.25H13C13.1989 12.25 13.3897 12.329 13.5303 12.4697C13.671 12.6103 13.75 12.8011 13.75 13C13.75 13.1989 13.671 13.3897 13.5303 13.5303C13.3897 13.671 13.1989 13.75 13 13.75H9C8.80109 13.75 8.61032 13.671 8.46967 13.5303C8.32902 13.3897 8.25 13.1989 8.25 13ZM8.25 16C8.25 15.8011 8.32902 15.6103 8.46967 15.4697C8.61032 15.329 8.80109 15.25 9 15.25H13C13.1989 15.25 13.3897 15.329 13.5303 15.4697C13.671 15.6103 13.75 15.8011 13.75 16C13.75 16.1989 13.671 16.3897 13.5303 16.5303C13.3897 16.671 13.1989 16.75 13 16.75H9C8.80109 16.75 8.61032 16.671 8.46967 16.5303C8.32902 16.3897 8.25 16.1989 8.25 16Z" fill="#6D6E73"/>
<path id="Vector_2" opacity="0.5" d="M7 2.5C7.943 2.5 8.414 2.5 8.707 2.793C9 3.086 9 3.557 9 4.5V6.292C9.157 6.369 9.293 6.465 9.414 6.586C9.818 6.99 9.944 7.564 9.983 8.5V10C8.109 10 7.17 10.002 6.586 10.586C6 11.172 6 12.114 6 14V19.25H2V10C2 8.114 2 7.172 2.586 6.586C2.70642 6.46533 2.84639 6.36593 3 6.292V4.5C3 3.557 3 3.086 3.293 2.793C3.586 2.5 4.057 2.5 5 2.5H5.25V1C5.25 0.801088 5.32902 0.610322 5.46967 0.46967C5.61032 0.329018 5.80109 0.25 6 0.25C6.19891 0.25 6.38968 0.329018 6.53033 0.46967C6.67098 0.610322 6.75 0.801088 6.75 1V2.5H7ZM19.644 3.247C19.288 2.733 18.66 2.497 17.404 2.027C14.949 1.106 13.722 0.646 12.861 1.242C12 1.84 12 3.15 12 5.772V10C13.886 10 14.828 10 15.414 10.586C16 11.172 16 12.114 16 14V19.25H20V5.772C20 4.432 20 3.761 19.644 3.247Z" fill="#6D6E73"/>
</g>
</svg>
