<svg width="20" height="20" viewBox="0 0 20 20" fill="none" xmlns="http://www.w3.org/2000/svg">
<g id="Group">
<path id="Vector" opacity="0.5" d="M10 20C5.286 20 2.929 20 1.464 18.535C0 17.072 0 14.714 0 10C0 5.286 0 2.929 1.464 1.464C2.93 0 5.286 0 10 0C14.714 0 17.071 0 18.535 1.464C20 2.93 20 5.286 20 10C20 14.714 20 17.071 18.535 18.535C17.072 20 14.714 20 10 20Z" fill="#6D6E73"/>
<path id="Vector_2" d="M6.97032 6.97015C7.11094 6.8297 7.30157 6.75081 7.50032 6.75081C7.69907 6.75081 7.88969 6.8297 8.03032 6.97015L10.0003 8.94015L11.9703 6.97015C12.039 6.89647 12.1218 6.83736 12.2138 6.79637C12.3058 6.75538 12.4051 6.73334 12.5058 6.73156C12.6065 6.72979 12.7065 6.74831 12.7999 6.78603C12.8933 6.82375 12.9781 6.8799 13.0494 6.95112C13.1206 7.02233 13.1767 7.10717 13.2144 7.20056C13.2522 7.29394 13.2707 7.39397 13.2689 7.49468C13.2671 7.59538 13.2451 7.69469 13.2041 7.78669C13.1631 7.87869 13.104 7.96149 13.0303 8.03015L11.0603 10.0002L13.0303 11.9702C13.104 12.0388 13.1631 12.1216 13.2041 12.2136C13.2451 12.3056 13.2671 12.4049 13.2689 12.5056C13.2707 12.6063 13.2522 12.7064 13.2144 12.7998C13.1767 12.8931 13.1206 12.978 13.0494 13.0492C12.9781 13.1204 12.8933 13.1766 12.7999 13.2143C12.7065 13.252 12.6065 13.2705 12.5058 13.2687C12.4051 13.267 12.3058 13.2449 12.2138 13.2039C12.1218 13.1629 12.039 13.1038 11.9703 13.0302L10.0003 11.0602L8.03032 13.0302C7.88814 13.1626 7.7001 13.2348 7.50579 13.2313C7.31149 13.2279 7.12611 13.1492 6.9887 13.0118C6.85128 12.8744 6.77257 12.689 6.76914 12.4947C6.76571 12.3004 6.83784 12.1123 6.97032 11.9702L8.94032 10.0002L6.97032 8.03015C6.82987 7.88953 6.75098 7.6989 6.75098 7.50015C6.75098 7.3014 6.82987 7.11078 6.97032 6.97015Z" fill="#6D6E73"/>
</g>
</svg>
