<svg width="20" height="20" viewBox="0 0 20 20" fill="none" xmlns="http://www.w3.org/2000/svg">
<g id="Group">
<path id="Vector" opacity="0.5" d="M10 20C15.523 20 20 15.523 20 10C20 9.537 19.306 9.46 19.067 9.857C18.5572 10.7013 17.862 11.4186 17.034 11.9545C16.206 12.4903 15.2669 12.8307 14.2878 12.9499C13.3088 13.0691 12.3154 12.9639 11.383 12.6423C10.4507 12.3207 9.60369 11.7911 8.90628 11.0937C8.20887 10.3963 7.67932 9.54933 7.35772 8.61695C7.03613 7.68457 6.93093 6.69123 7.0501 5.71217C7.16926 4.73311 7.50967 3.794 8.04553 2.96599C8.58139 2.13797 9.29866 1.44275 10.143 0.933C10.54 0.693 10.463 0 10 0C4.477 0 0 4.477 0 10C0 15.523 4.477 20 10 20Z" fill="#6D6E73"/>
<path id="Vector_2" d="M9.286 20C11.337 20 13 18.42 13 16.47C13 14.926 11.955 13.613 10.5 13.134C10.295 11.371 8.72 10 6.81 10C4.758 10 3.095 11.58 3.095 13.53C3.095 13.96 3.177 14.374 3.325 14.756C3.14692 14.7228 2.96615 14.706 2.785 14.706C1.248 14.706 0 15.89 0 17.353C0 18.815 1.247 20 2.786 20H9.286Z" fill="#6D6E73"/>
</g>
</svg>
