<svg width="20" height="20" viewBox="0 0 20 20" fill="none" xmlns="http://www.w3.org/2000/svg">
<g id="Group">
<path id="Vector" opacity="0.5" d="M4.5 16V15.91C4.5 15.045 4.5 14.251 4.587 13.606C4.682 12.895 4.907 12.143 5.525 11.526C6.143 10.907 6.895 10.682 7.605 10.586C8.251 10.5 9.045 10.5 9.911 10.5H10.089C10.955 10.5 11.749 10.5 12.394 10.587C13.105 10.682 13.857 10.907 14.474 11.525C15.093 12.143 15.318 12.895 15.414 13.605C15.499 14.242 15.5 15.021 15.5 15.872C18.073 15.322 20 13.06 20 10.352C20 7.882 18.393 5.78 16.155 5.015C15.837 2.194 13.415 0 10.476 0C7.32 0 4.762 2.528 4.762 5.647C4.762 6.337 4.887 6.997 5.116 7.609C4.84253 7.55585 4.56459 7.52906 4.286 7.529C1.919 7.53 0 9.426 0 11.765C0 14.104 1.919 16 4.286 16H4.5Z" fill="#6D6E73"/>
<path id="Vector_2" fill-rule="evenodd" clip-rule="evenodd" d="M10 20C8.114 20 7.172 20 6.586 19.414C6 18.828 6 17.886 6 16C6 14.114 6 13.172 6.586 12.586C7.172 12 8.114 12 10 12C11.886 12 12.828 12 13.414 12.586C14 13.172 14 14.114 14 16C14 17.886 14 18.828 13.414 19.414C12.828 20 11.886 20 10 20ZM11.805 16.916L10.471 18.249C10.346 18.3737 10.1766 18.4437 10 18.4437C9.82341 18.4437 9.65403 18.3737 9.529 18.249L8.195 16.916C8.13058 16.8546 8.07908 16.781 8.04354 16.6995C8.008 16.6179 7.98913 16.5301 7.98805 16.4411C7.98696 16.3522 8.00369 16.2639 8.03723 16.1815C8.07077 16.0991 8.12046 16.0243 8.18336 15.9614C8.24626 15.8985 8.32112 15.8488 8.40351 15.8152C8.48591 15.7817 8.57418 15.765 8.66313 15.7661C8.75209 15.7671 8.83992 15.786 8.92148 15.8215C9.00303 15.8571 9.07665 15.9086 9.138 15.973L9.333 16.168V14.222C9.333 14.0451 9.40327 13.8754 9.52836 13.7504C9.65345 13.6253 9.8231 13.555 10 13.555C10.1769 13.555 10.3466 13.6253 10.4716 13.7504C10.5967 13.8754 10.667 14.0451 10.667 14.222V16.168L10.862 15.973C10.9881 15.8529 11.1561 15.7869 11.3301 15.789C11.5042 15.7912 11.6705 15.8613 11.7936 15.9844C11.9167 16.1075 11.9868 16.2738 11.989 16.4479C11.9911 16.6219 11.9251 16.7899 11.805 16.916Z" fill="#6D6E73"/>
</g>
</svg>
