<svg width="28" height="28" viewBox="0 0 28 28" fill="none" xmlns="http://www.w3.org/2000/svg">
<g id="Group">
<path id="Vector" d="M27.3797 15.6337L26.8533 14.9127C26.4184 14.3176 26.4127 13.5107 26.8361 12.9042L27.3511 12.1775C27.9462 11.3306 27.6715 10.1576 26.756 9.66547L25.9721 9.24203C25.3197 8.89298 24.965 8.16627 25.0851 7.43955L25.2339 6.55834C25.4056 5.5398 24.6445 4.59565 23.6088 4.55559L22.7162 4.51554C21.978 4.48693 21.3429 3.98338 21.1369 3.27383L20.8908 2.41551C20.6047 1.41986 19.5118 0.904864 18.5562 1.31686L17.7379 1.67163C17.057 1.96346 16.273 1.7918 15.7752 1.23675L15.1801 0.572979C14.4877 -0.19951 13.2804 -0.188066 12.5994 0.590146L12.0158 1.26536C11.5294 1.82041 10.7454 2.00924 10.0645 1.72885L9.24052 1.39125C8.28492 0.996418 7.19771 1.52858 6.92305 2.52995L6.68844 3.38827C6.49961 4.10926 5.8759 4.61854 5.13774 4.65859L4.24508 4.71009C3.20938 4.76731 2.4655 5.72291 2.65433 6.73573L2.81455 7.61122C2.94616 8.33793 2.60283 9.07036 1.95623 9.42514L1.17801 9.86002C0.273916 10.3636 0.0106974 11.5423 0.622967 12.3778L1.1494 13.0988C1.58429 13.6939 1.59001 14.5007 1.16657 15.1072L0.651578 15.8339C0.0564745 16.6808 0.331137 17.8539 1.24668 18.346L2.03061 18.7694C2.68294 19.1185 3.03771 19.8452 2.91755 20.5719L2.76305 21.4474C2.59138 22.4659 3.35243 23.4101 4.38814 23.4501L5.28079 23.4902C6.01895 23.5188 6.65411 24.0223 6.86011 24.7319L7.10616 25.5902C7.39226 26.5859 8.48519 27.1008 9.44079 26.6888L10.2591 26.3341C10.94 26.0422 11.7239 26.2139 12.2218 26.7632L12.8169 27.427C13.5092 28.1995 14.7166 28.1881 15.3975 27.4098L15.9812 26.7346C16.4676 26.1796 17.2515 25.9907 17.9325 26.2711L18.7564 26.6087C19.712 27.0036 20.7992 26.4714 21.0739 25.47L21.3085 24.6117C21.5031 23.9022 22.1325 23.3929 22.8707 23.3471L23.7633 23.2956C24.799 23.2384 25.5429 22.2828 25.3541 21.27L25.1939 20.3945C25.0622 19.6678 25.4056 18.9353 26.0522 18.5806L26.8304 18.1457C27.7288 17.6536 27.9863 16.4691 27.3797 15.6337ZM14.0013 23.0438C9.01163 23.0438 4.96607 18.9983 4.96607 14.0086C4.96607 9.01887 9.01163 4.97331 14.0013 4.97331C18.9911 4.97331 23.0366 9.01887 23.0366 14.0086C23.0366 18.9983 18.9911 23.0438 14.0013 23.0438Z" fill="#A2C1DF"/>
<path id="Vector_2" d="M12.8453 14.249L12.0442 13.4422C11.5693 12.9615 10.7911 12.9615 10.3104 13.4365C9.82977 13.9114 9.82977 14.6896 10.3047 15.1703L11.1058 15.9771L11.9985 16.8698C12.462 17.339 13.2173 17.339 13.6865 16.8755L14.5792 15.9886L17.692 12.8929C18.1727 12.4179 18.1727 11.6397 17.6977 11.1591C17.2228 10.6784 16.4446 10.6784 15.9639 11.1533L12.8453 14.249Z" fill="#A2C1DF"/>
</g>
</svg>
