<svg width="22" height="20" viewBox="0 0 22 20" fill="none" xmlns="http://www.w3.org/2000/svg">
<g id="Layer_1" clip-path="url(#clip0_3012_104515)">
<path id="Subtract" opacity="0.5" fill-rule="evenodd" clip-rule="evenodd" d="M15.3008 1.23209V2.67877C15.3012 3.16162 15.4858 3.62454 15.8141 3.96576C16.1461 4.3083 16.5948 4.50049 17.0623 4.50049C17.5298 4.50049 17.9785 4.3083 18.3105 3.96576C18.4699 3.79561 18.5953 3.59425 18.6794 3.37334C18.7635 3.15243 18.8046 2.91635 18.8005 2.67877V1.62111C19.2478 1.76396 19.6329 1.95776 19.98 2.2207C20.4053 2.53096 20.7797 2.90543 21.09 3.3307C22 4.6407 22 6.5207 22 10.2707C22 14.0207 22 15.8907 21.05 17.2107C20.7368 17.6306 20.3627 18.0014 19.94 18.3107C18.62 19.3107 16.75 19.3107 13 19.3107H9C5.25 19.3107 3.38 19.3107 2.06 18.3107C1.65241 18.0005 1.2949 17.6295 1 17.2107C0 15.8907 0 14.0007 0 10.2707C0 6.5207 0 4.6407 1 3.3307C1.30398 2.90345 1.67551 2.52854 2.1 2.2207C3.42 1.2207 5.29 1.2207 9.04 1.2207H13.04C13.8837 1.2207 14.6323 1.2207 15.3008 1.23209Z" fill="#73A3CE"/>
<g id="Clip path group">
<mask id="mask0_3012_104515" style="mask-type:luminance" maskUnits="userSpaceOnUse" x="1" y="5" width="9" height="10">
<g id="clip-path">
<path id="Vector" d="M10 5.76953H1V14.7695H10V5.76953Z" fill="white"/>
</g>
</mask>
<g mask="url(#mask0_3012_104515)">
<g id="Group">
<path id="Vector_2" d="M7.75 8.76985C7.75015 8.94337 7.69013 9.11158 7.58016 9.24581C7.47019 9.38004 7.31708 9.47199 7.14692 9.50598C6.97676 9.53997 6.80007 9.51391 6.64697 9.43223C6.49387 9.35055 6.37383 9.21831 6.30731 9.05804C6.24078 8.89778 6.23189 8.7194 6.28214 8.55331C6.33239 8.38722 6.43868 8.2437 6.58289 8.14719C6.72711 8.05069 6.90032 8.00718 7.07302 8.02407C7.24572 8.04097 7.40722 8.11722 7.53 8.23985C7.67069 8.38037 7.74982 8.571 7.75 8.76985Z" fill="#73A3CE"/>
<path id="Vector_3" opacity="0.8" fill-rule="evenodd" clip-rule="evenodd" d="M5.47977 6.23985C6.17388 6.22188 6.86844 6.24525 7.55977 6.30985C8.04485 6.34045 8.5043 6.53837 8.85977 6.86985C9.19267 7.22439 9.39082 7.68437 9.41977 8.16985C9.48437 8.86118 9.50774 9.55574 9.48977 10.2499C9.48977 10.9699 9.48977 11.5498 9.48977 12.0299C9.4756 12.4497 9.37339 12.862 9.18977 13.2399C9.1174 13.3892 9.01922 13.5246 8.89977 13.6399C8.539 13.9693 8.0772 14.1667 7.58977 14.1999C6.9018 14.2647 6.21055 14.2881 5.51977 14.2699C4.82566 14.2878 4.1311 14.2645 3.43977 14.1999C2.95584 14.1645 2.4979 13.9672 2.13977 13.6399C1.84708 13.3294 1.66137 12.9334 1.60977 12.5099C1.52878 11.9436 1.49533 11.3716 1.50977 10.7999V10.2199C1.49179 9.52574 1.51517 8.83118 1.57977 8.13985C1.61278 7.65535 1.81036 7.19668 2.13977 6.83985C2.49784 6.50624 2.96119 6.30817 3.44977 6.27985C4.12506 6.2266 4.8029 6.21324 5.47977 6.23985ZM3.47977 6.86985C3.1086 6.87573 2.7526 7.01813 2.47977 7.26985C2.22805 7.54268 2.08565 7.89868 2.07977 8.26985C2.01449 8.93439 1.99111 9.60238 2.00977 10.2699V10.8299C2.00034 11.368 2.03042 11.9061 2.09977 12.4398C2.13446 12.75 2.26764 13.0409 2.47977 13.2699C2.75551 13.5169 3.1097 13.6586 3.47977 13.6699C4.1443 13.7351 4.81229 13.7585 5.47977 13.7399C6.14724 13.7585 6.81523 13.7351 7.47977 13.6699C7.84984 13.6586 8.20403 13.5169 8.47977 13.2699C8.56762 13.1927 8.64198 13.1015 8.69977 12.9999C8.84061 12.6846 8.91873 12.345 8.92977 11.9999C8.92977 11.5499 8.92977 10.9999 8.92977 10.2599C8.94843 9.59238 8.92505 8.92439 8.85977 8.25985C8.85389 7.88868 8.71149 7.53268 8.45977 7.25985C8.18693 7.00813 7.83094 6.86573 7.45977 6.85985C6.79523 6.79457 6.12724 6.77119 5.45977 6.78985C4.79875 6.77535 4.13746 6.80207 3.47977 6.86985Z" fill="#73A3CE"/>
<path id="Vector_4" opacity="0.4" d="M8.72973 13.0002L7.66973 12.0002C7.48638 11.8294 7.24976 11.727 6.99973 11.7102C6.74684 11.6906 6.49521 11.7615 6.28973 11.9102L6.14973 12.0002C6.00141 12.1115 5.81713 12.1639 5.63245 12.1472C5.44778 12.1306 5.27581 12.0462 5.14973 11.9102L3.57973 10.2902C3.43036 10.1232 3.22293 10.0195 2.99973 10.0002C2.78216 9.99531 2.57099 10.0741 2.40974 10.2202L1.99973 10.5802V10.8302C1.99031 11.3684 2.02039 11.9065 2.08973 12.4402C2.12443 12.7504 2.25761 13.0413 2.46973 13.2702C2.74548 13.5173 3.09966 13.659 3.46974 13.6702C4.13427 13.7355 4.80226 13.7589 5.46973 13.7402C6.13721 13.7589 6.8052 13.7355 7.46973 13.6702C7.83981 13.659 8.19399 13.5173 8.46974 13.2702C8.57265 13.1974 8.66086 13.1058 8.72973 13.0002Z" fill="#73A3CE"/>
</g>
</g>
</g>
<path id="Vector_5" d="M11.0996 7.82045C11.0008 7.81822 10.9027 7.83664 10.8114 7.87452C10.7201 7.91241 10.6378 7.96892 10.5696 8.04045C10.4289 8.18097 10.3498 8.37161 10.3496 8.57045C10.3519 8.76887 10.4307 8.95873 10.5696 9.10045C10.7101 9.24115 10.9008 9.32028 11.0996 9.32045H19.0996C19.2985 9.32028 19.4891 9.24115 19.6296 9.10045C19.7685 8.95873 19.8473 8.76887 19.8496 8.57045C19.855 8.46533 19.8382 8.36024 19.8003 8.26204C19.7624 8.16383 19.7042 8.0747 19.6296 8.00045C19.5614 7.92892 19.4791 7.87241 19.3878 7.83452C19.2966 7.79664 19.1984 7.77822 19.0996 7.78045L11.0996 7.82045ZM12.0996 11.3205C12.0008 11.3182 11.9027 11.3366 11.8114 11.3745C11.7201 11.4124 11.6378 11.4689 11.5696 11.5405C11.4289 11.681 11.3498 11.8716 11.3496 12.0705C11.3519 12.2689 11.4307 12.4587 11.5696 12.6005C11.7101 12.7411 11.9008 12.8203 12.0996 12.8205H17.5996C17.7985 12.8203 17.9891 12.7411 18.1296 12.6005C18.2685 12.4587 18.3473 12.2689 18.3496 12.0705C18.3494 11.8716 18.2703 11.681 18.1296 11.5405C18.0614 11.4689 17.9791 11.4124 17.8878 11.3745C17.7966 11.3366 17.6984 11.3182 17.5996 11.3205H12.0996Z" fill="#73A3CE"/>
<path id="Vector_6" d="M17.8096 0.750208C17.8113 0.652369 17.7937 0.555149 17.7577 0.464174C17.7216 0.3732 17.6679 0.290278 17.5996 0.220208C17.4572 0.0791439 17.265 0 17.0646 0C16.8642 0 16.6719 0.0791439 16.5296 0.220208C16.3889 0.360726 16.3097 0.551363 16.3096 0.750208V2.75021C16.3097 2.94905 16.3889 3.13969 16.5296 3.28021C16.6719 3.42127 16.8642 3.50042 17.0646 3.50042C17.265 3.50042 17.4572 3.42127 17.5996 3.28021C17.6679 3.21014 17.7216 3.12722 17.7577 3.03624C17.7937 2.94527 17.8113 2.84805 17.8096 2.75021V0.750208Z" fill="#73A3CE"/>
</g>
<defs>
<clipPath id="clip0_3012_104515">
<rect width="22" height="19.27" fill="white"/>
</clipPath>
</defs>
</svg>
