<svg width="18" height="20" viewBox="0 0 18 20" fill="none" xmlns="http://www.w3.org/2000/svg">
<g id="Layer_1" clip-path="url(#clip0_3012_103609)">
<path id="Vector" opacity="0.5" d="M0 8C0 4.23 0 2.34 1.17 1.17C2.34 0 4.23 0 8 0H10C13.77 0 15.66 0 16.83 1.17C18 2.34 18 4.23 18 8V12C18 15.77 18 17.66 16.83 18.83C15.66 20 13.77 20 10 20H8C4.23 20 2.34 20 1.17 18.83C0 17.66 0 15.77 0 12V8Z" fill="#73A3CE"/>
<path id="Vector_2" d="M4.18984 11.4102H10.9998C11.159 11.4102 11.3116 11.4734 11.4241 11.5859C11.5366 11.6984 11.5998 11.851 11.5998 12.0102C11.5998 12.1693 11.5366 12.3219 11.4241 12.4344C11.3116 12.5469 11.159 12.6102 10.9998 12.6102H4.18984C4.03071 12.6102 3.8781 12.5469 3.76558 12.4344C3.65306 12.3219 3.58984 12.1693 3.58984 12.0102C3.58984 11.851 3.65306 11.6984 3.76558 11.5859C3.8781 11.4734 4.03071 11.4102 4.18984 11.4102Z" fill="#73A3CE"/>
<path id="Vector_3" d="M4.18984 13.6104H8.99984C9.15897 13.6104 9.31159 13.6736 9.42411 13.7861C9.53663 13.8986 9.59984 14.0512 9.59984 14.2104C9.59984 14.3695 9.53663 14.5221 9.42411 14.6346C9.31159 14.7471 9.15897 14.8104 8.99984 14.8104H4.18984C4.03071 14.8104 3.8781 14.7471 3.76558 14.6346C3.65306 14.5221 3.58984 14.3695 3.58984 14.2104C3.58984 14.0512 3.65306 13.8986 3.76558 13.7861C3.8781 13.6736 4.03071 13.6104 4.18984 13.6104Z" fill="#73A3CE"/>
<path id="Vector_4" d="M4.18984 15.8096H9.99984C10.159 15.8096 10.3116 15.8728 10.4241 15.9853C10.5366 16.0978 10.5998 16.2504 10.5998 16.4096C10.5998 16.5687 10.5366 16.7213 10.4241 16.8338C10.3116 16.9464 10.159 17.0096 9.99984 17.0096H4.18984C4.03071 17.0096 3.8781 16.9464 3.76558 16.8338C3.65306 16.7213 3.58984 16.5687 3.58984 16.4096C3.58984 16.2504 3.65306 16.0978 3.76558 15.9853C3.8781 15.8728 4.03071 15.8096 4.18984 15.8096Z" fill="#73A3CE"/>
<g id="Clip path group">
<mask id="mask0_3012_103609" style="mask-type:luminance" maskUnits="userSpaceOnUse" x="5" y="2" width="8" height="8">
<g id="clip-path">
<path id="Vector_5" d="M12.0998 2.41016H5.58984V9.41016H12.0998V2.41016Z" fill="white"/>
</g>
</mask>
<g mask="url(#mask0_3012_103609)">
<g id="Group">
<path id="Vector_6" d="M8.83984 5.61016C9.05226 5.60995 9.26269 5.56922 9.45984 5.49016C9.66195 5.41177 9.84576 5.29263 9.99984 5.14016C10.1509 4.99265 10.2701 4.81565 10.3498 4.62016C10.4353 4.42815 10.4795 4.22033 10.4795 4.01016C10.4795 3.79999 10.4353 3.59216 10.3498 3.40016C10.2701 3.20466 10.1509 3.02766 9.99984 2.88016C9.84869 2.72882 9.66838 2.60975 9.46984 2.53016C9.27269 2.45109 9.06226 2.41036 8.84984 2.41016C8.41971 2.40995 8.00671 2.57874 7.69984 2.88016C7.54876 3.02766 7.42963 3.20466 7.34984 3.40016C7.1898 3.79108 7.1898 4.22924 7.34984 4.62016C7.42963 4.81565 7.54876 4.99265 7.69984 5.14016C8.00424 5.43915 8.41317 5.60775 8.83984 5.61016ZM8.83984 9.41016C12.0998 9.41016 12.0998 8.69016 12.0998 7.81016C12.0998 6.93016 10.6398 6.21016 8.83984 6.21016C7.03984 6.21016 5.58984 6.93016 5.58984 7.81016C5.58984 8.69016 5.58984 9.41016 8.83984 9.41016Z" fill="#73A3CE"/>
</g>
</g>
</g>
</g>
<defs>
<clipPath id="clip0_3012_103609">
<rect width="18" height="20" fill="white"/>
</clipPath>
</defs>
</svg>
