<svg width="20" height="20" viewBox="0 0 20 20" fill="none" xmlns="http://www.w3.org/2000/svg">
<g id="Group">
<path id="Vector" fill-rule="evenodd" clip-rule="evenodd" d="M16 12.0004C16.0004 13.3522 15.6582 14.682 15.0054 15.8658C14.3526 17.0495 13.4105 18.0485 12.2671 18.7695C11.1236 19.4906 9.81609 19.9101 8.4666 19.9889C7.1171 20.0678 5.76963 19.8034 4.55 19.2204C4.19439 19.0415 3.78658 18.9954 3.4 19.0904L2.173 19.4194C1.95267 19.4782 1.72075 19.478 1.50053 19.4188C1.2803 19.3597 1.07951 19.2436 0.918314 19.0823C0.757117 18.921 0.641185 18.7201 0.582154 18.4999C0.523123 18.2796 0.523069 18.0477 0.581999 17.8274L0.909999 16.6004C1.00512 16.2138 0.95902 15.806 0.779999 15.4504C0.262973 14.367 -0.00360001 13.1811 3.67158e-05 11.9806C0.00367344 10.7802 0.277427 9.59595 0.801007 8.51568C1.32459 7.43542 2.08457 6.48684 3.02462 5.74025C3.96468 4.99366 5.0607 4.4682 6.23146 4.20281C7.40222 3.93743 8.61769 3.93893 9.7878 4.2072C10.9579 4.47548 12.0526 5.00364 12.9908 5.75255C13.929 6.50146 14.6867 7.45192 15.2076 8.53347C15.7285 9.61502 15.9993 10.7999 16 12.0004ZM4.5 13.0004C4.76521 13.0004 5.01957 12.895 5.20711 12.7075C5.39464 12.52 5.5 12.2656 5.5 12.0004C5.5 11.7352 5.39464 11.4808 5.20711 11.2933C5.01957 11.1058 4.76521 11.0004 4.5 11.0004C4.23478 11.0004 3.98043 11.1058 3.79289 11.2933C3.60536 11.4808 3.5 11.7352 3.5 12.0004C3.5 12.2656 3.60536 12.52 3.79289 12.7075C3.98043 12.895 4.23478 13.0004 4.5 13.0004ZM8 13.0004C8.26521 13.0004 8.51957 12.895 8.70711 12.7075C8.89464 12.52 9 12.2656 9 12.0004C9 11.7352 8.89464 11.4808 8.70711 11.2933C8.51957 11.1058 8.26521 11.0004 8 11.0004C7.73478 11.0004 7.48043 11.1058 7.29289 11.2933C7.10536 11.4808 7 11.7352 7 12.0004C7 12.2656 7.10536 12.52 7.29289 12.7075C7.48043 12.895 7.73478 13.0004 8 13.0004ZM11.5 13.0004C11.7652 13.0004 12.0196 12.895 12.2071 12.7075C12.3946 12.52 12.5 12.2656 12.5 12.0004C12.5 11.7352 12.3946 11.4808 12.2071 11.2933C12.0196 11.1058 11.7652 11.0004 11.5 11.0004C11.2348 11.0004 10.9804 11.1058 10.7929 11.2933C10.6054 11.4808 10.5 11.7352 10.5 12.0004C10.5 12.2656 10.6054 12.52 10.7929 12.7075C10.9804 12.895 11.2348 13.0004 11.5 13.0004Z" fill="#6D6E73"/>
<path id="Vector_2" opacity="0.6" d="M15.9842 12.5081C16.0921 12.4637 16.1988 12.4163 16.3042 12.3661C16.5952 12.2261 16.9262 12.1771 17.2382 12.2611L18.2342 12.5281C18.4134 12.5763 18.602 12.5764 18.7813 12.5285C18.9605 12.4805 19.1239 12.3862 19.2551 12.255C19.3863 12.1239 19.4806 11.9604 19.5286 11.7812C19.5765 11.602 19.5764 11.4133 19.5282 11.2341L19.2612 10.2381C19.1837 9.92389 19.2209 9.59231 19.3662 9.30311C19.7317 8.52076 19.9377 7.67342 19.9721 6.81057C20.0064 5.94773 19.8686 5.08668 19.5664 4.27773C19.2643 3.46877 18.8041 2.72812 18.2125 2.09903C17.621 1.46994 16.91 0.965026 16.1211 0.613778C15.3323 0.26253 14.4813 0.0719889 13.618 0.0532831C12.7547 0.0345774 11.8963 0.188082 11.093 0.504832C10.2896 0.821581 9.55745 1.29523 8.93921 1.8981C8.32097 2.50098 7.82905 3.221 7.49219 4.01611C8.62619 3.94379 9.76259 4.11388 10.8257 4.51505C11.8889 4.91622 12.8543 5.53926 13.6579 6.34271C14.4614 7.14615 15.0846 8.11155 15.4859 9.17464C15.8872 10.2377 16.0574 11.3741 15.9852 12.5081H15.9842Z" fill="#6D6E73"/>
</g>
</svg>
