<svg width="18" height="20" viewBox="0 0 18 20" fill="none" xmlns="http://www.w3.org/2000/svg">
<g id="Group">
<path id="Vector" opacity="0.5" d="M0 8C0 4.229 -1.19209e-07 2.343 1.172 1.172C2.343 -1.19209e-07 4.229 0 8 0H10C13.771 0 15.657 -1.19209e-07 16.828 1.172C18 2.343 18 4.229 18 8V12C18 15.771 18 17.657 16.828 18.828C15.657 20 13.771 20 10 20H8C4.229 20 2.343 20 1.172 18.828C-1.19209e-07 17.657 0 15.771 0 12V8Z" fill="#6D6E73"/>
<path id="Vector_2" fill-rule="evenodd" clip-rule="evenodd" d="M4.25 10C4.25 9.80109 4.32902 9.61032 4.46967 9.46967C4.61032 9.32902 4.80109 9.25 5 9.25H13C13.1989 9.25 13.3897 9.32902 13.5303 9.46967C13.671 9.61032 13.75 9.80109 13.75 10C13.75 10.1989 13.671 10.3897 13.5303 10.5303C13.3897 10.671 13.1989 10.75 13 10.75H5C4.80109 10.75 4.61032 10.671 4.46967 10.5303C4.32902 10.3897 4.25 10.1989 4.25 10ZM4.25 6C4.25 5.80109 4.32902 5.61032 4.46967 5.46967C4.61032 5.32902 4.80109 5.25 5 5.25H13C13.1989 5.25 13.3897 5.32902 13.5303 5.46967C13.671 5.61032 13.75 5.80109 13.75 6C13.75 6.19891 13.671 6.38968 13.5303 6.53033C13.3897 6.67098 13.1989 6.75 13 6.75H5C4.80109 6.75 4.61032 6.67098 4.46967 6.53033C4.32902 6.38968 4.25 6.19891 4.25 6ZM4.25 14C4.25 13.8011 4.32902 13.6103 4.46967 13.4697C4.61032 13.329 4.80109 13.25 5 13.25H10C10.1989 13.25 10.3897 13.329 10.5303 13.4697C10.671 13.6103 10.75 13.8011 10.75 14C10.75 14.1989 10.671 14.3897 10.5303 14.5303C10.3897 14.671 10.1989 14.75 10 14.75H5C4.80109 14.75 4.61032 14.671 4.46967 14.5303C4.32902 14.3897 4.25 14.1989 4.25 14Z" fill="#6D6E73"/>
</g>
</svg>
