<svg width="22" height="24" viewBox="0 0 22 24" fill="none" xmlns="http://www.w3.org/2000/svg">
<g id="Group">
<g id="Layer 25">
<path id="Vector" d="M21.465 11.117C21.4282 11.2657 21.3621 11.4056 21.2707 11.5285C21.1792 11.6513 21.0641 11.7547 20.9322 11.8326C18.7663 13.1997 17.0427 15.165 15.97 17.4909C15.8944 17.6773 15.772 17.8411 15.6146 17.9664C15.4573 18.0918 15.2703 18.1744 15.0717 18.2065C15.0113 18.2173 14.9502 18.2225 14.8889 18.222C14.718 18.2225 14.5492 18.1851 14.3945 18.1124C14.2399 18.0398 14.1032 17.9338 13.9944 17.802L12.05 15.4687C11.9519 15.3512 11.878 15.2156 11.8323 15.0696C11.7867 14.9235 11.7703 14.7699 11.784 14.6175C11.7977 14.4651 11.8413 14.3169 11.9123 14.1814C11.9833 14.0459 12.0803 13.9256 12.1978 13.8276C12.3149 13.7288 12.4505 13.6542 12.5966 13.6081C12.7427 13.562 12.8965 13.5454 13.0492 13.5591C13.2018 13.5729 13.3501 13.6167 13.4857 13.6882C13.6212 13.7596 13.7413 13.8572 13.8389 13.9754L14.6633 14.9631C15.9215 12.8742 17.66 11.1157 19.7344 9.83369C19.9996 9.67442 20.3171 9.62686 20.6172 9.70147C20.7659 9.73825 20.9058 9.80432 21.0287 9.8958C21.1515 9.98728 21.2549 10.1023 21.3328 10.2342C21.492 10.4994 21.5396 10.8169 21.465 11.117Z" fill="#A2C1DF"/>
<path id="Vector_2" d="M20.625 0.760786C20.3472 0.495096 19.9788 0.344953 19.5944 0.340786C19.5828 0.340786 19.5711 0.333008 19.5556 0.333008H3.22222C3.01793 0.332957 2.81563 0.373158 2.62688 0.451313C2.43812 0.529469 2.26662 0.644049 2.12216 0.788506C1.97771 0.932962 1.86313 1.10447 1.78497 1.29322C1.70682 1.48197 1.66662 1.68427 1.66667 1.88856V18.9997H0.888889C0.785844 19 0.687107 19.0411 0.614243 19.1139C0.541379 19.1868 0.500308 19.2855 0.5 19.3886V22.1108C0.499949 22.3151 0.54015 22.5174 0.618306 22.7061C0.696462 22.8949 0.811041 23.0664 0.955498 23.2108C1.09995 23.3553 1.27146 23.4699 1.46021 23.548C1.64896 23.6262 1.85126 23.6664 2.05556 23.6663H17.2222C17.4265 23.6664 17.6288 23.6262 17.8176 23.548C18.0063 23.4699 18.1778 23.3553 18.3223 23.2108C18.4667 23.0664 18.5813 22.8949 18.6595 22.7061C18.7376 22.5174 18.7778 22.3151 18.7778 22.1108V14.6441C17.9291 15.5831 17.2252 16.6435 16.6894 17.7902C16.562 18.0994 16.3575 18.3708 16.0954 18.5784C15.8333 18.7861 15.5223 18.9231 15.1922 18.9763C15.0919 18.9918 14.9904 18.9996 14.8889 18.9997C14.6038 18.9998 14.3223 18.9372 14.0642 18.8162C13.8061 18.6952 13.5778 18.5189 13.3956 18.2997L11.4511 15.9663C11.2054 15.6712 11.0526 15.31 11.0119 14.9282C10.9713 14.5463 11.0446 14.161 11.2226 13.8208C11.4006 13.4805 11.6754 13.2006 12.0123 13.0163C12.3491 12.8321 12.733 12.7516 13.1156 12.7852C13.371 12.8067 13.6195 12.8789 13.8466 12.9978C14.0736 13.1167 14.2746 13.2798 14.4378 13.4775L14.5894 13.6602C15.7126 12.0285 17.1335 10.6233 18.7778 9.51856V1.95467C18.7723 1.74751 18.8448 1.54584 18.9809 1.38957C19.117 1.23329 19.3068 1.1338 19.5128 1.11079C19.6188 1.10582 19.7247 1.12219 19.8242 1.15893C19.9237 1.19567 20.0149 1.25203 20.0922 1.32467C20.1687 1.39726 20.2296 1.48473 20.2711 1.5817C20.3125 1.67867 20.3337 1.7831 20.3333 1.88856V4.61079H19.5556C19.4524 4.61079 19.3535 4.65176 19.2806 4.72469C19.2076 4.79762 19.1667 4.89653 19.1667 4.99967C19.1667 5.10281 19.2076 5.20173 19.2806 5.27466C19.3535 5.34759 19.4524 5.38856 19.5556 5.38856H20.7222C20.8253 5.38826 20.924 5.34718 20.9969 5.27432C21.0697 5.20146 21.1108 5.10272 21.1111 4.99967V1.88856C21.1112 1.67739 21.0681 1.46842 20.9845 1.27449C20.9009 1.08057 20.7786 0.905755 20.625 0.760786ZM7.5 2.66634H12.9444C13.2539 2.66634 13.5506 2.78926 13.7694 3.00805C13.9882 3.22684 14.1111 3.52359 14.1111 3.83301C14.1111 4.14243 13.9882 4.43917 13.7694 4.65797C13.5506 4.87676 13.2539 4.99967 12.9444 4.99967H7.5C7.19058 4.99967 6.89383 4.87676 6.67504 4.65797C6.45625 4.43917 6.33333 4.14243 6.33333 3.83301C6.33333 3.52359 6.45625 3.22684 6.67504 3.00805C6.89383 2.78926 7.19058 2.66634 7.5 2.66634ZM15.6667 19.7775V22.1108C15.667 22.384 15.7394 22.6523 15.8767 22.8886H2.05556C1.84947 22.8879 1.65199 22.8058 1.50626 22.6601C1.36054 22.5143 1.27839 22.3169 1.27778 22.1108V19.7775H15.6667ZM5.16667 15.1108C5.06353 15.1108 4.96461 15.0698 4.89168 14.9969C4.81875 14.924 4.77778 14.825 4.77778 14.7219C4.77778 14.6188 4.81875 14.5198 4.89168 14.4469C4.96461 14.374 5.06353 14.333 5.16667 14.333H8.27778C8.38092 14.333 8.47983 14.374 8.55276 14.4469C8.6257 14.5198 8.66667 14.6188 8.66667 14.7219C8.66667 14.825 8.6257 14.924 8.55276 14.9969C8.47983 15.0698 8.38092 15.1108 8.27778 15.1108H5.16667ZM7.5 15.8886C7.49969 15.9916 7.45862 16.0903 7.38576 16.1632C7.31289 16.2361 7.21416 16.2771 7.11111 16.2775H5.94444C5.8413 16.2775 5.74239 16.2365 5.66946 16.1636C5.59653 16.0906 5.55556 15.9917 5.55556 15.8886C5.55556 15.7854 5.59653 15.6865 5.66946 15.6136C5.74239 15.5406 5.8413 15.4997 5.94444 15.4997H7.11111C7.21416 15.5 7.31289 15.5411 7.38576 15.6139C7.45862 15.6868 7.49969 15.7855 7.5 15.8886ZM9.44444 16.6663C9.54758 16.6663 9.6465 16.7073 9.71943 16.7802C9.79236 16.8532 9.83333 16.9521 9.83333 17.0552C9.83333 17.1584 9.79236 17.2573 9.71943 17.3302C9.6465 17.4031 9.54758 17.4441 9.44444 17.4441H4.77778C4.67464 17.4441 4.57572 17.4031 4.50279 17.3302C4.42986 17.2573 4.38889 17.1584 4.38889 17.0552C4.38889 16.9521 4.42986 16.8532 4.50279 16.7802C4.57572 16.7073 4.67464 16.6663 4.77778 16.6663H9.44444ZM11.3889 11.9997H4.38889C4.28575 11.9997 4.18683 11.9587 4.1139 11.8858C4.04097 11.8128 4 11.7139 4 11.6108C4 11.5076 4.04097 11.4087 4.1139 11.3358C4.18683 11.2629 4.28575 11.2219 4.38889 11.2219H11.3889C11.492 11.2219 11.5909 11.2629 11.6639 11.3358C11.7368 11.4087 11.7778 11.5076 11.7778 11.6108C11.7778 11.7139 11.7368 11.8128 11.6639 11.8858C11.5909 11.9587 11.492 11.9997 11.3889 11.9997ZM16.0556 9.66634H4.38889C4.28575 9.66634 4.18683 9.62537 4.1139 9.55244C4.04097 9.47951 4 9.38059 4 9.27745C4 9.17431 4.04097 9.0754 4.1139 9.00247C4.18683 8.92953 4.28575 8.88856 4.38889 8.88856H16.0556C16.1587 8.88856 16.2576 8.92953 16.3305 9.00247C16.4035 9.0754 16.4444 9.17431 16.4444 9.27745C16.4444 9.38059 16.4035 9.47951 16.3305 9.55244C16.2576 9.62537 16.1587 9.66634 16.0556 9.66634ZM16.0556 7.33301H5.94444C5.8413 7.33301 5.74239 7.29204 5.66946 7.21911C5.59653 7.14617 5.55556 7.04726 5.55556 6.94412C5.55556 6.84098 5.59653 6.74206 5.66946 6.66913C5.74239 6.5962 5.8413 6.55523 5.94444 6.55523H16.0556C16.1587 6.55523 16.2576 6.5962 16.3305 6.66913C16.4035 6.74206 16.4444 6.84098 16.4444 6.94412C16.4444 7.04726 16.4035 7.14617 16.3305 7.21911C16.2576 7.29204 16.1587 7.33301 16.0556 7.33301Z" fill="#A2C1DF"/>
<path id="Vector_3" d="M12.9447 4.22211C13.0478 4.22211 13.1467 4.18114 13.2196 4.10821C13.2926 4.03528 13.3336 3.93636 13.3336 3.83322C13.3336 3.73009 13.2926 3.63117 13.2196 3.55824C13.1467 3.48531 13.0478 3.44434 12.9447 3.44434H7.50022C7.39708 3.44434 7.29816 3.48531 7.22523 3.55824C7.1523 3.63117 7.11133 3.73009 7.11133 3.83322C7.11133 3.93636 7.1523 4.03528 7.22523 4.10821C7.29816 4.18114 7.39708 4.22211 7.50022 4.22211H12.9447Z" fill="#A2C1DF"/>
</g>
</g>
</svg>
