<svg width="20" height="20" viewBox="0 0 20 20" fill="none" xmlns="http://www.w3.org/2000/svg">
<g id="Group">
<path id="Vector" opacity="0.5" fill-rule="evenodd" clip-rule="evenodd" d="M20 10C20 15.523 15.523 20 10 20C4.477 20 0 15.523 0 10C0 4.477 4.477 0 10 0C15.523 0 20 4.477 20 10Z" fill="#6D6E73"/>
<path id="Vector_2" d="M10.75 4C10.75 3.80109 10.671 3.61032 10.5303 3.46967C10.3897 3.32902 10.1989 3.25 10 3.25C9.80109 3.25 9.61032 3.32902 9.46967 3.46967C9.32902 3.61032 9.25 3.80109 9.25 4V4.317C7.62 4.609 6.25 5.834 6.25 7.5C6.25 9.417 8.063 10.75 10 10.75C11.377 10.75 12.25 11.656 12.25 12.5C12.25 13.344 11.377 14.25 10 14.25C8.623 14.25 7.75 13.344 7.75 12.5C7.75 12.3011 7.67098 12.1103 7.53033 11.9697C7.38968 11.829 7.19891 11.75 7 11.75C6.80109 11.75 6.61032 11.829 6.46967 11.9697C6.32902 12.1103 6.25 12.3011 6.25 12.5C6.25 14.166 7.62 15.391 9.25 15.683V16C9.25 16.1989 9.32902 16.3897 9.46967 16.5303C9.61032 16.671 9.80109 16.75 10 16.75C10.1989 16.75 10.3897 16.671 10.5303 16.5303C10.671 16.3897 10.75 16.1989 10.75 16V15.683C12.38 15.391 13.75 14.166 13.75 12.5C13.75 10.583 11.937 9.25 10 9.25C8.623 9.25 7.75 8.344 7.75 7.5C7.75 6.656 8.623 5.75 10 5.75C11.377 5.75 12.25 6.656 12.25 7.5C12.25 7.69891 12.329 7.88968 12.4697 8.03033C12.6103 8.17098 12.8011 8.25 13 8.25C13.1989 8.25 13.3897 8.17098 13.5303 8.03033C13.671 7.88968 13.75 7.69891 13.75 7.5C13.75 5.834 12.38 4.609 10.75 4.317V4Z" fill="#6D6E73"/>
</g>
</svg>
