<svg width="28" height="28" viewBox="0 0 28 28" fill="none" xmlns="http://www.w3.org/2000/svg">
<g id="Group">
<path id="Vector" d="M14 0C6.27667 0 0 6.27667 0 14C0 21.7233 6.27667 28 14 28C14.875 28 15.7267 27.9183 16.5667 27.7667L15.61 24.8967C15.47 25.0367 15.3183 25.1533 15.1667 25.2583V23.555L12.9967 17.0567C12.88 16.7183 12.8333 16.3683 12.8333 16.03V18.3983C11.725 18.445 10.64 18.5383 9.61333 18.7133C9.40333 17.6167 9.26333 16.4267 9.205 15.1433H12.8333V16.03C12.8333 15.2017 13.16 14.3967 13.7783 13.7783C14.3733 13.1717 15.1783 12.8333 16.0417 12.8333C16.3917 12.8333 16.73 12.8917 17.0683 12.9967L23.4967 15.1433H25.6083C25.585 15.3767 25.5617 15.5983 25.515 15.82L27.7667 16.5667C27.9183 15.7267 28 14.875 28 14C28 6.27667 21.7233 0 14 0ZM12.8333 20.7317V25.2583C11.83 24.5817 10.8733 23.0883 10.1967 20.9767C11.0483 20.8483 11.9233 20.7667 12.8333 20.7317ZM4.2 7.68833C5.13333 8.13167 6.18333 8.505 7.32667 8.80833C7.08167 10.0567 6.93 11.3983 6.87167 12.81H2.39167C2.57833 10.9433 3.23167 9.205 4.2 7.68833ZM2.39167 15.1433H6.87167C6.93 16.5783 7.08167 17.9317 7.32667 19.1917C6.18333 19.495 5.13333 19.8683 4.2 20.3117C3.19417 18.7575 2.57419 16.9856 2.39167 15.1433ZM9.26333 24.6517C7.93379 24.0607 6.72683 23.2257 5.705 22.19C6.37 21.8983 7.105 21.6533 7.88667 21.455C8.26 22.6567 8.72667 23.7417 9.26333 24.6517ZM7.88667 6.545C7.105 6.34667 6.37 6.10167 5.705 5.81C6.72 4.78333 7.92167 3.94333 9.26333 3.34833C8.72667 4.25833 8.26 5.34333 7.88667 6.545ZM12.8333 12.81H9.205C9.26333 11.55 9.40333 10.3717 9.61333 9.28667C10.64 9.46167 11.725 9.555 12.8333 9.60167V12.81ZM12.8333 7.26833C11.9233 7.23333 11.0483 7.15167 10.1967 7.02333C10.8733 4.91167 11.83 3.41833 12.8333 2.74167V7.26833ZM15.1667 2.74167C16.17 3.41833 17.1267 4.91167 17.8033 7.02333C16.9517 7.15167 16.0767 7.23333 15.1667 7.26833V2.74167ZM15.1667 12.81V9.60167C16.275 9.555 17.36 9.46167 18.3867 9.28667C18.5967 10.3717 18.7367 11.55 18.795 12.81H15.1667ZM18.7367 3.34833C20.0783 3.94333 21.28 4.78333 22.295 5.81C21.63 6.10167 20.895 6.34667 20.1133 6.545C19.74 5.34333 19.2733 4.25833 18.7367 3.34833ZM21.1283 12.81C21.07 11.3983 20.9183 10.0567 20.6733 8.80833C21.8167 8.505 22.8667 8.13167 23.8 7.68833C24.7683 9.205 25.4217 10.9433 25.6083 12.81H21.1283Z" fill="#A2C1DF"/>
<path id="Vector_2" d="M19.7364 28.0001H19.7166C19.5364 27.996 19.3618 27.9363 19.2169 27.8292C19.0719 27.722 18.9637 27.5727 18.9069 27.4016L15.2121 16.3183C15.1606 16.1641 15.153 15.9985 15.1903 15.8403C15.2276 15.682 15.3083 15.5373 15.4233 15.4223C15.5382 15.3073 15.683 15.2267 15.8412 15.1894C15.9995 15.1521 16.165 15.1596 16.3192 15.2111L27.4026 18.9059C27.5734 18.9631 27.7224 19.0715 27.8293 19.2165C27.9361 19.3614 27.9957 19.5358 27.9998 19.7159C28.0039 19.896 27.9523 20.0729 27.8521 20.2225C27.7519 20.3722 27.6079 20.4873 27.4399 20.5521L22.4664 22.4654L20.5531 27.4389C20.4896 27.6041 20.3776 27.7461 20.2318 27.8463C20.086 27.9464 19.9133 28.0001 19.7364 28.0001Z" fill="#A2C1DF"/>
</g>
</svg>
