<svg width="18" height="20" viewBox="0 0 18 20" fill="none" xmlns="http://www.w3.org/2000/svg">
<g id="Group">
<path id="Vector" opacity="0.5" d="M6.052 2.5C6 3.078 6 3.804 6 4.722V15.278C6 16.196 6 16.922 6.052 17.5H5C2.643 17.5 1.464 17.5 0.732 16.768C1.19209e-07 16.035 0 14.857 0 12.5V7.5C0 5.143 1.19209e-07 3.964 0.732 3.232C1.464 2.5 2.643 2.5 5 2.5H6.052Z" fill="#6D6E73"/>
<path id="Vector_2" fill-rule="evenodd" clip-rule="evenodd" d="M6.707 0.40894C6 1.03594 6 2.18294 6 4.47594V15.5239C6 17.8169 6 18.9639 6.707 19.5909C7.414 20.2179 8.495 20.0299 10.657 19.6529L12.987 19.2469C15.381 18.8289 16.578 18.6199 17.289 17.7419C18 16.8629 18 15.5929 18 13.0519V6.94794C18 4.40794 18 3.13794 17.29 2.25894C16.578 1.38094 15.38 1.17194 12.986 0.75494L10.658 0.34794C8.496 -0.0290598 7.415 -0.21706 6.708 0.40994L6.707 0.40894ZM9.75 8.95394C9.75 8.51994 9.414 8.16894 9 8.16894C8.586 8.16894 8.25 8.51994 8.25 8.95294V11.0469C8.25 11.4799 8.586 11.8309 9 11.8309C9.414 11.8309 9.75 11.4799 9.75 11.0469V8.95294V8.95394Z" fill="#6D6E73"/>
</g>
</svg>
