<svg width="20" height="18" viewBox="0 0 20 18" fill="none" xmlns="http://www.w3.org/2000/svg">
<g id="Group">
<path id="Vector" fill-rule="evenodd" clip-rule="evenodd" d="M3 0H17L6.816 10.184C6.65154 9.76265 6.38405 9.38926 6.038 9.098C5.81 8.9 5.491 8.721 4.855 8.362L1.942 6.722C0.993 6.189 0.519 5.922 0.26 5.492C0 5.061 0 4.541 0 3.503V2.813C0 1.487 5.96046e-08 0.823 0.44 0.411C0.878 0 1.585 0 3 0Z" fill="#6D6E73"/>
<path id="Vector_2" opacity="0.5" d="M20.0004 3.504V2.814C20.0004 1.488 20.0004 0.824 19.5604 0.412C19.1224 -5.96046e-08 18.4154 0 17.0004 0L6.81543 10.184C6.86543 10.313 6.90543 10.447 6.93643 10.587C7.00043 10.872 7.00043 11.206 7.00043 11.873V14.543C7.00043 15.452 7.00043 15.907 7.25243 16.261C7.50443 16.616 7.95243 16.791 8.84643 17.141C10.7254 17.875 11.6644 18.242 12.3324 17.824C13.0004 17.407 13.0004 16.452 13.0004 14.542V11.872C13.0004 11.206 13.0004 10.872 13.0634 10.587C13.1893 10.004 13.506 9.47969 13.9634 9.097C14.1904 8.9 14.5084 8.721 15.1454 8.362L18.0584 6.722C19.0064 6.189 19.4814 5.922 19.7404 5.492C20.0004 5.062 20.0004 4.542 20.0004 3.504Z" fill="#6D6E73"/>
</g>
</svg>
