<svg width="20" height="20" viewBox="0 0 20 20" fill="none" xmlns="http://www.w3.org/2000/svg">
<g id="Group">
<path id="Vector" opacity="0.5" d="M20 10.698C19.998 12.168 19.987 13.416 19.904 14.441C19.807 15.631 19.608 16.625 19.164 17.45C18.9702 17.8117 18.7243 18.143 18.434 18.433C17.601 19.266 16.541 19.643 15.197 19.823C13.884 20 12.2 20 10.053 20H9.947C7.799 20 6.117 20 4.803 19.823C3.46 19.643 2.399 19.266 1.567 18.433C0.829 17.695 0.447 16.777 0.245 15.638C0.0449999 14.518 0.00900009 13.126 0.00200009 11.397C9.33651e-08 10.957 0 10.492 0 10V9.94602C0 7.79802 4.47035e-08 6.11602 0.177 4.80202C0.357 3.45902 0.734 2.39802 1.567 1.56602C2.399 0.733023 3.46 0.356024 4.803 0.176024C5.971 0.0190236 7.473 0.00102344 9.302 -0.000976562C9.48712 -0.000976562 9.66466 0.0725626 9.79556 0.203463C9.92646 0.334363 10 0.511902 10 0.697024C10 0.882145 9.92646 1.05968 9.79556 1.19058C9.66466 1.32148 9.48712 1.39502 9.302 1.39502C7.447 1.39702 6.068 1.41302 4.989 1.55802C3.8 1.71802 3.083 2.02202 2.553 2.55202C2.023 3.08202 1.72 3.80002 1.56 4.99002C1.397 6.20002 1.395 7.78802 1.395 10V10.784L2.327 9.97002C2.73553 9.61259 3.26462 9.42375 3.80715 9.44176C4.34967 9.45977 4.86508 9.68328 5.249 10.067L9.239 14.057C9.54857 14.3668 9.95749 14.5574 10.3938 14.5952C10.83 14.6331 11.2657 14.5158 11.624 14.264L11.902 14.069C12.4188 13.7058 13.0435 13.5287 13.674 13.5666C14.3046 13.6046 14.9035 13.8554 15.373 14.278L18.006 16.648C18.271 16.091 18.429 15.36 18.513 14.328C18.592 13.356 18.603 12.176 18.604 10.698C18.604 10.5129 18.6775 10.3354 18.8084 10.2045C18.9393 10.0736 19.1169 10 19.302 10C19.4871 10 19.6647 10.0736 19.7956 10.2045C19.9265 10.3354 20 10.5129 20 10.698Z" fill="#6D6E73"/>
<path id="Vector_2" fill-rule="evenodd" clip-rule="evenodd" d="M15.5 9C13.379 9 12.318 9 11.659 8.341C11 7.682 11 6.621 11 4.5C11 2.379 11 1.318 11.659 0.659C12.318 -5.96046e-08 13.379 0 15.5 0C17.621 0 18.682 -5.96046e-08 19.341 0.659C20 1.318 20 2.379 20 4.5C20 6.621 20 7.682 19.341 8.341C18.682 9 17.621 9 15.5 9ZM17.53 3.47L16.03 1.97C15.8894 1.82955 15.6988 1.75066 15.5 1.75066C15.3012 1.75066 15.1106 1.82955 14.97 1.97L13.47 3.47C13.3375 3.61217 13.2654 3.80022 13.2688 3.99452C13.2723 4.18882 13.351 4.37421 13.4884 4.51162C13.6258 4.64903 13.8112 4.72775 14.0055 4.73117C14.1998 4.7346 14.3878 4.66248 14.53 4.53L14.75 4.31V6.5C14.75 6.69891 14.829 6.88968 14.9697 7.03033C15.1103 7.17098 15.3011 7.25 15.5 7.25C15.6989 7.25 15.8897 7.17098 16.0303 7.03033C16.171 6.88968 16.25 6.69891 16.25 6.5V4.31L16.47 4.53C16.5387 4.60369 16.6215 4.66279 16.7135 4.70378C16.8055 4.74477 16.9048 4.76681 17.0055 4.76859C17.1062 4.77037 17.2062 4.75184 17.2996 4.71412C17.393 4.6764 17.4778 4.62026 17.549 4.54904C17.6203 4.47782 17.6764 4.39299 17.7141 4.2996C17.7518 4.20621 17.7704 4.10618 17.7686 4.00548C17.7668 3.90477 17.7448 3.80546 17.7038 3.71346C17.6628 3.62146 17.6037 3.53866 17.53 3.47Z" fill="#6D6E73"/>
</g>
</svg>
