<svg width="20" height="22" viewBox="0 0 20 22" fill="none" xmlns="http://www.w3.org/2000/svg">
<g id="Group">
<path id="Vector" opacity="0.5" d="M9 16C12.866 16 16 12.866 16 9C16 5.13401 12.866 2 9 2C5.13401 2 2 5.13401 2 9C2 12.866 5.13401 16 9 16Z" fill="#6D6E73"/>
<path id="Vector_2" d="M6.60205 7.21301C6.47105 5.75401 5.34605 4.39501 4.80005 3.89701L4.49805 3.63901C5.75799 2.57802 7.35289 1.99738 9.00005 2.00001C10.55 2.00001 11.98 2.50301 13.14 3.35601C13.304 3.85301 12.992 4.89201 12.665 5.38901C12.545 5.56901 12.277 5.79301 11.982 6.00501C11.316 6.48301 10.477 6.72001 10.05 7.60001C9.94303 7.82157 9.92235 8.07504 9.99205 8.31101C10.034 8.46501 10.061 8.63201 10.062 8.79601C10.062 9.32401 9.52805 9.70601 9.00005 9.70001C7.62505 9.68501 6.72505 8.57701 6.60205 7.21301ZM10.006 13.393C10.697 12.09 13.003 12.09 13.003 12.09C15.405 12.065 15.73 10.606 15.947 9.87001C15.7553 11.3966 15.0662 12.8175 13.9863 13.9134C12.9064 15.0092 11.4956 15.719 9.97205 15.933C9.74605 15.458 9.47905 14.387 10.006 13.393Z" fill="#6D6E73"/>
<path id="Vector_3" fill-rule="evenodd" clip-rule="evenodd" d="M15.003 0.50048C15.0687 0.426925 15.1482 0.367044 15.237 0.324262C15.3259 0.281481 15.4223 0.256639 15.5207 0.251159C15.6192 0.245679 15.7178 0.259668 15.8108 0.292326C15.9039 0.324983 15.9895 0.375668 16.063 0.44148C17.2243 1.47819 18.1532 2.74886 18.7887 4.17003C19.4241 5.5912 19.7517 7.13072 19.75 8.68748C19.75 14.4385 15.361 19.1655 9.74998 19.7005V20.2505H11C11.1989 20.2505 11.3897 20.3295 11.5303 20.4701C11.671 20.6108 11.75 20.8016 11.75 21.0005C11.75 21.1994 11.671 21.3902 11.5303 21.5308C11.3897 21.6715 11.1989 21.7505 11 21.7505H6.99998C6.80106 21.7505 6.6103 21.6715 6.46965 21.5308C6.32899 21.3902 6.24998 21.1994 6.24998 21.0005C6.24998 20.8016 6.32899 20.6108 6.46965 20.4701C6.6103 20.3295 6.80106 20.2505 6.99998 20.2505H8.24998V19.7415C6.768 19.6845 5.31271 19.3295 3.97101 18.6975C2.62931 18.0656 1.42873 17.1698 0.440976 16.0635C0.374643 15.9902 0.323454 15.9045 0.290356 15.8113C0.257257 15.7182 0.242901 15.6194 0.248114 15.5207C0.253326 15.422 0.278004 15.3252 0.320728 15.2361C0.363451 15.147 0.423378 15.0671 0.497062 15.0012C0.570745 14.9353 0.656732 14.8846 0.750075 14.8521C0.843419 14.8195 0.942277 14.8057 1.04097 14.8115C1.13965 14.8173 1.23623 14.8425 1.32513 14.8858C1.41403 14.929 1.4935 14.9894 1.55898 15.0635C2.455 16.0675 3.55336 16.8706 4.78188 17.4199C6.0104 17.9692 7.34125 18.2522 8.68698 18.2505C11.2232 18.2505 13.6556 17.243 15.449 15.4495C17.2424 13.6561 18.25 11.2237 18.25 8.68748C18.2516 7.34168 17.9684 6.01078 17.4189 4.78226C16.8695 3.55373 16.0662 2.45541 15.062 1.55948C14.9884 1.4938 14.9285 1.41427 14.8858 1.32542C14.843 1.23658 14.8181 1.14017 14.8127 1.04171C14.8072 0.943259 14.8212 0.844689 14.8538 0.751646C14.8865 0.658602 14.9372 0.572912 15.003 0.499479V0.50048Z" fill="#6D6E73"/>
</g>
</svg>
