<svg width="17" height="20" viewBox="0 0 17 20" fill="none" xmlns="http://www.w3.org/2000/svg">
<g id="Group">
<path id="Vector" opacity="0.5" d="M2.26 19.3885H2C1.057 19.3885 0.586 19.3885 0.293 19.0955C2.08616e-07 18.8035 0 18.3325 0 17.3895V16.2775C0 15.7595 -1.04308e-07 15.5005 0.133 15.2685C0.266 15.0375 0.467 14.9205 0.869 14.6865C3.515 13.1475 7.271 12.2815 9.779 13.7765C9.947 13.8775 10.099 13.9995 10.229 14.1445C10.3633 14.2916 10.4668 14.4642 10.5333 14.6521C10.5998 14.8399 10.628 15.0391 10.6163 15.238C10.6045 15.4369 10.553 15.6315 10.4649 15.8102C10.3767 15.9889 10.2537 16.1481 10.103 16.2785C9.98281 16.3927 9.83606 16.4752 9.676 16.5185C9.796 16.5045 9.911 16.4885 10.021 16.4715C10.932 16.3265 11.697 15.8385 12.397 15.3095L14.205 13.9445C14.5275 13.7098 14.9161 13.5835 15.315 13.5835C15.7139 13.5835 16.1024 13.7098 16.425 13.9445C16.998 14.3775 17.174 15.0905 16.811 15.6725C16.388 16.3505 15.792 17.2175 15.22 17.7475C14.647 18.2775 13.794 18.7515 13.098 19.0875C12.326 19.4605 11.474 19.6745 10.607 19.8155C8.849 20.0995 7.017 20.0555 5.277 19.6975C4.28429 19.4933 3.27348 19.3892 2.26 19.3885Z" fill="#6D6E73"/>
<path id="Vector_2" d="M2.58627 0.586273C2.21927 0.953273 2.08227 1.45927 2.03127 2.25027C2.61746 2.24225 3.17737 2.00575 3.59182 1.59112C4.00626 1.17648 4.24251 0.616468 4.25027 0.0302734C3.46027 0.0822734 2.95327 0.219273 2.58627 0.586273ZM13.4143 0.586273C13.0473 0.219273 12.5413 0.0822734 11.7503 0.0312734C11.7583 0.617464 11.9948 1.17737 12.4094 1.59182C12.8241 2.00626 13.3841 2.24251 13.9703 2.25027C13.9183 1.46027 13.7813 0.953273 13.4143 0.586273ZM13.4143 7.41427C13.0473 7.78127 12.5413 7.91827 11.7503 7.96927C11.7583 7.38308 11.9948 6.82317 12.4094 6.40873C12.8241 5.99428 13.3841 5.75804 13.9703 5.75027C13.9183 6.54027 13.7813 7.04727 13.4143 7.41427ZM2.58627 7.41427C2.95327 7.78127 3.45927 7.91827 4.25027 7.96927C4.24225 7.38308 4.00575 6.82317 3.59112 6.40873C3.17648 5.99428 2.61647 5.75804 2.03027 5.75027C2.08227 6.54027 2.21927 7.04727 2.58627 7.41427Z" fill="#6D6E73"/>
<path id="Vector_3" fill-rule="evenodd" clip-rule="evenodd" d="M2 3.75C2.99456 3.75 3.94839 3.35491 4.65165 2.65165C5.35491 1.94839 5.75 0.994562 5.75 0H10.25C10.25 0.994562 10.6451 1.94839 11.3483 2.65165C12.0516 3.35491 13.0054 3.75 14 3.75V4.25C13.0054 4.25 12.0516 4.64509 11.3483 5.34835C10.6451 6.05161 10.25 7.00544 10.25 8H5.75C5.75 7.00544 5.35491 6.05161 4.65165 5.34835C3.94839 4.64509 2.99456 4.25 2 4.25V3.75ZM8 5C8.26522 5 8.51957 4.89464 8.70711 4.70711C8.89464 4.51957 9 4.26522 9 4C9 3.73478 8.89464 3.48043 8.70711 3.29289C8.51957 3.10536 8.26522 3 8 3C7.73478 3 7.48043 3.10536 7.29289 3.29289C7.10536 3.48043 7 3.73478 7 4C7 4.26522 7.10536 4.51957 7.29289 4.70711C7.48043 4.89464 7.73478 5 8 5Z" fill="#6D6E73"/>
</g>
</svg>
