<svg width="20" height="18" viewBox="0 0 20 18" fill="none" xmlns="http://www.w3.org/2000/svg">
<g id="Group">
<path id="Vector" opacity="0.5" d="M0 6.3184C0 10.0474 4.02 13.9914 6.962 16.3784C8.294 17.4604 8.96 18.0004 10 18.0004C11.04 18.0004 11.706 17.4604 13.038 16.3794C15.981 13.9904 20 10.0474 20 6.3174C20 0.0873976 14.5 -2.2386 10 2.5744C5.5 -2.2386 0 0.0873971 0 6.3184Z" fill="#6D6E73"/>
<path id="Vector_2" fill-rule="evenodd" clip-rule="evenodd" d="M14.5 3.25C14.6989 3.25 14.8897 3.32902 15.0303 3.46967C15.171 3.61032 15.25 3.80109 15.25 4V5.25H16.5C16.6989 5.25 16.8897 5.32902 17.0303 5.46967C17.171 5.61032 17.25 5.80109 17.25 6C17.25 6.19891 17.171 6.38968 17.0303 6.53033C16.8897 6.67098 16.6989 6.75 16.5 6.75H15.25V8C15.25 8.19891 15.171 8.38968 15.0303 8.53033C14.8897 8.67098 14.6989 8.75 14.5 8.75C14.3011 8.75 14.1103 8.67098 13.9697 8.53033C13.829 8.38968 13.75 8.19891 13.75 8V6.75H12.5C12.3011 6.75 12.1103 6.67098 11.9697 6.53033C11.829 6.38968 11.75 6.19891 11.75 6C11.75 5.80109 11.829 5.61032 11.9697 5.46967C12.1103 5.32902 12.3011 5.25 12.5 5.25H13.75V4C13.75 3.80109 13.829 3.61032 13.9697 3.46967C14.1103 3.32902 14.3011 3.25 14.5 3.25Z" fill="#6D6E73"/>
</g>
</svg>
