<svg width="20" height="20" viewBox="0 0 20 20" fill="none" xmlns="http://www.w3.org/2000/svg">
<g id="Group">
<path id="Vector" fill-rule="evenodd" clip-rule="evenodd" d="M3.07922 3.06902C6.87422 -0.720979 13.0442 -0.680979 16.8622 3.13802C20.6822 6.95802 20.7222 13.131 16.9262 16.926C13.1312 20.721 6.95822 20.682 3.13822 16.862C2.06372 15.792 1.25187 14.4874 0.766398 13.0508C0.280927 11.6141 0.135051 10.0845 0.340223 8.58202C0.367143 8.38483 0.471292 8.20641 0.629761 8.08602C0.788229 7.96562 0.988035 7.9131 1.18522 7.94002C1.38241 7.96694 1.56083 8.07109 1.68123 8.22956C1.80163 8.38803 1.85414 8.58783 1.82722 8.78502C1.65306 10.0583 1.77653 11.3547 2.18793 12.5722C2.59933 13.7898 3.28745 14.8953 4.19822 15.802C7.44322 19.046 12.6662 19.065 15.8662 15.866C19.0652 12.666 19.0462 7.44302 15.8022 4.19802C12.5592 0.956021 7.33922 0.935022 4.13922 4.13002L4.88722 4.13302C4.98571 4.13348 5.08315 4.15334 5.17397 4.19145C5.26479 4.22957 5.34721 4.2852 5.41653 4.35517C5.48585 4.42514 5.54071 4.50807 5.57797 4.59924C5.61524 4.69041 5.63418 4.78803 5.63372 4.88652C5.63326 4.98501 5.61341 5.08245 5.57529 5.17327C5.53718 5.26409 5.48155 5.34651 5.41158 5.41583C5.34161 5.48515 5.25867 5.54 5.1675 5.57727C5.07633 5.61454 4.97871 5.63348 4.88022 5.63302L2.33422 5.62102C2.13652 5.61997 1.94724 5.5409 1.80753 5.40101C1.66783 5.26112 1.58901 5.07172 1.58822 4.87402L1.57522 2.33002C1.5747 2.23153 1.59358 2.1339 1.63078 2.0427C1.66799 1.95151 1.72279 1.86854 1.79206 1.79852C1.86134 1.7285 1.94372 1.67282 2.03452 1.63464C2.12531 1.59647 2.22273 1.57655 2.32122 1.57602C2.41971 1.5755 2.51735 1.59438 2.60854 1.63158C2.69974 1.66879 2.78271 1.72359 2.85273 1.79286C2.92274 1.86214 2.97843 1.94452 3.0166 2.03531C3.05478 2.12611 3.0747 2.22353 3.07522 2.32202L3.07922 3.07002V3.06902Z" fill="#6D6E73"/>
<path id="Vector_2" opacity="0.5" d="M10 5.25C10.1989 5.25 10.3897 5.32902 10.5303 5.46967C10.671 5.61032 10.75 5.80109 10.75 6V9.69L13.03 11.97C13.1037 12.0387 13.1628 12.1215 13.2038 12.2135C13.2448 12.3055 13.2668 12.4048 13.2686 12.5055C13.2704 12.6062 13.2518 12.7062 13.2141 12.7996C13.1764 12.893 13.1203 12.9778 13.049 13.049C12.9778 13.1203 12.893 13.1764 12.7996 13.2141C12.7062 13.2518 12.6062 13.2704 12.5055 13.2686C12.4048 13.2668 12.3055 13.2448 12.2135 13.2038C12.1215 13.1628 12.0387 13.1037 11.97 13.03L9.543 10.604C9.45002 10.511 9.37628 10.4007 9.326 10.2792C9.27572 10.1577 9.2499 10.0275 9.25 9.896V6C9.25 5.80109 9.32902 5.61032 9.46967 5.46967C9.61032 5.32902 9.80109 5.25 10 5.25Z" fill="#6D6E73"/>
</g>
</svg>
