<svg width="22" height="22" viewBox="0 0 22 22" fill="none" xmlns="http://www.w3.org/2000/svg">
<g id="Group">
<path id="Vector" fill-rule="evenodd" clip-rule="evenodd" d="M10.25 1C10.25 0.801088 10.329 0.610322 10.4697 0.46967C10.6103 0.329018 10.8011 0.25 11 0.25C16.937 0.25 21.75 5.063 21.75 11C21.75 16.937 16.937 21.75 11 21.75C5.063 21.75 0.25 16.937 0.25 11C0.25 10.8011 0.329018 10.6103 0.46967 10.4697C0.610322 10.329 0.801088 10.25 1 10.25C1.19891 10.25 1.38968 10.329 1.53033 10.4697C1.67098 10.6103 1.75 10.8011 1.75 11C1.75 12.8295 2.2925 14.6179 3.30891 16.139C4.32531 17.6602 5.76996 18.8458 7.46018 19.5459C9.15039 20.246 11.0103 20.4292 12.8046 20.0723C14.5989 19.7154 16.2471 18.8344 17.5407 17.5407C18.8344 16.2471 19.7154 14.5989 20.0723 12.8046C20.4292 11.0103 20.246 9.15039 19.5459 7.46018C18.8458 5.76996 17.6602 4.32531 16.139 3.30891C14.6179 2.2925 12.8295 1.75 11 1.75C10.8011 1.75 10.6103 1.67098 10.4697 1.53033C10.329 1.38968 10.25 1.19891 10.25 1Z" fill="#6D6E73"/>
<path id="Vector_2" opacity="0.5" fill-rule="evenodd" clip-rule="evenodd" d="M8.10024 1.39831C8.13573 1.49024 8.15276 1.58825 8.15036 1.68676C8.14795 1.78526 8.12616 1.88233 8.08623 1.97241C8.0463 2.0625 7.989 2.14383 7.91763 2.21176C7.84625 2.27969 7.76218 2.33289 7.67024 2.36831C7.52916 2.42286 7.38945 2.48087 7.25124 2.54231C7.16091 2.58429 7.06313 2.60785 6.9636 2.61162C6.86407 2.61539 6.76479 2.5993 6.67154 2.56429C6.5783 2.52928 6.49296 2.47605 6.42051 2.4077C6.34807 2.33935 6.28996 2.25725 6.24958 2.1662C6.2092 2.07516 6.18736 1.97698 6.18534 1.8774C6.18332 1.77782 6.20115 1.67883 6.23779 1.58622C6.27444 1.4936 6.32916 1.40921 6.39878 1.33798C6.46839 1.26674 6.55149 1.21008 6.64324 1.17131C6.80383 1.09954 6.96621 1.03185 7.13024 0.968314C7.22216 0.93282 7.32017 0.915789 7.41868 0.918192C7.51719 0.920595 7.61425 0.942386 7.70434 0.982319C7.79442 1.02225 7.87575 1.07954 7.94368 1.15092C8.01161 1.2223 8.06481 1.30637 8.10024 1.39831ZM4.64824 3.24131C4.78529 3.38536 4.85954 3.57793 4.85467 3.7767C4.84979 3.97546 4.76619 4.16416 4.62224 4.30131C4.51224 4.40631 4.40624 4.51331 4.30224 4.62231C4.23434 4.69369 4.15306 4.75099 4.06302 4.79095C3.97298 4.83091 3.87595 4.85274 3.77747 4.8552C3.679 4.85766 3.581 4.8407 3.48908 4.80529C3.39716 4.76988 3.31311 4.71671 3.24174 4.64881C3.17036 4.58092 3.11306 4.49963 3.0731 4.40959C3.03314 4.31956 3.01131 4.22253 3.00885 4.12405C3.00639 4.02558 3.02335 3.92758 3.05876 3.83566C3.09417 3.74373 3.14734 3.65969 3.21524 3.58831C3.33624 3.46131 3.46124 3.33631 3.58824 3.21531C3.73228 3.07826 3.92485 3.004 4.12362 3.00888C4.32239 3.01376 4.51109 3.09736 4.64824 3.24131ZM2.16124 6.26031C2.34288 6.34124 2.48495 6.49099 2.55621 6.67664C2.62747 6.86229 2.62208 7.06863 2.54124 7.25031C2.48124 7.38831 2.42224 7.52831 2.36824 7.67031C2.29663 7.85597 2.1542 8.00557 1.97229 8.08621C1.79038 8.16685 1.58389 8.17192 1.39824 8.10031C1.21258 8.02871 1.06298 7.88628 0.982342 7.70437C0.901701 7.52246 0.896627 7.31597 0.968235 7.13031C1.03224 6.96531 1.09924 6.80231 1.17124 6.64231C1.21121 6.55229 1.26854 6.47101 1.33993 6.40314C1.41132 6.33527 1.49538 6.28212 1.58731 6.24674C1.67925 6.21136 1.77725 6.19444 1.87572 6.19694C1.9742 6.19944 2.07122 6.22031 2.16124 6.26031Z" fill="#6D6E73"/>
<path id="Vector_3" opacity="0.5" d="M11 7.25C11.1989 7.25 11.3897 7.32902 11.5303 7.46967C11.671 7.61032 11.75 7.80109 11.75 8V11.25H15C15.1989 11.25 15.3897 11.329 15.5303 11.4697C15.671 11.6103 15.75 11.8011 15.75 12C15.75 12.1989 15.671 12.3897 15.5303 12.5303C15.3897 12.671 15.1989 12.75 15 12.75H11C10.8011 12.75 10.6103 12.671 10.4697 12.5303C10.329 12.3897 10.25 12.1989 10.25 12V8C10.25 7.80109 10.329 7.61032 10.4697 7.46967C10.6103 7.32902 10.8011 7.25 11 7.25Z" fill="#6D6E73"/>
</g>
</svg>
