<svg width="14" height="20" viewBox="0 0 14 20" fill="none" xmlns="http://www.w3.org/2000/svg">
<g id="Group">
<path id="Vector" fill-rule="evenodd" clip-rule="evenodd" d="M6.9999 0C2.8669 0 0.799899 0 0.197899 1.3C0.146158 1.412 0.102708 1.52764 0.0678988 1.646C-0.342101 3.033 1.1199 4.641 4.0419 7.856L5.9999 10H7.9999L9.9579 7.857C12.8799 4.641 14.3409 3.033 13.9319 1.647C13.8972 1.52794 13.8538 1.41163 13.8019 1.299C13.1999 0 11.1329 0 6.9999 0ZM4.9999 2.75C4.80099 2.75 4.61022 2.82902 4.46957 2.96967C4.32892 3.11032 4.2499 3.30109 4.2499 3.5C4.2499 3.69891 4.32892 3.88968 4.46957 4.03033C4.61022 4.17098 4.80099 4.25 4.9999 4.25H8.9999C9.19881 4.25 9.38958 4.17098 9.53023 4.03033C9.67088 3.88968 9.7499 3.69891 9.7499 3.5C9.7499 3.30109 9.67088 3.11032 9.53023 2.96967C9.38958 2.82902 9.19881 2.75 8.9999 2.75H4.9999Z" fill="#6D6E73"/>
<path id="Vector_2" opacity="0.5" d="M0.197636 18.7C0.799636 20 2.86664 20 6.99964 20C11.1326 20 13.1996 20 13.8016 18.7C13.8534 18.588 13.8969 18.4724 13.9316 18.354C14.3416 16.967 12.8796 15.359 9.95764 12.144L7.99964 10H5.99964L4.04164 12.143C1.11964 15.359 -0.341364 16.967 0.0676361 18.353C0.102636 18.473 0.145636 18.588 0.197636 18.7Z" fill="#6D6E73"/>
<path id="Vector_3" d="M5 15.75C4.80109 15.75 4.61032 15.829 4.46967 15.9697C4.32902 16.1103 4.25 16.3011 4.25 16.5C4.25 16.6989 4.32902 16.8897 4.46967 17.0303C4.61032 17.171 4.80109 17.25 5 17.25H9C9.19891 17.25 9.38968 17.171 9.53033 17.0303C9.67098 16.8897 9.75 16.6989 9.75 16.5C9.75 16.3011 9.67098 16.1103 9.53033 15.9697C9.38968 15.829 9.19891 15.75 9 15.75H5Z" fill="#6D6E73"/>
</g>
</svg>
