<svg width="41" height="40" viewBox="0 0 41 40" fill="none" xmlns="http://www.w3.org/2000/svg">
<g id="LaunchingMax logo">
<g clip-path="url(#clip0_6176_52753)">
<path id="Vector" d="M27.5 34H0.5L2.85923 29.6963L15.8265 6L18.4902 9.99944L7.7087 29.6963H24.6335L27.5 34Z" fill="#1665AE"/>
<path id="Vector_2" d="M40.5 34H35.6928L25.3265 14.8507L19.3283 25.7963H14.5L22.9273 10.4168L25.3478 6L27.7428 10.4297L40.5 34Z" fill="#6D6E73"/>
</g>
</g>
<defs>
<clipPath id="clip0_6176_52753">
<path d="M0.5 8C0.5 3.58172 4.08172 0 8.5 0H32.5C36.9183 0 40.5 3.58172 40.5 8V32C40.5 36.4183 36.9183 40 32.5 40H8.5C4.08172 40 0.5 36.4183 0.5 32V8Z" fill="white"/>
</clipPath>
</defs>
</svg>