<svg width="20" height="20" viewBox="0 0 20 20" fill="none" xmlns="http://www.w3.org/2000/svg">
<g id="Group">
<path id="Vector" fill-rule="evenodd" clip-rule="evenodd" d="M4.71991 8.6L6.15891 9.8C7.99491 11.33 8.91391 12.095 9.99891 12.095C11.0859 12.095 12.0039 11.33 13.8409 9.799L15.2809 8.599C15.6339 8.305 15.8109 8.157 15.9049 7.956C15.9999 7.754 15.9999 7.524 15.9999 7.063V5C15.9999 4.68 15.9999 4.38 15.9979 4.102C15.9859 2.331 15.8999 1.365 15.2679 0.732C14.5349 1.19209e-07 13.3569 0 10.9999 0H8.99991C6.64291 0 5.46391 1.19209e-07 4.73191 0.732C4.09891 1.365 4.01191 2.331 3.99991 4.102C3.99791 4.381 3.99991 4.679 3.99991 5V7.063C3.99991 7.523 3.99991 7.754 4.09391 7.956C4.18891 8.157 4.36691 8.305 4.71991 8.6ZM7.24991 4C7.24991 3.80109 7.32893 3.61032 7.46958 3.46967C7.61023 3.32902 7.801 3.25 7.99991 3.25H11.9999C12.1988 3.25 12.3896 3.32902 12.5302 3.46967C12.6709 3.61032 12.7499 3.80109 12.7499 4C12.7499 4.19891 12.6709 4.38968 12.5302 4.53033C12.3896 4.67098 12.1988 4.75 11.9999 4.75H7.99991C7.801 4.75 7.61023 4.67098 7.46958 4.53033C7.32893 4.38968 7.24991 4.19891 7.24991 4ZM8.24991 7C8.24991 6.80109 8.32893 6.61032 8.46958 6.46967C8.61023 6.32902 8.801 6.25 8.99991 6.25H10.9999C11.1988 6.25 11.3896 6.32902 11.5302 6.46967C11.6709 6.61032 11.7499 6.80109 11.7499 7C11.7499 7.19891 11.6709 7.38968 11.5302 7.53033C11.3896 7.67098 11.1988 7.75 10.9999 7.75H8.99991C8.801 7.75 8.61023 7.67098 8.46958 7.53033C8.32893 7.38968 8.24991 7.19891 8.24991 7Z" fill="#6D6E73"/>
<path id="Vector_2" opacity="0.5" d="M6.159 9.79956L4.719 8.59956C4.366 8.30456 4.189 8.15756 4.094 7.95556C4 7.75356 4 7.52356 4 7.06356V4.10156C2.7 4.22956 1.825 4.51856 1.172 5.17156C-1.19209e-07 6.34256 0 8.22956 0 12.0016C0 15.7716 -1.19209e-07 17.6576 1.172 18.8286C2.343 20.0006 4.229 20.0006 8 20.0006H12C15.771 20.0006 17.657 20.0006 18.828 18.8286C20 17.6586 20 15.7726 20 12.0016C20 8.23056 20 6.34356 18.828 5.17156C18.175 4.51856 17.299 4.22956 15.998 4.10156C16 4.38156 16 4.68056 16 5.00156V7.06456C16 7.52456 16 7.75456 15.905 7.95656C15.811 8.15856 15.635 8.30656 15.28 8.60056L13.84 9.80056C12.004 11.3306 11.086 12.0956 10 12.0956C8.914 12.0956 7.995 11.3306 6.159 9.79956Z" fill="#6D6E73"/>
</g>
</svg>
