<svg width="192" height="166" viewBox="0 0 192 166" fill="none" xmlns="http://www.w3.org/2000/svg">
<g id="1logo-lmax 1" clip-path="url(#clip0_6096_132294)">
<g id="Group">
<path id="Vector" d="M127.874 129.828H0.299805L11.447 109.885L72.7168 0.0791016L85.3024 18.6118L34.3608 109.885H114.329L127.874 129.828Z" fill="#1665AE"/>
<path id="Vector_2" d="M191.7 129.828H168.966L119.943 41.0382L91.575 91.7896H68.7412L108.596 20.4794L120.042 0L131.369 20.539L191.7 129.828Z" fill="#6D6E73"/>
</g>
<g id="Group_2">
<path id="Vector_3" d="M0 159.663V140.872H4.0154V156.386H11.6866V159.683H0V159.663Z" fill="#1665AE"/>
<path id="Vector_4" d="M23.8329 159.663L23.0738 157.716H22.9739C22.3147 158.551 21.6355 159.127 20.9163 159.444C20.1971 159.762 19.2981 159.921 18.1594 159.921C16.781 159.921 15.6823 159.524 14.8832 158.729C14.0841 157.935 13.6846 156.822 13.6846 155.353C13.6846 153.883 14.224 152.711 15.3027 151.976C16.3815 151.241 17.9996 150.843 20.1572 150.764L22.6743 150.685V150.049C22.6743 148.599 21.9151 147.864 20.4169 147.864C19.2582 147.864 17.8997 148.202 16.3415 148.897L15.043 146.255C16.7011 145.381 18.559 144.964 20.5767 144.964C22.5944 144.964 24.0127 145.381 25.0316 146.215C26.0504 147.05 26.5898 148.341 26.5898 150.049V159.623H23.8329V159.663ZM22.6743 153.009L21.156 153.068C20.0173 153.108 19.1583 153.307 18.5989 153.684C18.0396 154.061 17.7599 154.637 17.7599 155.412C17.7599 156.524 18.3992 157.061 19.6777 157.061C20.5967 157.061 21.3158 156.803 21.8752 156.286C22.4345 155.77 22.6942 155.074 22.6942 154.2V153.009H22.6743Z" fill="#1665AE"/>
<path id="Vector_5" d="M40.8731 159.663L40.3337 157.816H40.1339C39.7144 158.491 39.1151 159.008 38.336 159.365C37.5569 159.723 36.6779 159.921 35.679 159.921C33.981 159.921 32.7024 159.464 31.8434 158.571C30.9844 157.677 30.5449 156.366 30.5449 154.677V145.302H34.4804V153.704C34.4804 154.737 34.6602 155.512 35.0398 156.028C35.4193 156.545 35.9987 156.803 36.8177 156.803C37.9165 156.803 38.7156 156.445 39.215 155.71C39.7144 154.975 39.9541 153.764 39.9541 152.075V145.322H43.8896V159.703H40.8731V159.663Z" fill="#1665AE"/>
<path id="Vector_6" d="M61.3896 159.663H57.4541V151.261C57.4541 150.228 57.2743 149.453 56.8948 148.937C56.5152 148.42 55.9359 148.162 55.1168 148.162C54.0181 148.162 53.219 148.52 52.7196 149.255C52.2201 149.99 51.9804 151.201 51.9804 152.89V159.643H48.0449V145.262H51.0615L51.6008 147.109H51.8206C52.2601 146.414 52.8594 145.898 53.6385 145.54C54.4176 145.183 55.2966 145.004 56.2755 145.004C57.9536 145.004 59.2321 145.461 60.1111 146.355C60.9901 147.248 61.4096 148.559 61.4096 150.268V159.643L61.3896 159.663Z" fill="#1665AE"/>
<path id="Vector_7" d="M71.3187 159.921C66.8238 159.921 64.5664 157.458 64.5664 152.552C64.5664 150.109 65.1857 148.241 66.4043 146.95C67.6229 145.659 69.3809 145.023 71.6583 145.023C73.3364 145.023 74.8346 145.341 76.1531 145.997L74.9945 149.036C74.3752 148.778 73.7958 148.579 73.2564 148.42C72.7171 148.261 72.1977 148.182 71.6583 148.182C69.6006 148.182 68.5818 149.632 68.5818 152.532C68.5818 155.432 69.6006 156.743 71.6583 156.743C72.4174 156.743 73.1166 156.644 73.7559 156.445C74.3951 156.246 75.0544 155.929 75.6937 155.492V158.848C75.0544 159.246 74.4151 159.524 73.7559 159.683C73.0966 159.842 72.2776 159.921 71.2987 159.921H71.3187Z" fill="#1665AE"/>
<path id="Vector_8" d="M92.3941 159.663H88.4586V151.261C88.4586 149.195 87.6795 148.142 86.1412 148.142C85.0425 148.142 84.2434 148.52 83.744 149.255C83.2445 149.99 83.0048 151.201 83.0048 152.89V159.643H79.0693V139.641H83.0048V143.713C83.0048 144.03 82.9649 144.785 82.9049 145.957L82.8051 147.109H83.0048C83.8838 145.699 85.2822 145.004 87.2 145.004C88.8981 145.004 90.1766 145.461 91.0756 146.374C91.9745 147.288 92.3941 148.579 92.3941 150.288V159.663Z" fill="#1665AE"/>
<path id="Vector_9" d="M96.2895 141.588C96.2895 140.316 97.0087 139.681 98.4271 139.681C99.8454 139.681 100.565 140.316 100.565 141.588C100.565 142.203 100.385 142.66 100.025 143.018C99.6656 143.375 99.1263 143.534 98.4071 143.534C96.9687 143.534 96.2695 142.899 96.2695 141.607L96.2895 141.588ZM100.405 159.683H96.4693V145.302H100.405V159.683Z" fill="#1665AE"/>
<path id="Vector_10" d="M117.885 159.663H113.949V151.261C113.949 150.228 113.769 149.453 113.39 148.937C113.01 148.42 112.431 148.162 111.612 148.162C110.513 148.162 109.714 148.52 109.215 149.255C108.715 149.99 108.476 151.201 108.476 152.89V159.643H104.54V145.262H107.557L108.096 147.109H108.316C108.755 146.414 109.355 145.898 110.134 145.54C110.913 145.183 111.792 145.004 112.771 145.004C114.449 145.004 115.727 145.461 116.606 146.355C117.485 147.248 117.905 148.559 117.905 150.268V159.643L117.885 159.663Z" fill="#1665AE"/>
<path id="Vector_11" d="M134.526 145.302V147.288L132.269 147.864C132.688 148.5 132.888 149.235 132.888 150.029C132.888 151.579 132.349 152.771 131.27 153.645C130.191 154.519 128.693 154.936 126.755 154.936L126.036 154.896L125.457 154.836C125.057 155.154 124.857 155.492 124.857 155.869C124.857 156.425 125.576 156.723 127.035 156.723H129.492C131.07 156.723 132.289 157.061 133.128 157.736C133.967 158.412 134.366 159.405 134.366 160.716C134.366 162.404 133.667 163.696 132.249 164.629C130.83 165.563 128.813 166.02 126.176 166.02C124.158 166.02 122.62 165.662 121.561 164.967C120.502 164.272 119.963 163.298 119.963 162.027C119.963 161.153 120.243 160.438 120.782 159.862C121.321 159.286 122.12 158.869 123.179 158.61C122.78 158.432 122.42 158.154 122.12 157.776C121.821 157.399 121.661 156.982 121.661 156.545C121.661 155.988 121.821 155.532 122.14 155.174C122.46 154.817 122.92 154.459 123.519 154.101C122.76 153.784 122.16 153.247 121.721 152.532C121.281 151.817 121.062 150.963 121.062 149.99C121.062 148.42 121.581 147.209 122.6 146.355C123.619 145.5 125.097 145.063 126.995 145.063C127.394 145.063 127.874 145.103 128.433 145.183C128.993 145.262 129.352 145.302 129.492 145.342H134.526V145.302ZM123.359 161.709C123.359 162.245 123.619 162.682 124.138 162.98C124.658 163.278 125.397 163.437 126.336 163.437C127.754 163.437 128.853 163.239 129.652 162.861C130.451 162.484 130.85 161.948 130.85 161.272C130.85 160.736 130.611 160.358 130.131 160.16C129.652 159.961 128.933 159.842 127.934 159.842H125.896C125.177 159.842 124.558 160.021 124.078 160.358C123.599 160.696 123.339 161.153 123.339 161.709H123.359ZM124.797 150.01C124.797 150.784 124.977 151.4 125.337 151.857C125.696 152.314 126.236 152.532 126.975 152.532C127.714 152.532 128.253 152.314 128.613 151.857C128.973 151.4 129.132 150.784 129.132 150.01C129.132 148.281 128.413 147.407 126.995 147.407C125.576 147.407 124.817 148.281 124.817 150.01H124.797Z" fill="#1665AE"/>
<path id="Vector_12" d="M154.782 159.663V148.381L149.189 157.677H147.211L141.677 148.619V159.663H137.582V140.872H141.198L148.27 152.552L155.242 140.872H158.838L158.898 159.663H154.802H154.782Z" fill="#6D6E73"/>
<path id="Vector_13" d="M172.083 159.663L171.324 157.716H171.224C170.565 158.551 169.885 159.127 169.166 159.444C168.447 159.762 167.548 159.921 166.409 159.921C165.031 159.921 163.932 159.524 163.133 158.729C162.334 157.935 161.935 156.822 161.935 155.353C161.935 153.883 162.474 152.711 163.553 151.976C164.631 151.241 166.25 150.843 168.407 150.764L170.924 150.685V150.049C170.924 148.599 170.165 147.864 168.667 147.864C167.508 147.864 166.15 148.202 164.592 148.897L163.293 146.255C164.951 145.381 166.809 144.964 168.827 144.964C170.844 144.964 172.263 145.381 173.282 146.215C174.3 147.05 174.84 148.341 174.84 150.049V159.623H172.083V159.663ZM170.924 153.009L169.406 153.068C168.267 153.108 167.408 153.307 166.849 153.684C166.29 154.061 166.01 154.637 166.01 155.412C166.01 156.524 166.649 157.061 167.928 157.061C168.847 157.061 169.566 156.803 170.125 156.286C170.685 155.77 170.944 155.074 170.944 154.2V153.009H170.924Z" fill="#6D6E73"/>
<path id="Vector_14" d="M181.852 152.333L177.197 145.302H181.672L184.469 149.87L187.306 145.302H191.78L187.066 152.333L192 159.683H187.505L184.469 154.757L181.412 159.683H176.938L181.832 152.333H181.852Z" fill="#6D6E73"/>
</g>
</g>
<defs>
<clipPath id="clip0_6096_132294">
<rect width="192" height="166" fill="white"/>
</clipPath>
</defs>
</svg>
