<svg width="166" height="144" viewBox="0 0 166 144" fill="none" xmlns="http://www.w3.org/2000/svg">
<g id="1logo-lmax 1" clip-path="url(#clip0_6096_132277)">
<g id="Group">
<path id="Vector" d="M110.557 112.623H0.258789L9.8965 95.3227L62.8693 0.0693359L73.7506 16.1459L29.7073 95.3227H98.8467L110.557 112.623Z" fill="#1665AE"/>
<path id="Vector_2" d="M165.741 112.622H146.086L103.7 35.5994L79.1744 79.6247H59.4326L93.89 17.7652L103.787 0L113.58 17.8169L165.741 112.622Z" fill="#6D6E73"/>
</g>
<g id="Group_2">
<path id="Vector_3" d="M0 138.504V122.203H3.47165V135.661H10.104V138.521H0V138.504Z" fill="#1665AE"/>
<path id="Vector_4" d="M20.6052 138.504L19.9488 136.815H19.8625C19.2925 137.539 18.7053 138.039 18.0835 138.314C17.4617 138.59 16.6845 138.728 15.7 138.728C14.5082 138.728 13.5582 138.383 12.8674 137.694C12.1765 137.005 11.8311 136.04 11.8311 134.765C11.8311 133.49 12.2974 132.473 13.2301 131.835C14.1628 131.198 15.5618 130.853 17.4271 130.784L19.6034 130.715V130.164C19.6034 128.906 18.9471 128.269 17.6517 128.269C16.6499 128.269 15.4754 128.562 14.1282 129.165L13.0055 126.873C14.4391 126.115 16.0454 125.753 17.7899 125.753C19.5343 125.753 20.7606 126.115 21.6415 126.838C22.5223 127.562 22.9887 128.682 22.9887 130.164V138.469H20.6052V138.504ZM19.6034 132.732L18.2907 132.783C17.3062 132.818 16.5635 132.99 16.0799 133.317C15.5963 133.645 15.3545 134.144 15.3545 134.816C15.3545 135.781 15.9072 136.247 17.0126 136.247C17.8071 136.247 18.4289 136.023 18.9125 135.575C19.3961 135.127 19.6207 134.524 19.6207 133.765V132.732H19.6034Z" fill="#1665AE"/>
<path id="Vector_5" d="M35.3387 138.504L34.8724 136.901H34.6997C34.337 137.487 33.8188 137.935 33.1452 138.245C32.4716 138.556 31.7116 138.728 30.8481 138.728C29.3799 138.728 28.2745 138.332 27.5319 137.556C26.7892 136.781 26.4092 135.644 26.4092 134.179V126.046H29.8117V133.335C29.8117 134.231 29.9672 134.903 30.2954 135.351C30.6235 135.799 31.1244 136.023 31.8325 136.023C32.7825 136.023 33.4734 135.713 33.9052 135.075C34.337 134.437 34.5442 133.386 34.5442 131.922V126.063H37.9468V138.538H35.3387V138.504Z" fill="#1665AE"/>
<path id="Vector_6" d="M53.0767 138.504H49.6741V131.215C49.6741 130.319 49.5187 129.647 49.1905 129.199C48.8623 128.751 48.3615 128.527 47.6533 128.527C46.7034 128.527 46.0125 128.837 45.5807 129.475C45.1489 130.112 44.9416 131.163 44.9416 132.628V138.486H41.5391V126.011H44.1471L44.6135 127.614H44.8034C45.1834 127.011 45.7016 126.563 46.3752 126.252C47.0488 125.942 47.8088 125.787 48.6551 125.787C50.1059 125.787 51.2113 126.183 51.9713 126.959C52.7312 127.734 53.0939 128.871 53.0939 130.353V138.486L53.0767 138.504Z" fill="#1665AE"/>
<path id="Vector_7" d="M61.6602 138.728C57.774 138.728 55.8223 136.591 55.8223 132.335C55.8223 130.216 56.3577 128.596 57.4113 127.476C58.4649 126.356 59.9848 125.805 61.9538 125.805C63.4046 125.805 64.7 126.08 65.84 126.649L64.8382 129.285C64.3028 129.061 63.8019 128.889 63.3355 128.751C62.8692 128.613 62.4201 128.544 61.9538 128.544C60.1748 128.544 59.2939 129.802 59.2939 132.318C59.2939 134.834 60.1748 135.971 61.9538 135.971C62.6101 135.971 63.2146 135.885 63.7673 135.713C64.32 135.54 64.89 135.265 65.4427 134.885V137.798C64.89 138.142 64.3373 138.383 63.7673 138.521C63.1974 138.659 62.4892 138.728 61.6429 138.728H61.6602Z" fill="#1665AE"/>
<path id="Vector_8" d="M79.8826 138.504H76.4801V131.215C76.4801 129.423 75.8065 128.51 74.4765 128.51C73.5266 128.51 72.8357 128.837 72.4039 129.475C71.9721 130.112 71.7649 131.163 71.7649 132.628V138.486H68.3623V121.135H71.7649V124.667C71.7649 124.943 71.7303 125.598 71.6785 126.614L71.5921 127.614H71.7649C72.5248 126.39 73.7339 125.787 75.392 125.787C76.8601 125.787 77.9655 126.183 78.7427 126.976C79.5199 127.769 79.8826 128.889 79.8826 130.371V138.504Z" fill="#1665AE"/>
<path id="Vector_9" d="M83.2507 122.823C83.2507 121.72 83.8725 121.169 85.0988 121.169C86.3251 121.169 86.9469 121.72 86.9469 122.823C86.9469 123.357 86.7914 123.754 86.4805 124.064C86.1696 124.374 85.7033 124.512 85.0815 124.512C83.8379 124.512 83.2334 123.96 83.2334 122.84L83.2507 122.823ZM86.8087 138.521H83.4061V126.045H86.8087V138.521Z" fill="#1665AE"/>
<path id="Vector_10" d="M101.921 138.504H98.5188V131.215C98.5188 130.319 98.3634 129.647 98.0352 129.199C97.7071 128.751 97.2062 128.527 96.498 128.527C95.5481 128.527 94.8572 128.837 94.4254 129.475C93.9936 130.112 93.7863 131.163 93.7863 132.628V138.486H90.3838V126.011H92.9918L93.4582 127.614H93.6482C94.0282 127.011 94.5463 126.563 95.2199 126.252C95.8935 125.942 96.6535 125.787 97.4998 125.787C98.9506 125.787 100.056 126.183 100.816 126.959C101.576 127.734 101.939 128.871 101.939 130.353V138.486L101.921 138.504Z" fill="#1665AE"/>
<path id="Vector_11" d="M116.309 126.046V127.769L114.357 128.268C114.72 128.82 114.893 129.457 114.893 130.147C114.893 131.491 114.426 132.525 113.494 133.283C112.561 134.041 111.266 134.403 109.59 134.403L108.968 134.368L108.468 134.317C108.122 134.592 107.949 134.885 107.949 135.213C107.949 135.695 108.571 135.954 109.832 135.954H111.956C113.321 135.954 114.375 136.246 115.1 136.832C115.825 137.418 116.171 138.28 116.171 139.417C116.171 140.882 115.566 142.002 114.34 142.811C113.114 143.621 111.369 144.018 109.089 144.018C107.345 144.018 106.015 143.707 105.1 143.104C104.184 142.501 103.718 141.657 103.718 140.554C103.718 139.796 103.96 139.176 104.426 138.676C104.892 138.176 105.583 137.814 106.499 137.59C106.153 137.435 105.842 137.194 105.583 136.867C105.324 136.539 105.186 136.178 105.186 135.798C105.186 135.316 105.324 134.92 105.6 134.609C105.877 134.299 106.274 133.989 106.792 133.679C106.136 133.403 105.618 132.938 105.238 132.318C104.858 131.697 104.668 130.956 104.668 130.112C104.668 128.751 105.117 127.7 105.998 126.959C106.879 126.218 108.157 125.839 109.797 125.839C110.143 125.839 110.557 125.873 111.041 125.942C111.525 126.011 111.836 126.046 111.956 126.08H116.309V126.046ZM106.654 140.279C106.654 140.744 106.879 141.123 107.328 141.381C107.777 141.64 108.416 141.778 109.228 141.778C110.454 141.778 111.404 141.605 112.095 141.278C112.786 140.951 113.131 140.485 113.131 139.899C113.131 139.434 112.924 139.107 112.509 138.934C112.095 138.762 111.473 138.659 110.609 138.659H108.848C108.226 138.659 107.69 138.814 107.276 139.107C106.861 139.4 106.637 139.796 106.637 140.279H106.654ZM107.898 130.129C107.898 130.801 108.053 131.336 108.364 131.732C108.675 132.128 109.141 132.318 109.78 132.318C110.419 132.318 110.886 132.128 111.196 131.732C111.507 131.336 111.646 130.801 111.646 130.129C111.646 128.63 111.024 127.872 109.797 127.872C108.571 127.872 107.915 128.63 107.915 130.129H107.898Z" fill="#1665AE"/>
<path id="Vector_12" d="M133.822 138.504V128.716L128.986 136.781H127.276L122.492 128.923V138.504H118.951V122.203H122.077L128.192 132.335L134.22 122.203H137.328L137.38 138.504H133.84H133.822Z" fill="#6D6E73"/>
<path id="Vector_13" d="M148.78 138.504L148.124 136.815H148.037C147.467 137.539 146.88 138.039 146.258 138.314C145.636 138.59 144.859 138.728 143.875 138.728C142.683 138.728 141.733 138.383 141.042 137.694C140.351 137.005 140.006 136.04 140.006 134.765C140.006 133.49 140.472 132.473 141.405 131.835C142.338 131.198 143.737 130.853 145.602 130.784L147.778 130.715V130.164C147.778 128.906 147.122 128.269 145.826 128.269C144.825 128.269 143.65 128.562 142.303 129.165L141.18 126.873C142.614 126.115 144.22 125.753 145.965 125.753C147.709 125.753 148.935 126.115 149.816 126.838C150.697 127.562 151.163 128.682 151.163 130.164V138.469H148.78V138.504ZM147.778 132.732L146.466 132.783C145.481 132.818 144.738 132.99 144.255 133.317C143.771 133.645 143.529 134.144 143.529 134.816C143.529 135.781 144.082 136.247 145.187 136.247C145.982 136.247 146.604 136.023 147.087 135.575C147.571 135.127 147.795 134.524 147.795 133.765V132.732H147.778Z" fill="#6D6E73"/>
<path id="Vector_14" d="M157.225 132.146L153.201 126.046H157.07L159.488 130.009L161.941 126.046H165.81L161.733 132.146L166 138.521H162.113L159.488 134.248L156.845 138.521H152.977L157.208 132.146H157.225Z" fill="#6D6E73"/>
</g>
</g>
<defs>
<clipPath id="clip0_6096_132277">
<rect width="166" height="144" fill="white"/>
</clipPath>
</defs>
</svg>
