<svg width="20" height="21" viewBox="0 0 20 21" fill="none" xmlns="http://www.w3.org/2000/svg">
<g id="Group">
<path id="Vector" opacity="0.5" d="M0 9.25C0 6.35 2.015 4 4.5 4C6.985 4 9 6.35 9 9.25V18H2.233C1 18 0 16.834 0 15.395V9.25Z" fill="#6D6E73"/>
<path id="Vector_2" opacity="0.8" d="M9 9.25V18H17.793C19.012 18 20 16.847 20 15.425V9.25C20 6.35 17.985 4 15.5 4H4.5C6.985 4 9 6.35 9 9.25Z" fill="#6D6E73"/>
<path id="Vector_3" d="M7.5 18V20C7.5 20.1989 7.57902 20.3897 7.71967 20.5303C7.86032 20.671 8.05109 20.75 8.25 20.75C8.44891 20.75 8.63968 20.671 8.78033 20.5303C8.92098 20.3897 9 20.1989 9 20V18H7.5ZM13 18H11.5V20C11.5 20.1989 11.579 20.3897 11.7197 20.5303C11.8603 20.671 12.0511 20.75 12.25 20.75C12.4489 20.75 12.6397 20.671 12.7803 20.5303C12.921 20.3897 13 20.1989 13 20V18Z" fill="#6D6E73"/>
<path id="Vector_4" fill-rule="evenodd" clip-rule="evenodd" d="M2.25 14.0003C2.25 13.8013 2.32902 13.6106 2.46967 13.4699C2.61032 13.3293 2.80109 13.2503 3 13.2503H6C6.19891 13.2503 6.38968 13.3293 6.53033 13.4699C6.67098 13.6106 6.75 13.8013 6.75 14.0003C6.75 14.1992 6.67098 14.3899 6.53033 14.5306C6.38968 14.6712 6.19891 14.7503 6 14.7503H3C2.80109 14.7503 2.61032 14.6712 2.46967 14.5306C2.32902 14.3899 2.25 14.1992 2.25 14.0003ZM15.385 4.58526L15.641 4.53326C16.0567 4.45027 16.4876 4.49023 16.881 4.64826C17.571 4.92526 18.327 4.97626 19.046 4.79626L19.107 4.78126C19.631 4.65026 20 4.16326 20 3.60326V1.47326C20 0.735261 19.336 0.191261 18.645 0.364261C18.249 0.464261 17.833 0.43526 17.452 0.28326L17.379 0.253261C16.7445 -0.00150701 16.0495 -0.0657957 15.379 0.0682606L14.93 0.15826C14.39 0.266261 14 0.758261 14 1.32826V8.28126C14 8.67826 14.31 9.00026 14.692 9.00026C14.7848 8.99857 14.8764 8.9786 14.9614 8.94148C15.0465 8.90437 15.1234 8.85084 15.1878 8.78397C15.2522 8.71709 15.3027 8.63818 15.3366 8.55175C15.3704 8.46532 15.3869 8.37306 15.385 8.28026V4.58526Z" fill="#6D6E73"/>
</g>
</svg>
