<svg width="26" height="26" viewBox="0 0 26 26" fill="none" xmlns="http://www.w3.org/2000/svg">
<g id="Group">
<path id="Vector" d="M4.25 10.375V11.25C4.25 11.7321 4.64287 12.125 5.125 12.125C5.60712 12.125 6 11.7321 6 11.25V9.5C5.99876 9.37391 5.96978 9.24964 5.91512 9.136C5.80658 9.49345 5.58628 9.80667 5.28657 10.0297C4.98687 10.2527 4.62356 10.3737 4.25 10.375ZM5.125 8.625C4.64287 8.625 4.25 9.01787 4.25 9.5C4.73213 9.5 5.125 9.10713 5.125 8.625ZM5.125 6.875C5.125 6.39288 4.73213 6 4.25 6C3.76787 6 3.375 6.39288 3.375 6.875V8.625C3.375 8.75625 3.40825 8.877 3.45988 8.989C3.56842 8.63155 3.78873 8.31833 4.08843 8.09532C4.38813 7.87232 4.75144 7.75129 5.125 7.75V6.875ZM24.375 0.75H18.25V16.5H25.25V1.625C25.25 1.39294 25.1578 1.17038 24.9937 1.00628C24.8296 0.842187 24.6071 0.75 24.375 0.75ZM19.125 11.25C19.125 10.2831 20.105 9.5 21.3125 9.5C20.9644 9.5 20.6306 9.36172 20.3844 9.11558C20.1383 8.86944 20 8.5356 20 8.1875C20 7.8394 20.1383 7.50556 20.3844 7.25942C20.6306 7.01328 20.9644 6.875 21.3125 6.875C21.6606 6.875 21.9944 7.01328 22.2406 7.25942C22.4867 7.50556 22.625 7.8394 22.625 8.1875C22.625 8.5356 22.4867 8.86944 22.2406 9.11558C21.9944 9.36172 21.6606 9.5 21.3125 9.5C22.52 9.5 23.5 10.2831 23.5 11.25H19.125ZM17.375 0.75H8.625V11.25H17.375V0.75ZM13 6C13.9651 6 14.75 6.78487 14.75 7.75C14.75 8.56375 14.19 9.24187 13.4375 9.43787V9.9375C13.4375 10.0535 13.3914 10.1648 13.3094 10.2469C13.2273 10.3289 13.116 10.375 13 10.375C12.884 10.375 12.7727 10.3289 12.6906 10.2469C12.6086 10.1648 12.5625 10.0535 12.5625 9.9375V9.43787C11.81 9.24187 11.25 8.56287 11.25 7.75C11.25 7.63397 11.2961 7.52269 11.3781 7.44064C11.4602 7.35859 11.5715 7.3125 11.6875 7.3125C11.8035 7.3125 11.9148 7.35859 11.9969 7.44064C12.0789 7.52269 12.125 7.63397 12.125 7.75C12.125 8.23212 12.5179 8.625 13 8.625C13.4821 8.625 13.875 8.23212 13.875 7.75C13.875 7.26788 13.4821 6.875 13 6.875C12.0349 6.875 11.25 6.09013 11.25 5.125C11.25 4.31125 11.81 3.63313 12.5625 3.43713V2.9375C12.5625 2.82147 12.6086 2.71019 12.6906 2.62814C12.7727 2.54609 12.884 2.5 13 2.5C13.116 2.5 13.2273 2.54609 13.3094 2.62814C13.3914 2.71019 13.4375 2.82147 13.4375 2.9375V3.43713C14.19 3.63313 14.75 4.31212 14.75 5.125C14.75 5.24103 14.7039 5.35231 14.6219 5.43436C14.5398 5.51641 14.4285 5.5625 14.3125 5.5625C14.1965 5.5625 14.0852 5.51641 14.0031 5.43436C13.9211 5.35231 13.875 5.24103 13.875 5.125C13.875 4.64287 13.4821 4.25 13 4.25C12.5179 4.25 12.125 4.64287 12.125 5.125C12.125 5.60712 12.5179 6 13 6ZM17.375 12.125H8.625V16.5H17.375V12.125ZM15.1875 15.625C14.6179 15.625 14.1375 15.2575 13.9555 14.75H12.125V15.1875C12.125 15.3035 12.0789 15.4148 11.9969 15.4969C11.9148 15.5789 11.8035 15.625 11.6875 15.625C11.5715 15.625 11.4602 15.5789 11.3781 15.4969C11.2961 15.4148 11.25 15.3035 11.25 15.1875V14.75H10.375V15.1875C10.375 15.3035 10.3289 15.4148 10.2469 15.4969C10.1648 15.5789 10.0535 15.625 9.9375 15.625C9.82147 15.625 9.71019 15.5789 9.62814 15.4969C9.54609 15.4148 9.5 15.3035 9.5 15.1875V14.3125C9.5 14.1965 9.54609 14.0852 9.62814 14.0031C9.71019 13.9211 9.82147 13.875 9.9375 13.875H13.9555C14.1366 13.3675 14.6179 13 15.1875 13C15.9111 13 16.5 13.5889 16.5 14.3125C16.5 15.0361 15.9111 15.625 15.1875 15.625ZM13.4375 25.25H24.375C24.6071 25.25 24.8296 25.1578 24.9937 24.9937C25.1578 24.8296 25.25 24.6071 25.25 24.375V17.375H13.4375V25.25ZM17.375 21.3125C17.375 21.1965 17.4211 21.0852 17.5031 21.0031C17.5852 20.9211 17.6965 20.875 17.8125 20.875C17.9285 20.875 18.0398 20.9211 18.1219 21.0031C18.2039 21.0852 18.25 21.1965 18.25 21.3125V22.0064L21.0028 19.2528C21.0434 19.2121 21.0917 19.1798 21.1449 19.1578C21.198 19.1358 21.255 19.1244 21.3125 19.1244C21.37 19.1244 21.427 19.1358 21.4801 19.1578C21.5333 19.1798 21.5816 19.2121 21.6222 19.2528C21.6629 19.2934 21.6952 19.3417 21.7172 19.3949C21.7392 19.448 21.7506 19.505 21.7506 19.5625C21.7506 19.62 21.7392 19.677 21.7172 19.7301C21.6952 19.7833 21.6629 19.8316 21.6222 19.8722L18.8686 22.625H19.5625C19.6785 22.625 19.7898 22.6711 19.8719 22.7531C19.9539 22.8352 20 22.9465 20 23.0625C20 23.1785 19.9539 23.2898 19.8719 23.3719C19.7898 23.4539 19.6785 23.5 19.5625 23.5H17.8125C17.6965 23.5 17.5852 23.4539 17.5031 23.3719C17.4211 23.2898 17.375 23.1785 17.375 23.0625V21.3125ZM0.75 24.375C0.75 24.6071 0.842187 24.8296 1.00628 24.9937C1.17038 25.1578 1.39294 25.25 1.625 25.25H12.5625V17.375H0.75V24.375ZM6 18.25H11.25V22.625H10.375C10.375 22.8571 10.2828 23.0796 10.1187 23.2437C9.95462 23.4078 9.73206 23.5 9.5 23.5C9.26794 23.5 9.04538 23.4078 8.88128 23.2437C8.71719 23.0796 8.625 22.8571 8.625 22.625H6V18.25ZM1.625 20.875L3.375 19.125H5.125V22.625H4.25C4.25 22.8571 4.15781 23.0796 3.99372 23.2437C3.82962 23.4078 3.60706 23.5 3.375 23.5C3.14294 23.5 2.92038 23.4078 2.75628 23.2437C2.59219 23.0796 2.5 22.8571 2.5 22.625H1.625V20.875Z" fill="#A2C1DF"/>
<path id="Vector_2" d="M7.75 0.75H1.625C1.39294 0.75 1.17038 0.842187 1.00628 1.00628C0.842187 1.17038 0.75 1.39294 0.75 1.625V16.5H7.75V0.75ZM6.875 11.25C6.875 12.2151 6.09013 13 5.125 13C4.15987 13 3.375 12.2151 3.375 11.25V10.1318C2.85437 9.82812 2.5 9.26987 2.5 8.625V6.875C2.5 5.90987 3.28487 5.125 4.25 5.125C5.21513 5.125 6 5.90987 6 6.875V7.99325C6.52063 8.29688 6.875 8.85513 6.875 9.5V11.25Z" fill="#A2C1DF"/>
</g>
</svg>
