<svg width="16" height="20" viewBox="0 0 16 20" fill="none" xmlns="http://www.w3.org/2000/svg">
<g id="Group">
<path id="Vector" opacity="0.5" d="M8 0C3.582 0 0 4.003 0 8.5C0 12.962 2.553 17.812 6.537 19.674C6.99492 19.8884 7.49437 19.9996 8 19.9996C8.50563 19.9996 9.00508 19.8884 9.463 19.674C13.447 17.812 16 12.962 16 8.5C16 4.003 12.418 0 8 0Z" fill="#6D6E73"/>
<path id="Vector_2" d="M8 10.5C8.66304 10.5 9.29893 10.2366 9.76777 9.76777C10.2366 9.29893 10.5 8.66304 10.5 8C10.5 7.33696 10.2366 6.70107 9.76777 6.23223C9.29893 5.76339 8.66304 5.5 8 5.5C7.33696 5.5 6.70107 5.76339 6.23223 6.23223C5.76339 6.70107 5.5 7.33696 5.5 8C5.5 8.66304 5.76339 9.29893 6.23223 9.76777C6.70107 10.2366 7.33696 10.5 8 10.5Z" fill="#6D6E73"/>
</g>
</svg>
