<svg width="26" height="31" viewBox="0 0 26 31" fill="none" xmlns="http://www.w3.org/2000/svg">
<g id="Group 26085230">
<g id="Rectangle 116" filter="url(#filter0_dd_1047_50379)">
<path d="M1 13C1 6.37258 6.37258 1 13 1C19.6274 1 25 6.37258 25 13C25 19.6274 19.6274 25 13 25C6.37258 25 1 19.6274 1 13Z" fill="white"/>
</g>
<g id="arrow-right">
<path id="Vector" opacity="0.4" d="M13.7095 10.9697L10.7637 13.1806V16.4531C10.7637 17.0131 11.4403 17.2931 11.837 16.8964L14.8587 13.8747C15.3428 13.3906 15.3428 12.6031 14.8587 12.1189L13.7095 10.9697Z" fill="#8A8B8F"/>
<path id="Vector_2" d="M10.7637 9.54711V13.1813L13.7095 10.9704L11.837 9.09795C11.4403 8.70711 10.7637 8.98711 10.7637 9.54711Z" fill="#8A8B8F"/>
</g>
</g>
<defs>
<filter id="filter0_dd_1047_50379" x="0" y="0" width="26" height="31" filterUnits="userSpaceOnUse" color-interpolation-filters="sRGB">
<feFlood flood-opacity="0" result="BackgroundImageFix"/>
<feColorMatrix in="SourceAlpha" type="matrix" values="0 0 0 0 0 0 0 0 0 0 0 0 0 0 0 0 0 0 127 0" result="hardAlpha"/>
<feOffset/>
<feGaussianBlur stdDeviation="0.5"/>
<feColorMatrix type="matrix" values="0 0 0 0 0 0 0 0 0 0 0 0 0 0 0 0 0 0 0.4 0"/>
<feBlend mode="normal" in2="BackgroundImageFix" result="effect1_dropShadow_1047_50379"/>
<feColorMatrix in="SourceAlpha" type="matrix" values="0 0 0 0 0 0 0 0 0 0 0 0 0 0 0 0 0 0 127 0" result="hardAlpha"/>
<feMorphology radius="6" operator="erode" in="SourceAlpha" result="effect2_dropShadow_1047_50379"/>
<feOffset dy="6"/>
<feGaussianBlur stdDeviation="3"/>
<feColorMatrix type="matrix" values="0 0 0 0 0 0 0 0 0 0 0 0 0 0 0 0 0 0 0.16 0"/>
<feBlend mode="normal" in2="effect1_dropShadow_1047_50379" result="effect2_dropShadow_1047_50379"/>
<feBlend mode="normal" in="SourceGraphic" in2="effect2_dropShadow_1047_50379" result="shape"/>
</filter>
</defs>
</svg>
