<svg width="40" height="40" viewBox="0 0 40 40" fill="none" xmlns="http://www.w3.org/2000/svg">
<g id="Group 26085230" filter="url(#filter0_d_2652_94152)">
<g id="Rectangle 116" filter="url(#filter1_dd_2652_94152)">
<path d="M8 20C8 13.3726 13.3726 8 20 8C26.6274 8 32 13.3726 32 20C32 26.6274 26.6274 32 20 32C13.3726 32 8 26.6274 8 20Z" fill="#071E34"/>
</g>
<g id="arrow-right">
<path id="Vector" opacity="0.4" d="M20.7056 17.97L17.7598 20.1809V23.4534C17.7598 24.0134 18.4364 24.2934 18.8331 23.8967L21.8548 20.875C22.3389 20.3909 22.3389 19.6034 21.8548 19.1192L20.7056 17.97Z" fill="white"/>
<path id="Vector_2" d="M17.7598 16.5466V20.1808L20.7056 17.97L18.8331 16.0975C18.4364 15.7066 17.7598 15.9866 17.7598 16.5466Z" fill="white"/>
</g>
</g>
<defs>
<filter id="filter0_d_2652_94152" x="0" y="0" width="40" height="40" filterUnits="userSpaceOnUse" color-interpolation-filters="sRGB">
<feFlood flood-opacity="0" result="BackgroundImageFix"/>
<feColorMatrix in="SourceAlpha" type="matrix" values="0 0 0 0 0 0 0 0 0 0 0 0 0 0 0 0 0 0 127 0" result="hardAlpha"/>
<feOffset/>
<feGaussianBlur stdDeviation="4"/>
<feComposite in2="hardAlpha" operator="out"/>
<feColorMatrix type="matrix" values="0 0 0 0 1 0 0 0 0 1 0 0 0 0 1 0 0 0 0.25 0"/>
<feBlend mode="normal" in2="BackgroundImageFix" result="effect1_dropShadow_2652_94152"/>
<feBlend mode="normal" in="SourceGraphic" in2="effect1_dropShadow_2652_94152" result="shape"/>
</filter>
<filter id="filter1_dd_2652_94152" x="7" y="7" width="26" height="31" filterUnits="userSpaceOnUse" color-interpolation-filters="sRGB">
<feFlood flood-opacity="0" result="BackgroundImageFix"/>
<feColorMatrix in="SourceAlpha" type="matrix" values="0 0 0 0 0 0 0 0 0 0 0 0 0 0 0 0 0 0 127 0" result="hardAlpha"/>
<feOffset/>
<feGaussianBlur stdDeviation="0.5"/>
<feColorMatrix type="matrix" values="0 0 0 0 0 0 0 0 0 0 0 0 0 0 0 0 0 0 0.4 0"/>
<feBlend mode="normal" in2="BackgroundImageFix" result="effect1_dropShadow_2652_94152"/>
<feColorMatrix in="SourceAlpha" type="matrix" values="0 0 0 0 0 0 0 0 0 0 0 0 0 0 0 0 0 0 127 0" result="hardAlpha"/>
<feMorphology radius="6" operator="erode" in="SourceAlpha" result="effect2_dropShadow_2652_94152"/>
<feOffset dy="6"/>
<feGaussianBlur stdDeviation="3"/>
<feColorMatrix type="matrix" values="0 0 0 0 0 0 0 0 0 0 0 0 0 0 0 0 0 0 0.16 0"/>
<feBlend mode="normal" in2="effect1_dropShadow_2652_94152" result="effect2_dropShadow_2652_94152"/>
<feBlend mode="normal" in="SourceGraphic" in2="effect2_dropShadow_2652_94152" result="shape"/>
</filter>
</defs>
</svg>
