<svg width="40" height="40" viewBox="0 0 40 40" fill="none" xmlns="http://www.w3.org/2000/svg">
<g id="Group 26085230" filter="url(#filter0_d_4273_129524)">
<g id="Rectangle 116" filter="url(#filter1_dd_4273_129524)">
<path d="M8 20C8 13.3726 13.3726 8 20 8C26.6274 8 32 13.3726 32 20C32 26.6274 26.6274 32 20 32C13.3726 32 8 26.6274 8 20Z" fill="#071E34"/>
</g>
<g id="arrow-right">
<path id="Vector" opacity="0.4" d="M19.2827 17.97L22.2285 20.1808V23.4533C22.2285 24.0133 21.5518 24.2933 21.1552 23.8967L18.1335 20.875C17.6493 20.3908 17.6493 19.6033 18.1335 19.1192L19.2827 17.97Z" fill="white"/>
<path id="Vector_2" d="M22.2285 16.5466V20.1808L19.2827 17.97L21.1552 16.0975C21.5518 15.7066 22.2285 15.9866 22.2285 16.5466Z" fill="white"/>
</g>
</g>
<defs>
<filter id="filter0_d_4273_129524" x="0" y="0" width="40" height="40" filterUnits="userSpaceOnUse" color-interpolation-filters="sRGB">
<feFlood flood-opacity="0" result="BackgroundImageFix"/>
<feColorMatrix in="SourceAlpha" type="matrix" values="0 0 0 0 0 0 0 0 0 0 0 0 0 0 0 0 0 0 127 0" result="hardAlpha"/>
<feOffset/>
<feGaussianBlur stdDeviation="4"/>
<feComposite in2="hardAlpha" operator="out"/>
<feColorMatrix type="matrix" values="0 0 0 0 1 0 0 0 0 1 0 0 0 0 1 0 0 0 0.25 0"/>
<feBlend mode="normal" in2="BackgroundImageFix" result="effect1_dropShadow_4273_129524"/>
<feBlend mode="normal" in="SourceGraphic" in2="effect1_dropShadow_4273_129524" result="shape"/>
</filter>
<filter id="filter1_dd_4273_129524" x="7" y="7" width="26" height="31" filterUnits="userSpaceOnUse" color-interpolation-filters="sRGB">
<feFlood flood-opacity="0" result="BackgroundImageFix"/>
<feColorMatrix in="SourceAlpha" type="matrix" values="0 0 0 0 0 0 0 0 0 0 0 0 0 0 0 0 0 0 127 0" result="hardAlpha"/>
<feOffset/>
<feGaussianBlur stdDeviation="0.5"/>
<feColorMatrix type="matrix" values="0 0 0 0 0 0 0 0 0 0 0 0 0 0 0 0 0 0 0.4 0"/>
<feBlend mode="normal" in2="BackgroundImageFix" result="effect1_dropShadow_4273_129524"/>
<feColorMatrix in="SourceAlpha" type="matrix" values="0 0 0 0 0 0 0 0 0 0 0 0 0 0 0 0 0 0 127 0" result="hardAlpha"/>
<feMorphology radius="6" operator="erode" in="SourceAlpha" result="effect2_dropShadow_4273_129524"/>
<feOffset dy="6"/>
<feGaussianBlur stdDeviation="3"/>
<feColorMatrix type="matrix" values="0 0 0 0 0 0 0 0 0 0 0 0 0 0 0 0 0 0 0.16 0"/>
<feBlend mode="normal" in2="effect1_dropShadow_4273_129524" result="effect2_dropShadow_4273_129524"/>
<feBlend mode="normal" in="SourceGraphic" in2="effect2_dropShadow_4273_129524" result="shape"/>
</filter>
</defs>
</svg>
