<svg width="20" height="20" viewBox="0 0 20 20" fill="none" xmlns="http://www.w3.org/2000/svg">
<g id="Group">
<path id="Vector" opacity="0.5" d="M18.3125 9.15701C18.3252 10.3675 18.0977 11.5685 17.6432 12.6905C17.1887 13.8125 16.5163 14.8333 15.6647 15.6938C14.8132 16.5542 13.7995 17.2373 12.6823 17.7035C11.5651 18.1697 10.3666 18.4097 9.15602 18.4097C7.94546 18.4097 6.7469 18.1697 5.6297 17.7035C4.5125 17.2373 3.49882 16.5542 2.6473 15.6938C1.79579 14.8333 1.12334 13.8125 0.668854 12.6905C0.21437 11.5685 -0.013127 10.3675 -0.000476522 9.15701C0.0247291 6.74513 1.00053 4.4406 2.71497 2.74398C4.42941 1.04737 6.74401 0.0957031 9.15602 0.0957031C11.568 0.0957031 13.8826 1.04737 15.5971 2.74398C17.3115 4.4406 18.2873 6.74513 18.3125 9.15701Z" fill="#6D6E73"/>
<path id="Vector_2" fill-rule="evenodd" clip-rule="evenodd" d="M16.8385 16.8395C16.974 16.704 17.1578 16.6279 17.3495 16.6279C17.5411 16.6279 17.7249 16.704 17.8605 16.8395L19.7885 18.7665C19.9241 18.9021 20.0003 19.0861 20.0003 19.278C20.0003 19.4698 19.9241 19.6538 19.7885 19.7895C19.6528 19.9251 19.4688 20.0013 19.277 20.0013C19.0851 20.0013 18.9011 19.9251 18.7655 19.7895L16.8395 17.8605C16.704 17.7249 16.6279 17.5411 16.6279 17.3495C16.6279 17.1578 16.704 16.974 16.8395 16.8385L16.8385 16.8395Z" fill="#6D6E73"/>
</g>
</svg>
