<svg width="21" height="18" viewBox="0 0 21 18" fill="none" xmlns="http://www.w3.org/2000/svg">
<g id="Group">
<path id="Vector" d="M10.4751 2.18267L5.49715 6.60767C4.56715 7.43467 4.10114 7.84767 3.92914 8.33767C3.77883 8.7662 3.77883 9.23313 3.92914 9.66167C4.10114 10.1507 4.56615 10.5637 5.49715 11.3917L10.4751 15.8157C10.8971 16.1917 11.1081 16.3787 11.2871 16.3857C11.3641 16.3886 11.4407 16.3737 11.511 16.3421C11.5812 16.3105 11.6432 16.2631 11.6921 16.2037C11.8061 16.0657 11.8061 15.7837 11.8061 15.2177V12.4277C14.2341 12.4277 16.7991 13.2077 18.6711 14.5927C19.6461 15.3127 20.1341 15.6727 20.3191 15.6597C20.3997 15.6581 20.4783 15.6351 20.5469 15.5928C20.6155 15.5506 20.6715 15.4908 20.7091 15.4197C20.8051 15.2597 20.7201 14.7617 20.5501 13.7667C19.4451 7.29967 14.9951 5.57067 11.8061 5.57067V2.78067C11.8061 2.21567 11.8061 1.93367 11.6921 1.79467C11.6431 1.73537 11.5811 1.68819 11.5108 1.6568C11.4406 1.6254 11.364 1.61064 11.2871 1.61367C11.1071 1.61967 10.8971 1.80767 10.4741 2.18367L10.4751 2.18267Z" fill="#6D6E73"/>
<path id="Vector_2" opacity="0.5" fill-rule="evenodd" clip-rule="evenodd" d="M7.81761 0.990094C7.75064 0.917859 7.6701 0.859524 7.58058 0.81842C7.49107 0.777316 7.39433 0.754248 7.2959 0.750533C7.19746 0.746819 7.09926 0.762531 7.0069 0.796772C6.91454 0.831013 6.82983 0.883112 6.75761 0.950094L1.54161 5.79409C1.0608 6.24056 0.67998 6.78378 0.42422 7.38801C0.16846 7.99224 0.0435545 8.64379 0.0577245 9.29977C0.0718946 9.95575 0.224819 10.6013 0.506433 11.1939C0.788047 11.7865 1.19197 12.3128 1.69161 12.7381L6.78161 17.0711C6.85624 17.1374 6.94336 17.1882 7.03787 17.2205C7.13238 17.2527 7.23238 17.2657 7.33199 17.2588C7.43161 17.2519 7.52884 17.2251 7.61798 17.1801C7.70712 17.1351 7.78637 17.0728 7.85109 16.9967C7.91582 16.9207 7.9647 16.8325 7.99488 16.7373C8.02506 16.6421 8.03593 16.5419 8.02685 16.4424C8.01777 16.343 7.98893 16.2463 7.94201 16.1582C7.89509 16.07 7.83103 15.9922 7.75361 15.9291L2.66361 11.5961C2.32515 11.3081 2.05151 10.9517 1.86072 10.5504C1.66992 10.149 1.5663 9.71179 1.55666 9.2675C1.54703 8.8232 1.6316 8.38191 1.80481 7.97265C1.97802 7.5634 2.23595 7.19548 2.56161 6.89309L7.77961 2.05009C7.85178 1.98306 7.91003 1.90246 7.95105 1.81291C7.99206 1.72336 8.01504 1.6266 8.01866 1.52817C8.02228 1.42974 8.00648 1.33156 7.97215 1.23924C7.93783 1.14691 7.88566 1.06225 7.81861 0.990094H7.81761Z" fill="#6D6E73"/>
</g>
</svg>
