<svg width="20" height="18" viewBox="0 0 20 18" fill="none" xmlns="http://www.w3.org/2000/svg">
<g id="Group">
<path id="Vector" fill-rule="evenodd" clip-rule="evenodd" d="M12.25 1.47979V4.53679C12.25 4.64779 12.25 4.80679 12.27 4.94279C12.2879 5.08282 12.3372 5.217 12.4142 5.33528C12.4913 5.45356 12.5941 5.55287 12.715 5.62579C12.833 5.69238 12.9638 5.73322 13.0988 5.74563C13.2337 5.75804 13.3698 5.74173 13.498 5.69779C13.628 5.65779 13.77 5.58979 13.876 5.53879L15 5.00479L16.124 5.53879C16.23 5.58879 16.372 5.65779 16.502 5.69879C16.6302 5.74271 16.7664 5.75892 16.9013 5.74633C17.0363 5.73375 17.1671 5.69266 17.285 5.62579C17.4057 5.55276 17.5083 5.4534 17.5852 5.33512C17.6621 5.21685 17.7112 5.08273 17.729 4.94279C17.75 4.80679 17.75 4.64779 17.75 4.53679V0.0307878C17.863 0.0257878 17.974 0.0207878 18.082 0.0177878C19.154 -0.0202122 20 0.859788 20 1.93279V13.1428C20 14.2548 19.094 15.1528 17.985 15.2228C17.015 15.2828 15.877 15.4018 15 15.6328C13.918 15.9188 13.01 16.7008 11.627 17.0688C11.001 17.2358 10.303 17.3258 10 17.3918V2.17379C10.32 2.09479 11.382 1.97079 11.674 1.80279C11.858 1.69579 12.051 1.58679 12.25 1.47979ZM17.728 9.81779C17.752 9.91339 17.7568 10.0128 17.7424 10.1103C17.7279 10.2078 17.6943 10.3014 17.6436 10.386C17.5929 10.4705 17.526 10.5442 17.4468 10.6028C17.3676 10.6615 17.2776 10.7039 17.182 10.7278L13.182 11.7278C12.9889 11.7761 12.7846 11.7457 12.6139 11.6433C12.4433 11.5409 12.3203 11.3749 12.272 11.1818C12.2237 10.9887 12.2541 10.7844 12.3565 10.6137C12.4589 10.443 12.6249 10.3201 12.818 10.2718L16.818 9.27179C16.9136 9.24783 17.013 9.24296 17.1105 9.25743C17.208 9.27191 17.3017 9.30547 17.3862 9.35618C17.4707 9.40689 17.5444 9.47375 17.603 9.55296C17.6617 9.63217 17.7041 9.72216 17.728 9.81779Z" fill="#6D6E73"/>
<path id="Vector_2" d="M16.25 0.150414C15.63 0.223414 15.02 0.330414 14.5 0.486414C14.2458 0.564202 13.9955 0.654309 13.75 0.756414V3.93841L14.5 3.58241L14.508 3.57741C14.66 3.49724 14.8282 3.45278 15 3.44741C15.047 3.44741 15.094 3.45141 15.138 3.45741C15.313 3.48641 15.453 3.55741 15.492 3.57741L15.501 3.58241L16.25 3.93841V0.150414Z" fill="#6D6E73"/>
<path id="Vector_3" opacity="0.5" d="M10 2.21393C9.666 2.14993 8.943 2.05293 8.282 1.87493C6.938 1.51493 6.05 0.764932 5 0.486932C4.113 0.252932 2.959 0.134932 1.982 0.074932C0.886 0.006932 0 0.899932 0 1.99793V13.1439C0 14.2539 0.906 15.1539 2.015 15.2229C2.985 15.2829 4.123 15.4019 5 15.6329C5.486 15.7619 6.216 16.0639 6.873 16.3589C7.878 16.8099 8.925 17.1559 10 17.3929V2.21293V2.21393Z" fill="#6D6E73"/>
<path id="Vector_4" d="M2.27287 9.8182C2.29683 9.72266 2.33938 9.63278 2.39808 9.55368C2.45678 9.47459 2.53049 9.40783 2.61499 9.35722C2.69949 9.30661 2.79314 9.27314 2.89058 9.25873C2.98801 9.24431 3.08734 9.24923 3.18287 9.2732L7.18287 10.2732C7.37582 10.3216 7.54163 10.4447 7.64384 10.6153C7.74605 10.786 7.77628 10.9903 7.72787 11.1832C7.67947 11.3761 7.5564 11.542 7.38575 11.6442C7.21509 11.7464 7.01082 11.7766 6.81787 11.7282L2.81787 10.7282C2.72233 10.7042 2.63245 10.6617 2.55335 10.603C2.47426 10.5443 2.4075 10.4706 2.35689 10.3861C2.30628 10.3016 2.27282 10.2079 2.2584 10.1105C2.24398 10.0131 2.2489 9.91374 2.27287 9.8182ZM3.18187 5.2732C3.0858 5.24767 2.9856 5.2415 2.88711 5.25504C2.78863 5.26857 2.69382 5.30156 2.60819 5.35207C2.52257 5.40258 2.44784 5.46961 2.38835 5.54926C2.32887 5.62891 2.28581 5.71959 2.26168 5.81603C2.23755 5.91247 2.23284 6.01274 2.24782 6.11102C2.26279 6.2093 2.29715 6.30362 2.34891 6.3885C2.40066 6.47338 2.46877 6.54712 2.54928 6.60544C2.62979 6.66375 2.72109 6.70549 2.81787 6.7282L6.81787 7.7282C7.00968 7.77322 7.21149 7.74096 7.37971 7.6384C7.54792 7.53583 7.66902 7.37119 7.71684 7.18007C7.76465 6.98894 7.73534 6.78667 7.63524 6.61698C7.53514 6.44729 7.37228 6.3238 7.18187 6.2732L3.18187 5.2732Z" fill="#6D6E73"/>
</g>
</svg>
