<svg width="28" height="28" viewBox="0 0 28 28" fill="none" xmlns="http://www.w3.org/2000/svg">
<g id="Group">
<path id="Vector" d="M7.61934 6.45936L5.29938 4.13941C4.97897 3.81899 4.45982 3.81899 4.13941 4.13941C3.81899 4.45982 3.81899 4.97897 4.13941 5.29938L6.45936 7.61934C6.77977 7.93975 7.29892 7.93975 7.61934 7.61934C7.93975 7.29892 7.93975 6.77977 7.61934 6.45936ZM4.15625 13.1797H0.820312C0.366898 13.1797 0 13.5466 0 14C0 14.4534 0.366898 14.8203 0.820312 14.8203H4.15625C4.60966 14.8203 4.97656 14.4534 4.97656 14C4.97656 13.5466 4.60966 13.1797 4.15625 13.1797ZM27.1797 13.1797H23.8438C23.3903 13.1797 23.0234 13.5466 23.0234 14C23.0234 14.4534 23.3903 14.8203 23.8438 14.8203H27.1797C27.6331 14.8203 28 14.4534 28 14C28 13.5466 27.6331 13.1797 27.1797 13.1797ZM23.8606 4.13941C23.5402 3.81899 23.021 3.81899 22.7006 4.13941L20.3807 6.45936C20.0602 6.77977 20.0602 7.29892 20.3807 7.61934C20.7011 7.93975 21.2202 7.93975 21.5406 7.61934L23.8606 5.29938C24.181 4.97897 24.181 4.45988 23.8606 4.13941ZM14 0C13.5466 0 13.1797 0.366898 13.1797 0.820312V4.15625C13.1797 4.60966 13.5466 4.97656 14 4.97656C14.4534 4.97656 14.8203 4.60966 14.8203 4.15625V0.820312C14.8203 0.366898 14.4534 0 14 0ZM18.5938 8.20854C16.8055 6.7976 14.4922 6.28906 12.2281 6.83047C9.60313 7.4375 7.48677 9.52104 6.84687 12.1297C6.20703 14.7546 6.94531 17.4124 8.83198 19.2664C9.50469 19.9391 9.89844 20.9945 9.89844 22.0773V22.2578C9.89844 22.7171 10.2593 23.0781 10.7188 23.0781H17.2812C17.7407 23.0781 18.1016 22.7171 18.1016 22.2578V22.0773C18.1016 21.0109 18.5117 19.9226 19.2336 19.2171C20.6118 17.8226 21.3828 15.9688 21.3828 14C21.3828 11.7359 20.3656 9.61948 18.5938 8.20854ZM14 11.5391C12.7624 11.5391 11.8615 12.36 11.6256 13.3103C11.5182 13.7425 11.0834 14.0183 10.6314 13.9095C10.1924 13.8006 9.92403 13.3551 10.033 12.9161C10.4395 11.2755 11.9804 9.89844 14 9.89844C14.4534 9.89844 14.8203 10.2653 14.8203 10.7188C14.8203 11.1722 14.4534 11.5391 14 11.5391ZM10.7188 24.7188V25.5391C10.7188 26.8961 11.8227 28 13.1797 28H14.8203C16.1773 28 17.2812 26.8961 17.2812 25.5391V24.7188H10.7188Z" fill="#A2C1DF"/>
</g>
</svg>
