<svg width="24" height="26" viewBox="0 0 24 26" fill="none" xmlns="http://www.w3.org/2000/svg">
<g id="Group">
<path id="Vector" d="M5.87767 3.81374V0.751243C5.66242 0.770493 5.2888 0.689993 5.12955 0.878118C3.92161 2.13506 1.80936 4.10381 0.66311 5.39749C0.594423 5.51343 0.642548 5.87437 0.62811 6.00124H3.69061C4.89811 6.00124 5.87767 5.02124 5.87767 3.81374ZM19.0005 15.6472C16.2416 15.369 13.7286 17.6186 13.7514 20.4379C14.0191 26.8341 23.12 26.8087 23.375 20.4379C23.375 17.931 21.4501 15.866 19.0005 15.6472ZM20.1861 19.8735L18.4361 21.6235C18.2694 21.7897 17.9798 21.7897 17.8149 21.6235L16.9403 20.7485C16.7697 20.5779 16.7697 20.2979 16.9403 20.1272C17.1109 19.9566 17.3909 19.9566 17.5616 20.1272L18.1259 20.696L19.5653 19.2522C19.9722 18.8497 20.5899 19.464 20.1866 19.8735H20.1861ZM7.04536 13.9239H12.5837C12.9555 13.9239 13.288 13.7358 13.4762 13.4164C13.9649 12.5559 13.0868 11.7089 12.4918 11.1589C10.9737 9.86131 8.63742 9.86831 7.13724 11.1589C6.53786 11.7097 5.66417 12.5572 6.15286 13.4164C6.34099 13.7358 6.67349 13.9239 7.04536 13.9239Z" fill="#A2C1DF"/>
<path id="Vector_2" d="M12.8763 20.4372C12.85 17.1865 15.7638 14.4762 19.0008 14.772V2.93848C19.0008 1.73098 18.0208 0.750977 16.8133 0.750977H6.75259V3.81348C6.75259 5.50223 5.37884 6.87598 3.69009 6.87598H0.628906V23.0622C0.628906 24.2697 1.60891 25.2497 2.81597 25.2497H15.5411C13.8852 24.2259 12.8763 22.3744 12.8767 20.4372H12.8763ZM5.36134 11.9685C5.93884 10.8774 6.96434 10.0063 8.13072 9.6016C6.08453 8.04498 7.21284 4.67885 9.81466 4.68848C12.4165 4.6806 13.5448 8.04279 11.4986 9.6016C13.088 10.176 15.2405 12.0481 14.2286 13.8672C14.0594 14.1524 13.8185 14.3884 13.53 14.5519C13.2415 14.7153 12.9152 14.8006 12.5836 14.7991H7.04528C5.63391 14.8429 4.65216 13.1891 5.36134 11.9685ZM11.3498 19.1728H5.56697C4.99384 19.1623 4.99078 18.3087 5.56697 18.2978H11.3498C11.923 18.3083 11.926 19.1614 11.3498 19.1728ZM12.4042 16.9853H5.56697C4.99428 16.9748 4.99034 16.1217 5.56697 16.1103H12.4042C12.9765 16.1208 12.9804 16.9744 12.4042 16.9853Z" fill="#A2C1DF"/>
<path id="Vector_3" d="M9.8147 9.30848C12.2888 9.22973 12.2883 5.64223 9.8147 5.56348C7.3402 5.64223 7.34063 9.23016 9.8147 9.30848Z" fill="#A2C1DF"/>
</g>
</svg>
