<svg width="20" height="20" viewBox="0 0 20 20" fill="none" xmlns="http://www.w3.org/2000/svg">
<g id="Group">
<path id="Vector" opacity="0.5" d="M20 10C20 15.523 15.523 20 10 20C4.477 20 0 15.523 0 10C0 4.477 4.477 0 10 0C15.523 0 20 4.477 20 10Z" fill="#6D6E73"/>
<path id="Vector_2" d="M6.076 6.617C6 6.801 6 7.034 6 7.5V12.5C6 12.966 6 13.199 6.076 13.383C6.17771 13.6275 6.37227 13.8217 6.617 13.923C6.801 14 7.034 14 7.5 14C7.966 14 8.199 14 8.383 13.924C8.62754 13.8223 8.82174 13.6277 8.923 13.383C9 13.199 9 12.966 9 12.5V7.5C9 7.034 9 6.801 8.924 6.617C8.82229 6.37246 8.62773 6.17826 8.383 6.077C8.199 6 7.966 6 7.5 6C7.034 6 6.801 6 6.617 6.076C6.37246 6.17771 6.17726 6.37227 6.076 6.617ZM11.076 6.617C11 6.801 11 7.034 11 7.5V12.5C11 12.966 11 13.199 11.076 13.383C11.1777 13.6275 11.3723 13.8217 11.617 13.923C11.801 14 12.034 14 12.5 14C12.966 14 13.199 14 13.383 13.924C13.6275 13.8223 13.8217 13.6277 13.923 13.383C14 13.199 14 12.966 14 12.5V7.5C14 7.034 14 6.801 13.924 6.617C13.8223 6.37246 13.6277 6.17826 13.383 6.077C13.199 6 12.966 6 12.5 6C12.034 6 11.801 6 11.617 6.076C11.3725 6.17771 11.1773 6.37227 11.076 6.617Z" fill="#6D6E73"/>
</g>
</svg>
