<svg width="26" height="26" viewBox="0 0 26 26" fill="none" xmlns="http://www.w3.org/2000/svg">
<g id="Group">
<path id="Vector" d="M14.6564 21.4664H0.75V22.0942C0.750578 22.9214 1.07915 23.7146 1.66366 24.2998C2.24817 24.8851 3.04092 25.2146 3.86806 25.2162H15.1726C14.8381 24.8106 14.6555 24.3009 14.6564 23.7751V21.4664ZM24.655 3.83475H23.1023V20.1526C23.108 20.4337 23.2236 20.7013 23.4244 20.8981C23.6251 21.0948 23.8951 21.205 24.1762 21.205C24.4573 21.205 24.7272 21.0948 24.9279 20.8981C25.1287 20.7013 25.2443 20.4337 25.25 20.1526V4.42887C25.25 4.27107 25.1873 4.11973 25.0757 4.00815C24.9641 3.89656 24.8128 3.83388 24.655 3.83388V3.83475ZM22.2763 2.3315C22.2667 1.9277 22.0995 1.54366 21.8106 1.26146C21.5216 0.979267 21.1337 0.821289 20.7297 0.821289C20.3258 0.821289 19.9379 0.979267 19.6489 1.26146C19.36 1.54366 19.1928 1.9277 19.1832 2.3315V21.2271H22.611C22.3925 20.9116 22.2757 20.5368 22.2763 20.1531V2.3315Z" fill="#A2C1DF"/>
<path id="Vector_2" d="M3.79785 3.75645V20.6405H15.0692C15.1786 20.6408 15.2834 20.6844 15.3608 20.7618C15.4382 20.8392 15.4818 20.944 15.4822 21.0535V23.7747C15.4822 24.1559 15.6336 24.5214 15.9031 24.7909C16.1726 25.0605 16.5382 25.2119 16.9194 25.2119C17.3005 25.2119 17.6661 25.0605 17.9356 24.7909C18.2051 24.5214 18.3565 24.1559 18.3565 23.7747V2.33195C18.3549 1.7619 18.5621 1.21098 18.9389 0.783203H6.77154C5.98315 0.784129 5.22732 1.09773 4.66985 1.6552C4.11237 2.21267 3.79878 2.96807 3.79785 3.75645ZM7.82066 16.944C7.83187 17.0046 7.8296 17.0669 7.81402 17.1266C7.79844 17.1862 7.76993 17.2416 7.73052 17.289C7.6911 17.3364 7.64175 17.3745 7.58595 17.4007C7.53016 17.4268 7.46929 17.4404 7.40766 17.4404C7.34604 17.4404 7.28517 17.4268 7.22937 17.4007C7.17358 17.3745 7.12422 17.3364 7.08481 17.289C7.04539 17.2416 7.01689 17.1862 7.00131 17.1266C6.98573 17.0669 6.98346 17.0046 6.99466 16.944C6.67316 16.8569 6.38655 16.6723 6.17423 16.4157C5.96192 16.159 5.83434 15.8429 5.80904 15.5108C5.80361 15.403 5.84065 15.2974 5.91221 15.2167C5.98377 15.1359 6.08414 15.0865 6.19176 15.0789C6.29939 15.0714 6.40568 15.1063 6.48783 15.1762C6.56997 15.2462 6.62141 15.3456 6.6311 15.453C6.64276 15.604 6.6982 15.7484 6.79064 15.8684C6.88308 15.9883 7.0085 16.0788 7.15154 16.1285C7.29459 16.1783 7.44905 16.1853 7.59601 16.1487C7.74297 16.112 7.87605 16.0333 7.97896 15.9222C8.08186 15.811 8.15013 15.6723 8.17539 15.523C8.20065 15.3736 8.18181 15.2201 8.12118 15.0813C8.06055 14.9425 7.96076 14.8244 7.83403 14.7415C7.7073 14.6585 7.55913 14.6144 7.40766 14.6143C7.0212 14.61 6.64929 14.4663 6.36022 14.2098C6.07116 13.9533 5.88437 13.601 5.83414 13.2178C5.78392 12.8346 5.87365 12.4462 6.08684 12.1238C6.30003 11.8014 6.62238 11.5668 6.99466 11.463C6.98201 11.4019 6.98309 11.3388 6.99781 11.2782C7.01253 11.2175 7.04053 11.1609 7.07979 11.1124C7.11906 11.064 7.16859 11.0248 7.22483 10.9978C7.28107 10.9708 7.3426 10.9566 7.40499 10.9563C7.46738 10.9559 7.52906 10.9695 7.58558 10.9959C7.6421 11.0223 7.69205 11.0609 7.73183 11.109C7.7716 11.1571 7.8002 11.2134 7.81556 11.2738C7.83092 11.3343 7.83267 11.3974 7.82066 11.4586C8.1345 11.5406 8.41598 11.716 8.62775 11.9617C8.83951 12.2074 8.97154 12.5117 9.00629 12.8341C9.01836 12.9432 8.9866 13.0526 8.91801 13.1383C8.84942 13.2239 8.74961 13.2788 8.64054 13.2909C8.53147 13.303 8.42207 13.2712 8.33641 13.2026C8.25076 13.134 8.19586 13.0342 8.18379 12.9251C8.16749 12.7757 8.10828 12.6342 8.0133 12.5176C7.91833 12.4011 7.79165 12.3145 7.64857 12.2684C7.50548 12.2223 7.3521 12.2185 7.20694 12.2577C7.06179 12.2968 6.93106 12.3771 6.83054 12.4889C6.73003 12.6007 6.66402 12.7392 6.64048 12.8877C6.61695 13.0362 6.6369 13.1883 6.69792 13.3257C6.75894 13.4631 6.85843 13.5799 6.98437 13.662C7.11031 13.7441 7.25733 13.7879 7.40766 13.7883C7.79553 13.7913 8.16924 13.9344 8.4598 14.1914C8.75035 14.4483 8.93814 14.8017 8.98847 15.1863C9.0388 15.5709 8.94829 15.9607 8.73365 16.2838C8.519 16.6069 8.19471 16.8414 7.82066 16.944ZM16.2749 11.7815L15.8952 12.3551C16.4054 12.8064 16.7412 13.4223 16.8441 14.0956C16.947 14.7689 16.8106 15.457 16.4586 16.0401C16.1066 16.6232 15.5612 17.0645 14.9174 17.287C14.2737 17.5095 13.5722 17.4992 12.9353 17.258C12.2983 17.0167 11.7661 16.5597 11.4313 15.9665C11.0964 15.3733 10.9802 14.6815 11.1028 14.0115C11.2255 13.3415 11.5791 12.7357 12.1023 12.2995C12.6255 11.8634 13.2851 11.6245 13.9662 11.6245C14.0216 11.6227 14.0767 11.632 14.1284 11.6519C14.18 11.6719 14.2271 11.702 14.2669 11.7405C14.3067 11.779 14.3383 11.8251 14.3599 11.8761C14.3815 11.9271 14.3927 11.9819 14.3927 12.0372C14.3927 12.0926 14.3815 12.1474 14.3599 12.1984C14.3383 12.2494 14.3067 12.2955 14.2669 12.334C14.2271 12.3725 14.18 12.4026 14.1284 12.4225C14.0767 12.4425 14.0216 12.4518 13.9662 12.45C13.5715 12.4501 13.1848 12.5622 12.8512 12.7733C12.5176 12.9844 12.2508 13.2858 12.0818 13.6426C11.9128 13.9993 11.8484 14.3967 11.8963 14.7885C11.9442 15.1804 12.1023 15.5506 12.3523 15.8562C12.6023 16.1617 12.9338 16.39 13.3084 16.5146C13.683 16.6392 14.0853 16.6548 14.4684 16.5598C14.8516 16.4648 15.1999 16.263 15.4729 15.9779C15.7459 15.6927 15.9324 15.3359 16.0107 14.949H13.9662C13.8921 14.9478 13.8197 14.9269 13.7564 14.8885C13.693 14.8501 13.641 14.7955 13.6057 14.7304C13.5704 14.6652 13.5531 14.5919 13.5555 14.5178C13.5578 14.4438 13.5799 14.3717 13.6193 14.309L15.5854 11.327C15.6472 11.2391 15.7407 11.1788 15.8462 11.1588C15.9516 11.1388 16.0607 11.1606 16.1504 11.2196C16.24 11.2787 16.3032 11.3703 16.3264 11.4751C16.3497 11.5799 16.3312 11.6901 16.2749 11.7815ZM7.05241 6.5442V8.4727H8.27085V4.57414C8.27085 4.46461 8.31436 4.35956 8.39182 4.28211C8.46927 4.20465 8.57432 4.16114 8.68385 4.16114C8.79339 4.16114 8.89843 4.20465 8.97589 4.28211C9.05334 4.35956 9.09685 4.46461 9.09685 4.57414V8.4727H10.3192V7.6677C10.3192 7.55817 10.3627 7.45312 10.4402 7.37567C10.5176 7.29822 10.6227 7.2547 10.7322 7.2547C10.8418 7.2547 10.9468 7.29822 11.0243 7.37567C11.1017 7.45312 11.1452 7.55817 11.1452 7.6677V8.4727H12.368V6.36702C12.368 6.25748 12.4116 6.15243 12.489 6.07498C12.5665 5.99753 12.6715 5.95402 12.781 5.95402C12.8906 5.95402 12.9956 5.99753 13.0731 6.07498C13.1505 6.15243 13.194 6.25748 13.194 6.36702V8.47314H14.4125V4.04564C14.4125 3.93611 14.456 3.83106 14.5334 3.75361C14.6109 3.67615 14.7159 3.63264 14.8255 3.63264C14.935 3.63264 15.0401 3.67615 15.1175 3.75361C15.195 3.83106 15.2385 3.93611 15.2385 4.04564V8.47314H15.7753C15.8848 8.47314 15.9899 8.51665 16.0673 8.59411C16.1448 8.67156 16.1883 8.77661 16.1883 8.88614C16.1883 8.99568 16.1448 9.10072 16.0673 9.17818C15.9899 9.25563 15.8848 9.29914 15.7753 9.29914H5.68916C5.57963 9.29914 5.47458 9.25563 5.39713 9.17818C5.31968 9.10072 5.27616 8.99568 5.27616 8.88614C5.27616 8.77661 5.31968 8.67156 5.39713 8.59411C5.47458 8.51665 5.57963 8.47314 5.68916 8.47314H6.22598V6.54464C6.22598 6.43511 6.26949 6.33006 6.34694 6.25261C6.42439 6.17515 6.52944 6.13164 6.63898 6.13164C6.74851 6.13164 6.85356 6.17515 6.93101 6.25261C7.00846 6.33006 7.05198 6.43511 7.05198 6.54464L7.05241 6.5442Z" fill="#A2C1DF"/>
<path id="Vector_3" d="M14.7344 14.1234H16.0066C15.9296 13.7174 15.729 13.3451 15.4322 13.0576L14.7344 14.1234Z" fill="#A2C1DF"/>
</g>
</svg>
