<svg width="20" height="20" viewBox="0 0 20 20" fill="none" xmlns="http://www.w3.org/2000/svg">
<g id="Group">
<path id="Vector" opacity="0.5" d="M20 10C20 15.523 15.523 20 10 20C4.477 20 0 15.523 0 10C0 4.477 4.477 0 10 0C15.523 0 20 4.477 20 10Z" fill="#6D6E73"/>
<path id="Vector_2" d="M10 5.74992C9.379 5.74992 8.875 6.25392 8.875 6.87492C8.875 7.07383 8.79598 7.26459 8.65533 7.40525C8.51468 7.5459 8.32391 7.62492 8.125 7.62492C7.92609 7.62492 7.73532 7.5459 7.59467 7.40525C7.45402 7.26459 7.375 7.07383 7.375 6.87492C7.37501 6.44485 7.48069 6.02138 7.68274 5.64174C7.88479 5.26209 8.17702 4.93791 8.53374 4.69768C8.89046 4.45746 9.30073 4.30856 9.72849 4.26408C10.1562 4.2196 10.5884 4.28089 10.9869 4.44258C11.3854 4.60426 11.7381 4.86139 12.0139 5.19133C12.2898 5.52128 12.4803 5.91395 12.5688 6.33481C12.6573 6.75567 12.6411 7.19182 12.5215 7.60492C12.4019 8.01803 12.1826 8.39542 11.883 8.70392C11.791 8.79892 11.703 8.88692 11.619 8.97092C11.4159 9.16436 11.2252 9.37044 11.048 9.58792C10.828 9.86992 10.75 10.0769 10.75 10.2499V10.9999C10.75 11.1988 10.671 11.3896 10.5303 11.5302C10.3897 11.6709 10.1989 11.7499 10 11.7499C9.80109 11.7499 9.61032 11.6709 9.46967 11.5302C9.32902 11.3896 9.25 11.1988 9.25 10.9999V10.2499C9.25 9.59492 9.555 9.06392 9.864 8.66692C10.093 8.37292 10.38 8.08692 10.614 7.85292C10.684 7.78292 10.75 7.71792 10.807 7.65892C10.9611 7.50032 11.0651 7.29981 11.1059 7.08247C11.1467 6.86512 11.1225 6.64057 11.0364 6.43687C10.9503 6.23318 10.8061 6.05939 10.6217 5.93721C10.4374 5.81503 10.2211 5.74988 10 5.74992ZM10 14.9999C10.2652 14.9999 10.5196 14.8946 10.7071 14.707C10.8946 14.5195 11 14.2651 11 13.9999C11 13.7347 10.8946 13.4803 10.7071 13.2928C10.5196 13.1053 10.2652 12.9999 10 12.9999C9.73478 12.9999 9.48043 13.1053 9.29289 13.2928C9.10536 13.4803 9 13.7347 9 13.9999C9 14.2651 9.10536 14.5195 9.29289 14.707C9.48043 14.8946 9.73478 14.9999 10 14.9999Z" fill="#6D6E73"/>
</g>
</svg>
