<svg width="20" height="20" viewBox="0 0 20 20" fill="none" xmlns="http://www.w3.org/2000/svg">
<g id="Group">
<path id="Vector" opacity="0.5" d="M10 20C15.5228 20 20 15.5228 20 10C20 4.47715 15.5228 0 10 0C4.47715 0 0 4.47715 0 10C0 15.5228 4.47715 20 10 20Z" fill="#6D6E73"/>
<path id="Vector_2" d="M5.37785 10.556L4.81585 11.053C4.8828 11.1285 4.96431 11.1897 5.05549 11.233C5.14667 11.2763 5.24564 11.3007 5.34648 11.3048C5.44732 11.3089 5.54796 11.2926 5.64235 11.2569C5.73675 11.2212 5.82297 11.1668 5.89585 11.097L5.37785 10.556ZM7.51885 9.54101C7.6558 9.40191 7.73312 9.21489 7.73439 9.01969C7.73565 8.82448 7.66076 8.63648 7.52562 8.49561C7.39049 8.35475 7.20575 8.27212 7.01066 8.26528C6.81558 8.25845 6.62551 8.32795 6.48085 8.45901L7.51885 9.54101ZM4.56085 8.50301C4.49682 8.42512 4.41775 8.36093 4.32836 8.31429C4.23897 8.26766 4.14109 8.23952 4.04057 8.23157C3.94006 8.22362 3.83898 8.23602 3.74336 8.26803C3.64775 8.30004 3.55958 8.35099 3.4841 8.41785C3.40863 8.48472 3.34742 8.56611 3.30412 8.65716C3.26082 8.74822 3.23633 8.84707 3.2321 8.94781C3.22788 9.04855 3.24401 9.14911 3.27953 9.24347C3.31505 9.33783 3.36924 9.42406 3.43885 9.49701L4.56085 8.50301ZM12.9308 7.00901C12.9977 7.08137 13.0781 7.13985 13.1676 7.18112C13.257 7.22239 13.3537 7.24564 13.4521 7.24954C13.5506 7.25344 13.6488 7.23792 13.7412 7.20385C13.8337 7.16979 13.9185 7.11785 13.9908 7.05101C14.0632 6.98417 14.1217 6.90373 14.163 6.81428C14.2042 6.72484 14.2275 6.62814 14.2314 6.52971C14.2353 6.43128 14.2198 6.33304 14.1857 6.24061C14.1516 6.14818 14.0997 6.06337 14.0328 5.99101L12.9318 7.00901H12.9308ZM10.0448 4.25001C7.05885 4.25001 4.62885 6.65301 4.62885 9.63001H6.12885C6.12885 7.49301 7.87585 5.75001 10.0448 5.75001V4.25001ZM4.62885 9.63001V10.556H6.12885V9.63001H4.62885ZM5.89785 11.097L7.51985 9.54101L6.48185 8.45901L4.85985 10.014L5.89785 11.097ZM5.93985 10.058L4.56085 8.50301L3.43885 9.49701L4.81585 11.053L5.93985 10.058ZM14.0328 5.99101C13.5242 5.44078 12.9081 5.00198 12.2213 4.70232C11.5346 4.40265 10.7931 4.24864 10.0438 4.25001V5.75001C10.5864 5.74868 11.1233 5.85998 11.6206 6.07686C12.1178 6.29375 12.5647 6.6115 12.9328 7.01001L14.0328 5.99001V5.99101ZM14.6188 9.44401L15.1788 8.94601C15.1118 8.87056 15.0303 8.80942 14.939 8.76624C14.8478 8.72307 14.7488 8.69874 14.648 8.69473C14.5472 8.69071 14.4465 8.70709 14.3522 8.74288C14.2578 8.77867 14.1717 8.83313 14.0988 8.90301L14.6188 9.44401ZM12.4798 10.458C12.3364 10.5959 12.2535 10.7852 12.2496 10.9842C12.2457 11.1831 12.3209 11.3755 12.4588 11.519C12.5968 11.6625 12.786 11.7453 12.985 11.7492C13.184 11.7532 13.3764 11.6779 13.5198 11.54L12.4798 10.458ZM15.4398 11.498C15.5736 11.6405 15.7578 11.7251 15.953 11.7339C16.1483 11.7426 16.3393 11.6748 16.4853 11.5448C16.6313 11.4148 16.7207 11.233 16.7347 11.0381C16.7486 10.8431 16.6859 10.6504 16.5598 10.501L15.4398 11.497V11.498ZM7.04685 13.005C6.90998 12.8633 6.72286 12.7812 6.52593 12.7763C6.32899 12.7714 6.13804 12.8442 5.99435 12.979C5.85065 13.1138 5.76575 13.2997 5.75799 13.4965C5.75022 13.6933 5.82022 13.8853 5.95285 14.031L7.04685 13.005ZM9.93485 15.75C12.9278 15.75 15.3688 13.35 15.3688 10.37H13.8688C13.8688 12.505 12.1158 14.25 9.93485 14.25V15.75ZM15.3688 10.37V9.44401H13.8688V10.37H15.3688ZM14.0988 8.90301L12.4798 10.458L13.5198 11.54L15.1378 9.98501L14.0988 8.90301ZM14.0588 9.94301L15.4388 11.497L16.5608 10.501L15.1788 8.94601L14.0588 9.94301ZM5.95185 14.03C6.46247 14.574 7.0794 15.0072 7.76437 15.3029C8.44935 15.5986 9.18777 15.7505 9.93385 15.749V14.249C8.79085 14.249 7.76385 13.769 7.04585 13.004L5.95285 14.031L5.95185 14.03Z" fill="#6D6E73"/>
</g>
</svg>
