<svg width="22" height="20" viewBox="0 0 22 20" fill="none" xmlns="http://www.w3.org/2000/svg">
<g id="Group">
<path id="Vector" d="M11.0794 0.250011C6.28535 0.250011 2.34535 3.91301 1.96135 8.58301H1.00035C0.851665 8.58294 0.706311 8.62707 0.582756 8.70979C0.459201 8.79251 0.363022 8.91008 0.306436 9.04758C0.24985 9.18508 0.235411 9.3363 0.264953 9.48203C0.294495 9.62775 0.366686 9.7614 0.472354 9.86601L2.15235 11.532C2.29281 11.6712 2.48258 11.7494 2.68035 11.7494C2.87813 11.7494 3.0679 11.6712 3.20835 11.532L4.88835 9.86601C4.99402 9.7614 5.06621 9.62775 5.09575 9.48203C5.1253 9.3363 5.11086 9.18508 5.05427 9.04758C4.99769 8.91008 4.90151 8.79251 4.77795 8.70979C4.6544 8.62707 4.50904 8.58294 4.36035 8.58301H3.46735C3.84735 4.75201 7.10535 1.75001 11.0794 1.75001C12.3896 1.74729 13.6786 2.0808 14.8232 2.71863C15.9677 3.35646 16.9294 4.27728 17.6164 5.39301C17.6666 5.47958 17.7337 5.55521 17.8137 5.61544C17.8936 5.67567 17.9849 5.71928 18.0819 5.7437C18.179 5.76812 18.28 5.77287 18.379 5.75764C18.4779 5.74242 18.5728 5.70755 18.658 5.65507C18.7433 5.6026 18.8172 5.53359 18.8753 5.45211C18.9335 5.37063 18.9748 5.27834 18.9967 5.18066C19.0186 5.08298 19.0208 4.98191 19.003 4.88339C18.9853 4.78486 18.948 4.69089 18.8934 4.60701C18.0723 3.27329 16.9229 2.17243 15.555 1.40962C14.1872 0.646819 12.6455 0.247563 11.0794 0.250011Z" fill="#6D6E73"/>
<path id="Vector_2" opacity="0.5" d="M19.8417 8.46734C19.7013 8.32871 19.512 8.25098 19.3147 8.25098C19.1174 8.25098 18.928 8.32871 18.7877 8.46734L17.1007 10.1333C16.9947 10.2378 16.9222 10.3715 16.8925 10.5173C16.8627 10.6631 16.877 10.8144 16.9335 10.9521C16.99 11.0898 17.0862 11.2075 17.2098 11.2904C17.3334 11.3732 17.4789 11.4174 17.6277 11.4173H18.5267C18.1457 15.2473 14.8757 18.2503 10.8827 18.2503C9.5683 18.254 8.27489 17.921 7.12569 17.2832C5.97648 16.6453 5.00977 15.7237 4.31767 14.6063C4.26695 14.5205 4.19961 14.4456 4.11959 14.386C4.03957 14.3265 3.94848 14.2835 3.85165 14.2596C3.75482 14.2357 3.65419 14.2313 3.55566 14.2468C3.45712 14.2622 3.36266 14.2972 3.2778 14.3496C3.19294 14.402 3.11938 14.4708 3.06143 14.552C3.00349 14.6332 2.96232 14.7251 2.94033 14.8224C2.91834 14.9197 2.91598 15.0204 2.93338 15.1186C2.95078 15.2168 2.98759 15.3105 3.04167 15.3943C3.86803 16.7292 5.02235 17.8303 6.39469 18.5928C7.76704 19.3553 9.31173 19.7538 10.8817 19.7503C15.6907 19.7503 19.6477 16.0903 20.0327 11.4173H21.0007C21.1495 11.4174 21.2949 11.3732 21.4186 11.2904C21.5422 11.2075 21.6384 11.0898 21.6949 10.9521C21.7514 10.8144 21.7656 10.6631 21.7359 10.5173C21.7061 10.3715 21.6336 10.2378 21.5277 10.1333L19.8417 8.46734Z" fill="#6D6E73"/>
</g>
</svg>
