<svg width="22" height="28" viewBox="0 0 22 28" fill="none" xmlns="http://www.w3.org/2000/svg">
<g id="Group">
<path id="Vector" d="M6.61426 23.0781C7.36933 23.0781 7.98145 22.466 7.98145 21.7109C7.98145 20.9559 7.36933 20.3438 6.61426 20.3438C5.85918 20.3438 5.24707 20.9559 5.24707 21.7109C5.24707 22.466 5.85918 23.0781 6.61426 23.0781Z" fill="#A2C1DF"/>
<path id="Vector_2" d="M20.796 2.52279C20.2277 1.95393 19.472 1.64062 18.668 1.64062H18.1235V2.73438C18.1235 3.94056 17.1422 4.92188 15.936 4.92188H6.09227C4.88608 4.92188 3.90477 3.94056 3.90477 2.73438V1.64062H3.35549C1.69884 1.64062 0.349533 2.98845 0.347674 4.6451L0.325197 24.9889C0.324322 25.7929 0.636752 26.549 1.20496 27.1178C1.77316 27.6867 2.52894 28 3.33296 28H18.6455C20.3022 28 21.6515 26.6522 21.6533 24.9955L21.6758 4.65177C21.6767 3.8477 21.3642 3.09159 20.796 2.52279ZM3.60639 21.7109C3.60639 20.0524 4.9557 18.7031 6.61421 18.7031C8.27271 18.7031 9.62202 20.0524 9.62202 21.7109C9.62202 23.3694 8.27271 24.7188 6.61421 24.7188C4.9557 24.7188 3.60639 23.3694 3.60639 21.7109ZM13.1272 8.26738C12.8068 7.94708 12.8068 7.42766 13.1272 7.1073C13.4475 6.78699 13.9669 6.78699 14.2872 7.1073L15.6407 8.46076L16.9942 7.1073C17.3145 6.78699 17.8339 6.78699 18.1543 7.1073C18.4746 7.4276 18.4746 7.94702 18.1543 8.26738L16.8008 9.62084L18.1543 10.9743C18.4746 11.2946 18.4746 11.814 18.1543 12.1344C17.9941 12.2946 17.7841 12.3747 17.5742 12.3747C17.3643 12.3747 17.1543 12.2946 16.9942 12.1344L15.6408 10.7809L14.2873 12.1344C14.1271 12.2946 13.9172 12.3747 13.7073 12.3747C13.4974 12.3747 13.2874 12.2946 13.1273 12.1344C12.8069 11.8141 12.8069 11.2947 13.1273 10.9743L14.4807 9.62084L13.1272 8.26738ZM5.80313 7.36537C6.12344 7.04506 6.64286 7.04506 6.96322 7.36537L8.90359 9.30573C9.22395 9.62604 9.22395 10.1455 8.90359 10.4658C8.74341 10.626 8.53346 10.7061 8.32357 10.7061C8.11368 10.7061 7.90368 10.626 7.74356 10.4658L7.20795 9.93021V12.7634C7.20795 13.7786 7.84566 14.7031 8.79476 15.0638L13.5626 16.8756C15.1445 17.4766 16.2072 19.0175 16.2072 20.7096V23.8984C16.2072 24.3515 15.8399 24.7188 15.3869 24.7188C14.9339 24.7188 14.5666 24.3515 14.5666 23.8984V20.7096C14.5666 19.6943 13.9289 18.7698 12.9798 18.4092L8.21195 16.5974C6.63012 15.9963 5.56732 14.4555 5.56732 12.7634V9.92135L5.03171 10.457C4.71141 10.7773 4.19199 10.7773 3.87163 10.457C3.55127 10.1367 3.55127 9.61723 3.87163 9.29688L5.80313 7.36537Z" fill="#A2C1DF"/>
<path id="Vector_3" d="M5.54492 2.73438C5.54492 3.03641 5.78976 3.28125 6.0918 3.28125H15.9355C16.2376 3.28125 16.4824 3.03641 16.4824 2.73438V0.546875C16.4824 0.244836 16.2376 0 15.9355 0H6.0918C5.78976 0 5.54492 0.244836 5.54492 0.546875V2.73438Z" fill="#A2C1DF"/>
</g>
</svg>
