<svg width="20" height="20" viewBox="0 0 20 20" fill="none" xmlns="http://www.w3.org/2000/svg">
<g id="Group">
<path id="Vector" opacity="0.5" d="M10 20C15.523 20 20 15.523 20 10C20 4.477 15.523 0 10 0C4.477 0 0 4.477 0 10C0 15.523 4.477 20 10 20Z" fill="#6D6E73"/>
<path id="Vector_2" d="M9.03015 6.47015C8.96149 6.39647 8.87869 6.33736 8.78669 6.29637C8.69469 6.25538 8.59538 6.23334 8.49468 6.23156C8.39397 6.22979 8.29394 6.24831 8.20056 6.28603C8.10717 6.32375 8.02233 6.3799 7.95112 6.45112C7.8799 6.52233 7.82375 6.60717 7.78603 6.70056C7.74831 6.79394 7.72979 6.89397 7.73156 6.99468C7.73334 7.09538 7.75538 7.19469 7.79637 7.28669C7.83736 7.37869 7.89647 7.46149 7.97015 7.53015L10.4402 10.0002L7.97015 12.4702C7.89647 12.5388 7.83736 12.6216 7.79637 12.7136C7.75538 12.8056 7.73334 12.9049 7.73156 13.0056C7.72979 13.1063 7.74831 13.2064 7.78603 13.2998C7.82375 13.3931 7.8799 13.478 7.95112 13.5492C8.02233 13.6204 8.10717 13.6766 8.20056 13.7143C8.29394 13.752 8.39397 13.7705 8.49468 13.7687C8.59538 13.767 8.69469 13.7449 8.78669 13.7039C8.87869 13.6629 8.96149 13.6038 9.03015 13.5302L12.0302 10.5302C12.1706 10.3895 12.2495 10.1989 12.2495 10.0002C12.2495 9.8014 12.1706 9.61078 12.0302 9.47015L9.03015 6.47015Z" fill="#6D6E73"/>
</g>
</svg>
