<svg width="28" height="28" viewBox="0 0 28 28" fill="none" xmlns="http://www.w3.org/2000/svg">
<g id="Group">
<path id="Vector" d="M25.1311 2.86891C23.281 1.01905 20.8212 0 18.2043 0C15.588 0 13.1282 1.01899 11.2781 2.86891C9.42796 4.71915 8.40924 7.17899 8.40924 9.79612C8.40924 12.1372 9.22523 14.3527 10.7219 16.1187L8.74114 18.099C7.72625 17.5756 6.44536 17.739 5.59557 18.589L0.79018 23.3945C0.280438 23.9042 0 24.5818 0 25.3028C0 26.0236 0.280492 26.7012 0.790234 27.2109C1.31633 27.737 2.00758 28 2.69828 28C3.38953 28 4.08023 27.737 4.60633 27.2109L9.41183 22.4052C9.92152 21.8955 10.202 21.2179 10.202 20.4971C10.202 20.0592 10.0979 19.6369 9.90232 19.2583L11.882 17.2787C13.6478 18.7762 15.8636 19.5916 18.2043 19.5916C20.8212 19.5916 23.2811 18.5726 25.131 16.7224C26.9812 14.8723 28 12.4124 28 9.79617C28 7.17905 26.9812 4.7192 25.1311 2.86902V2.86891ZM14.8683 13.2962C14.8683 13.749 14.5015 14.1167 14.048 14.1167C13.5954 14.1167 13.2277 13.749 13.2277 13.2962V10.6705C13.2277 10.2179 13.5954 9.8502 14.048 9.8502C14.5015 9.8502 14.8683 10.2176 14.8683 10.6705V13.2962ZM17.6027 13.2962C17.6027 13.749 17.2359 14.1167 16.7824 14.1167C16.3297 14.1167 15.9621 13.749 15.9621 13.2962V7.93614C15.9621 7.48327 16.3297 7.11561 16.7824 7.11561C17.2359 7.11561 17.6027 7.48327 17.6027 7.93614V13.2962ZM20.3371 13.2962C20.3371 13.749 19.9703 14.1167 19.5168 14.1167C19.0641 14.1167 18.6965 13.749 18.6965 13.2962V9.02989C18.6965 8.57702 19.0641 8.20958 19.5168 8.20958C19.9703 8.20958 20.3371 8.57702 20.3371 9.02989V13.2962ZM23.0715 13.2962C23.0715 13.749 22.7047 14.1167 22.2511 14.1167C21.7985 14.1167 21.4308 13.749 21.4308 13.2962V6.29524C21.4308 5.84259 21.7985 5.47493 22.2511 5.47493C22.7047 5.47493 23.0715 5.84237 23.0715 6.29524V13.2962Z" fill="#A2C1DF"/>
</g>
</svg>
