<svg width="26" height="24" viewBox="0 0 26 24" fill="none" xmlns="http://www.w3.org/2000/svg">
<g id="Group">
<path id="Vector" d="M22.275 0.0478516H3.725C2.08 0.0478516 0.75 1.3866 0.75 3.0316V15.5091C0.75 17.1541 2.08 18.4929 3.725 18.4929H11.3498C11.0802 17.8924 10.94 17.2418 10.9385 16.5836C10.9399 15.3317 11.4377 14.1315 12.3229 13.2462C13.208 12.3609 14.4081 11.8628 15.66 11.8612C16.9121 11.8624 18.1126 12.3603 18.9979 13.2457C19.8833 14.131 20.3812 15.3315 20.3824 16.5836C20.3824 17.2644 20.231 17.9075 19.9711 18.4929H22.275C23.92 18.4929 25.25 17.1541 25.25 15.5091V3.0316C25.25 1.3866 23.92 0.0478516 22.275 0.0478516ZM8.13325 3.53998H17.8676C18.0765 3.53998 18.2768 3.62295 18.4245 3.77063C18.5722 3.91832 18.6551 4.11862 18.6551 4.32748C18.6551 4.53633 18.5722 4.73664 18.4245 4.88432C18.2768 5.03201 18.0765 5.11498 17.8676 5.11498H8.13325C7.92439 5.11498 7.72409 5.03201 7.5764 4.88432C7.42872 4.73664 7.34575 4.53633 7.34575 4.32748C7.34575 4.11862 7.42872 3.91832 7.5764 3.77063C7.72409 3.62295 7.92439 3.53998 8.13325 3.53998ZM9.64 15.0016H5.0725C4.86364 15.0016 4.66334 14.9186 4.51565 14.7709C4.36797 14.6233 4.285 14.423 4.285 14.2141C4.285 14.0052 4.36797 13.8049 4.51565 13.6573C4.66334 13.5096 4.86364 13.4266 5.0725 13.4266H9.64C9.84886 13.4266 10.0492 13.5096 10.1968 13.6573C10.3445 13.8049 10.4275 14.0052 10.4275 14.2141C10.4275 14.423 10.3445 14.6233 10.1968 14.7709C10.0492 14.9186 9.84886 15.0016 9.64 15.0016ZM20.9301 10.0579H5.07075C4.86189 10.0579 4.66159 9.97488 4.5139 9.8272C4.36622 9.67951 4.28325 9.47921 4.28325 9.27035C4.28325 9.06149 4.36622 8.86119 4.5139 8.7135C4.66159 8.56582 4.86189 8.48285 5.07075 8.48285H20.9301C21.139 8.48285 21.3393 8.56582 21.487 8.7135C21.6347 8.86119 21.7176 9.06149 21.7176 9.27035C21.7176 9.47921 21.6347 9.67951 21.487 9.8272C21.3393 9.97488 21.139 10.0579 20.9301 10.0579Z" fill="#A2C1DF"/>
<path id="Vector_2" d="M15.6599 19.9936C17.5431 19.9936 19.0698 18.4669 19.0698 16.5837C19.0698 14.7005 17.5431 13.1738 15.6599 13.1738C13.7767 13.1738 12.25 14.7005 12.25 16.5837C12.25 18.4669 13.7767 19.9936 15.6599 19.9936Z" fill="#A2C1DF"/>
<path id="Vector_3" d="M15.6598 21.3063C14.9458 21.302 14.2424 21.1341 13.6035 20.8154V23.5778C13.6035 23.8753 13.936 24.0591 14.1898 23.8928L15.6598 22.9128L17.1298 23.8928C17.3835 24.0591 17.716 23.8753 17.716 23.5778V20.8163C17.0769 21.1343 16.3736 21.3019 15.6598 21.3063Z" fill="#A2C1DF"/>
</g>
</svg>
