<svg width="21" height="20" viewBox="0 0 21 20" fill="none" xmlns="http://www.w3.org/2000/svg">
<g id="Group">
<path id="Vector" opacity="0.5" d="M0 3C4.19176e-09 2.80109 0.0790175 2.61032 0.21967 2.46967C0.360322 2.32902 0.551088 2.25 0.75 2.25C0.948912 2.25 1.13968 2.32902 1.28033 2.46967C1.42098 2.61032 1.5 2.80109 1.5 3V17C1.5 17.1989 1.42098 17.3897 1.28033 17.5303C1.13968 17.671 0.948912 17.75 0.75 17.75C0.551088 17.75 0.360322 17.671 0.21967 17.5303C0.0790175 17.3897 4.19177e-09 17.1989 0 17V3Z" fill="#6D6E73"/>
<path id="Vector_2" d="M6.09025 12.6472C4.30325 11.4932 4.30325 8.50718 6.09025 7.35318L16.8802 0.38518C18.6162 -0.73582 20.7502 0.72418 20.7502 3.03318V16.9672C20.7502 19.2772 18.6162 20.7362 16.8802 19.6152L6.09025 12.6462V12.6472Z" fill="#6D6E73"/>
</g>
</svg>
