<svg width="21" height="20" viewBox="0 0 21 20" fill="none" xmlns="http://www.w3.org/2000/svg">
<g id="Group">
<path id="Vector" opacity="0.5" d="M20.75 3C20.75 2.80109 20.671 2.61032 20.5303 2.46967C20.3897 2.32902 20.1989 2.25 20 2.25C19.8011 2.25 19.6103 2.32902 19.4697 2.46967C19.329 2.61032 19.25 2.80109 19.25 3V17C19.25 17.1989 19.329 17.3897 19.4697 17.5303C19.6103 17.671 19.8011 17.75 20 17.75C20.1989 17.75 20.3897 17.671 20.5303 17.5303C20.671 17.3897 20.75 17.1989 20.75 17V3Z" fill="#6D6E73"/>
<path id="Vector_2" d="M14.66 12.6472C16.447 11.4932 16.447 8.50718 14.66 7.35318L3.87 0.38518C2.135 -0.73582 0 0.72418 0 3.03318V16.9672C0 19.2772 2.134 20.7362 3.87 19.6152L14.66 12.6472Z" fill="#6D6E73"/>
</g>
</svg>
