<svg width="28" height="28" viewBox="0 0 28 28" fill="none" xmlns="http://www.w3.org/2000/svg">
<g id="Group">
<g id="Glyph">
<path id="Vector" d="M21.4834 26.6809C20.7625 26.3597 20.1265 25.8746 19.626 25.2644C19.1255 24.6541 18.7743 23.9355 18.6003 23.1656C18.584 23.0957 18.5457 23.0328 18.4909 22.9863C17.9511 22.5193 17.4985 21.9601 17.1544 21.3347C17.0185 21.0949 16.9534 20.8216 16.9666 20.5463C16.9798 20.2711 17.0709 20.0052 17.2291 19.7796C17.3874 19.554 17.6064 19.3779 17.8607 19.2718C18.115 19.1656 18.3943 19.1338 18.6659 19.18C18.8419 19.2119 19.0211 19.223 19.1997 19.2128C19.2478 19.2099 19.2947 19.1965 19.3371 19.1734C19.3794 19.1504 19.4162 19.1183 19.4447 19.0794C20.1358 18.134 21.142 17.4668 22.2819 17.1981C22.3531 17.181 22.4164 17.1404 22.4616 17.0828C22.5069 17.0253 22.5314 16.9541 22.5313 16.8809V14.4878C22.5312 14.4087 22.5026 14.3322 22.4508 14.2723C22.399 14.2125 22.3274 14.1733 22.2491 14.1619C22.0588 14.1334 21.8903 14.1028 21.735 14.0656C21.085 13.9085 20.4685 13.6359 19.915 13.2606C19.8547 13.2175 19.781 13.1973 19.7072 13.2038C18.9041 13.2501 18.0993 13.1508 17.3316 12.9106C16.1243 12.5985 15.8557 10.8644 16.9116 10.2003C17.1144 10.0631 17.2982 9.89984 17.4584 9.71469C17.4898 9.6793 17.5129 9.63741 17.5261 9.59202C17.5394 9.54664 17.5424 9.49888 17.535 9.45219C17.3868 8.41462 17.5339 7.35629 17.9594 6.39844C18.3377 5.5371 18.93 4.78685 19.6801 4.21903C20.4302 3.65122 21.313 3.28471 22.2447 3.15438C22.3254 3.14251 22.3989 3.10097 22.4506 3.03787C22.5024 2.97477 22.5288 2.89464 22.5247 2.81313C22.4904 2.05499 22.1648 1.33933 21.6159 0.815269C21.067 0.291209 20.337 -0.000830705 19.5781 1.7749e-06H8.42188C7.63901 0.001159 6.88855 0.312663 6.33498 0.86623C5.78141 1.4198 5.46991 2.17026 5.46875 2.95313V7.83125C5.46923 7.87713 5.47925 7.92242 5.49816 7.96422C5.51707 8.00603 5.54448 8.04344 5.57862 8.07409C5.61277 8.10474 5.65292 8.12795 5.69651 8.14226C5.74011 8.15657 5.78621 8.16165 5.83187 8.15719C6.08257 8.13056 6.33446 8.11668 6.58656 8.11563C7.96989 8.11692 9.32363 8.5163 10.4861 9.26609C11.6486 10.0159 12.5708 11.0844 13.1425 12.3441C13.1613 12.3862 13.1887 12.424 13.223 12.4549C13.2573 12.4858 13.2977 12.5092 13.3416 12.5234C13.7631 12.6616 14.2039 12.7325 14.6475 12.7334C14.9701 12.7349 15.2858 12.8276 15.558 13.0008C15.8302 13.1739 16.0479 13.4205 16.1861 13.7121C16.3242 14.0036 16.3771 14.3283 16.3386 14.6486C16.3002 14.969 16.1719 15.2719 15.9688 15.5225C15.2865 16.3886 14.4416 17.1131 13.4816 17.6553C13.4114 17.692 13.3575 17.7537 13.3306 17.8281C12.8177 19.205 11.8954 20.3918 10.6877 21.2287C9.48002 22.0657 8.04496 22.5126 6.57562 22.5094C6.32713 22.5074 6.07889 22.4928 5.83187 22.4656C5.78622 22.4612 5.74015 22.4664 5.69658 22.4807C5.65301 22.495 5.61289 22.5182 5.57876 22.5489C5.54463 22.5795 5.51723 22.6169 5.49829 22.6587C5.47936 22.7005 5.4693 22.7457 5.46875 22.7916V25.0469C5.46991 25.8297 5.78141 26.5802 6.33498 27.1338C6.88855 27.6873 7.63901 27.9988 8.42188 28H19.5781C20.3167 28.0001 21.0282 27.7221 21.5709 27.2213C21.6108 27.1845 21.6409 27.1384 21.6586 27.0872C21.6763 27.0359 21.6811 26.9811 21.6724 26.9276C21.6637 26.8741 21.6419 26.8235 21.609 26.7805C21.576 26.7374 21.5329 26.7032 21.4834 26.6809ZM11.9437 2.40625C11.6927 2.3984 11.4484 2.32266 11.237 2.18708C11.0255 2.05149 10.8547 1.86114 10.7428 1.63625L10.2178 0.656252H17.7844L17.2572 1.63625C17.1453 1.86114 16.9745 2.05149 16.763 2.18708C16.5516 2.32266 16.3073 2.3984 16.0563 2.40625H11.9437ZM16.2969 25.1563H11.7031C11.6161 25.1563 11.5326 25.1217 11.4711 25.0601C11.4096 24.9986 11.375 24.9152 11.375 24.8281C11.375 24.7411 11.4096 24.6576 11.4711 24.5961C11.5326 24.5346 11.6161 24.5 11.7031 24.5H16.2969C16.3839 24.5 16.4674 24.5346 16.5289 24.5961C16.5904 24.6576 16.625 24.7411 16.625 24.8281C16.625 24.9152 16.5904 24.9986 16.5289 25.0601C16.4674 25.1217 16.3839 25.1563 16.2969 25.1563ZM23.0744 22.5313H23.9411L24.1756 21.6563H23.3089L23.0744 22.5313Z" fill="#A2C1DF"/>
<path id="Vector_2" d="M21.8348 18.0246C20.9786 18.3686 20.2559 18.9791 19.7737 19.7658C19.7664 19.7773 19.7568 19.7871 19.7455 19.7947C19.7342 19.8022 19.7215 19.8073 19.7081 19.8096C19.3265 19.887 18.934 19.893 18.5502 19.8273C18.4015 19.802 18.2486 19.8195 18.1093 19.8777C17.9701 19.9359 17.8502 20.0324 17.7637 20.156C17.6771 20.2795 17.6274 20.4252 17.6203 20.5759C17.6132 20.7266 17.649 20.8763 17.7236 21.0075C18.0737 21.6555 18.5585 22.2211 19.1455 22.6663C19.1557 22.6733 19.1644 22.6824 19.171 22.6929C19.1777 22.7033 19.1823 22.715 19.1844 22.7273C19.4922 24.8369 21.478 26.5062 23.5509 26.4834C24.3445 26.4744 25.1206 26.2495 25.7961 25.8329C26.4716 25.4162 27.0209 24.8236 27.3852 24.1184C27.7494 23.4133 27.9148 22.6223 27.8636 21.8303C27.8124 21.0383 27.5466 20.2752 27.0946 19.6228C26.5273 18.8014 25.6986 18.1964 24.7435 17.9062C23.7884 17.616 22.7631 17.6577 21.8348 18.0246ZM25.484 21.6558H24.8546L24.6203 22.5308H25.2652C25.3522 22.5308 25.4357 22.5654 25.4972 22.627C25.5588 22.6885 25.5933 22.7719 25.5933 22.859C25.5933 22.946 25.5588 23.0295 25.4972 23.091C25.4357 23.1525 25.3522 23.1871 25.2652 23.1871H24.4445L24.2347 23.9696C24.2235 24.0112 24.2043 24.0503 24.178 24.0845C24.1518 24.1187 24.119 24.1474 24.0817 24.169C24.0443 24.1905 24.0031 24.2045 23.9604 24.2101C23.9176 24.2158 23.8742 24.2129 23.8325 24.2018C23.7908 24.1906 23.7518 24.1714 23.7176 24.1451C23.6834 24.1189 23.6547 24.0861 23.6331 24.0488C23.6115 24.0114 23.5975 23.9702 23.5919 23.9274C23.5863 23.8847 23.5891 23.8412 23.6003 23.7996L23.7644 23.1871H22.8977L22.6855 23.9792C22.6743 24.0208 22.6551 24.0599 22.6288 24.0941C22.6026 24.1283 22.5698 24.157 22.5325 24.1786C22.4951 24.2001 22.4539 24.2141 22.4112 24.2198C22.3684 24.2254 22.325 24.2226 22.2833 24.2114C22.2417 24.2002 22.2026 24.181 22.1684 24.1547C22.1342 24.1285 22.1055 24.0957 22.0839 24.0584C22.0624 24.0211 22.0484 23.9798 22.0427 23.9371C22.0371 23.8943 22.0399 23.8509 22.0511 23.8092L22.2178 23.1871H21.7652C21.6782 23.1871 21.5947 23.1525 21.5332 23.091C21.4716 23.0295 21.4371 22.946 21.4371 22.859C21.4371 22.7719 21.4716 22.6885 21.5332 22.627C21.5947 22.5654 21.6782 22.5308 21.7652 22.5308H22.3945L22.6288 21.6558H21.984C21.8969 21.6558 21.8135 21.6213 21.7519 21.5597C21.6904 21.4982 21.6558 21.4147 21.6558 21.3277C21.6558 21.2407 21.6904 21.1572 21.7519 21.0957C21.8135 21.0342 21.8969 20.9996 21.984 20.9996H22.8047L23.0145 20.2171C23.037 20.133 23.0921 20.0613 23.1675 20.0177C23.2429 19.9742 23.3325 19.9624 23.4167 19.9849C23.5008 20.0075 23.5725 20.0625 23.6161 20.1379C23.6596 20.2133 23.6714 20.303 23.6489 20.3871L23.4848 20.9996H24.3515L24.5637 20.2075C24.5748 20.1658 24.5941 20.1268 24.6203 20.0926C24.6466 20.0584 24.6793 20.0297 24.7167 20.0081C24.754 19.9865 24.7952 19.9726 24.838 19.9669C24.8807 19.9613 24.9242 19.9641 24.9658 19.9753C25.0075 19.9865 25.0465 20.0057 25.0808 20.032C25.115 20.0582 25.1437 20.0909 25.1652 20.1283C25.1868 20.1656 25.2008 20.2069 25.2064 20.2496C25.2121 20.2924 25.2092 20.3358 25.198 20.3775L25.0305 20.9996H25.484C25.571 20.9996 25.6544 21.0342 25.716 21.0957C25.7775 21.1572 25.8121 21.2407 25.8121 21.3277C25.8121 21.4147 25.7775 21.4982 25.716 21.5597C25.6544 21.6213 25.571 21.6558 25.484 21.6558ZM18.5601 6.66316C18.1369 7.61032 18.0258 8.66748 18.2429 9.68191C18.2473 9.70351 18.2472 9.7258 18.2427 9.74737C18.2381 9.76894 18.2291 9.78933 18.2162 9.80725C17.9651 10.1747 17.6479 10.4924 17.2808 10.7442C17.1472 10.8362 17.0422 10.9641 16.9779 11.1131C16.9136 11.2621 16.8926 11.4263 16.9173 11.5867C16.9419 11.7471 17.0113 11.8973 17.1175 12.0201C17.2236 12.1428 17.3622 12.2332 17.5173 12.2809C18.299 12.5341 19.1262 12.6151 19.9421 12.5184C19.9607 12.5157 19.9796 12.5167 19.9977 12.5212C20.0159 12.5258 20.033 12.5339 20.048 12.5451C20.9115 13.2028 21.9658 13.5614 23.0512 13.5667C26.6468 13.5831 29.0631 9.64888 27.4015 6.42056C25.5349 2.79544 20.2145 2.91816 18.5601 6.66316ZM23.378 10.8579C23.2865 10.9099 23.183 10.9372 23.0777 10.9372C22.9724 10.9372 22.8689 10.9099 22.7774 10.8579C21.494 10.1284 20.7649 9.22253 20.7959 8.07431C20.7951 7.90523 20.8277 7.73765 20.8917 7.58113C20.9557 7.42462 21.0498 7.28225 21.1689 7.16214C21.2879 7.04203 21.4294 6.94653 21.5853 6.88111C21.7412 6.81569 21.9085 6.78162 22.0776 6.78085C22.2701 6.78075 22.4602 6.82435 22.6334 6.90836C22.8066 6.99236 22.9585 7.11458 23.0777 7.26581C23.1969 7.11458 23.3488 6.99236 23.522 6.90836C23.6953 6.82435 23.8853 6.78075 24.0778 6.78085C24.2469 6.78162 24.4142 6.81569 24.5701 6.88111C24.726 6.94653 24.8675 7.04203 24.9865 7.16214C25.1056 7.28225 25.1997 7.42462 25.2637 7.58113C25.3277 7.73765 25.3603 7.90523 25.3595 8.07431C25.3916 9.22253 24.6615 10.1277 23.378 10.8579ZM12.7965 17.3666C12.8098 17.3277 12.8307 17.2919 12.8579 17.2611C12.8852 17.2304 12.9183 17.2053 12.9553 17.1874C13.931 16.6821 14.7858 15.9716 15.461 15.1047C15.5853 14.9503 15.6634 14.764 15.6866 14.5672C15.7098 14.3704 15.6771 14.1711 15.5921 13.992C15.5072 13.813 15.3736 13.6615 15.2065 13.5549C15.0394 13.4483 14.8457 13.391 14.6475 13.3895C14.0287 13.3863 13.4159 13.2682 12.8402 13.0413C12.7971 13.025 12.7577 13.0001 12.7246 12.9681C12.6915 12.9361 12.6652 12.8976 12.6475 12.8551C12.1281 11.5726 11.2146 10.4883 10.0389 9.75869C5.41474 6.86025 -0.515577 10.7076 0.095392 16.104C0.456548 19.2933 3.40705 21.928 6.58833 21.8615C9.27239 21.9201 11.9807 20.0001 12.7965 17.3666ZM5.03083 18.0948C4.9313 18.1531 4.81805 18.1838 4.7027 18.1838H3.8277C3.65366 18.1838 3.48674 18.1147 3.36367 17.9916C3.24059 17.8686 3.17145 17.7016 3.17145 17.5276V14.2463C3.17145 14.0723 3.24059 13.9054 3.36367 13.7823C3.48674 13.6592 3.65366 13.5901 3.8277 13.5901H4.7027C4.81787 13.5899 4.93106 13.6201 5.03083 13.6776V18.0948ZM5.68708 17.8008V13.8708C6.32977 13.2744 6.74321 12.0604 7.01861 11.4881C7.50336 10.4801 8.47986 11.8322 8.2412 12.56C8.15874 12.812 7.98395 13.5881 7.98395 13.5881C8.5061 13.5881 9.00686 13.7955 9.37607 14.1648C9.74528 14.534 9.9527 15.0347 9.9527 15.5569V16.2131C9.9527 16.7353 9.74528 17.236 9.37607 17.6052C9.00686 17.9745 8.5061 18.1819 7.98395 18.1819H6.76245C6.55871 18.1818 6.35777 18.1343 6.17555 18.0432L5.68708 17.8008Z" fill="#A2C1DF"/>
</g>
</g>
</svg>
