<svg width="24" height="24" viewBox="0 0 24 24" fill="none" xmlns="http://www.w3.org/2000/svg">
<g id="solar:checklist-minimalistic-bold-duotone">
<path id="Vector" opacity="0.5" d="M2 12C2 7.286 2 4.929 3.464 3.464C4.93 2 7.286 2 12 2C16.714 2 19.071 2 20.535 3.464C22 4.93 22 7.286 22 12C22 16.714 22 19.071 20.535 20.535C19.072 22 16.714 22 12 22C7.286 22 4.929 22 3.464 20.535C2 19.072 2 16.714 2 12Z" fill="black"/>
<path id="Vector_2" d="M10.5434 7.51711C10.6143 7.44639 10.6702 7.36221 10.708 7.26953C10.7458 7.17685 10.7647 7.07754 10.7635 6.97745C10.7623 6.87736 10.7411 6.77853 10.7011 6.68677C10.6611 6.595 10.6032 6.51217 10.5307 6.44315C10.4582 6.37413 10.3726 6.32032 10.279 6.28489C10.1854 6.24946 10.0857 6.23312 9.98564 6.23685C9.88562 6.24057 9.78735 6.26428 9.69664 6.30657C9.60592 6.34886 9.52458 6.40889 9.45742 6.48311L7.14342 8.91311L6.54342 8.28311C6.47627 8.20889 6.39493 8.14886 6.30421 8.10657C6.21349 8.06428 6.11523 8.04057 6.01521 8.03685C5.91518 8.03312 5.81542 8.04946 5.72181 8.08489C5.6282 8.12032 5.54263 8.17413 5.47014 8.24315C5.39765 8.31217 5.33971 8.395 5.29973 8.48677C5.25975 8.57853 5.23854 8.67736 5.23736 8.77745C5.23617 8.87754 5.25503 8.97685 5.29283 9.06953C5.33062 9.16221 5.38659 9.24639 5.45742 9.31711L6.60042 10.5171C6.67047 10.5906 6.75472 10.6492 6.84805 10.6891C6.94139 10.7291 7.04188 10.7498 7.14342 10.7498C7.24497 10.7498 7.34546 10.7291 7.4388 10.6891C7.53213 10.6492 7.61638 10.5906 7.68642 10.5171L10.5434 7.51711ZM13.0004 8.25011C12.8015 8.25011 12.6107 8.32913 12.4701 8.46978C12.3294 8.61043 12.2504 8.8012 12.2504 9.00011C12.2504 9.19902 12.3294 9.38979 12.4701 9.53044C12.6107 9.67109 12.8015 9.75011 13.0004 9.75011H18.0004C18.1993 9.75011 18.3901 9.67109 18.5308 9.53044C18.6714 9.38979 18.7504 9.19902 18.7504 9.00011C18.7504 8.8012 18.6714 8.61043 18.5308 8.46978C18.3901 8.32913 18.1993 8.25011 18.0004 8.25011H13.0004ZM10.5434 14.5171C10.6143 14.4464 10.6702 14.3622 10.708 14.2695C10.7458 14.1768 10.7647 14.0775 10.7635 13.9775C10.7623 13.8774 10.7411 13.7785 10.7011 13.6868C10.6611 13.595 10.6032 13.5122 10.5307 13.4432C10.4582 13.3741 10.3726 13.3203 10.279 13.2849C10.1854 13.2495 10.0857 13.2331 9.98564 13.2368C9.88562 13.2406 9.78735 13.2643 9.69664 13.3066C9.60592 13.3489 9.52458 13.4089 9.45742 13.4831L7.14342 15.9131L6.54342 15.2831C6.47627 15.2089 6.39493 15.1489 6.30421 15.1066C6.21349 15.0643 6.11523 15.0406 6.01521 15.0368C5.91518 15.0331 5.81542 15.0495 5.72181 15.0849C5.6282 15.1203 5.54263 15.1741 5.47014 15.2432C5.39765 15.3122 5.33971 15.395 5.29973 15.4868C5.25975 15.5785 5.23854 15.6774 5.23736 15.7775C5.23617 15.8775 5.25503 15.9768 5.29283 16.0695C5.33062 16.1622 5.38659 16.2464 5.45742 16.3171L6.60042 17.5171C6.67047 17.5906 6.75472 17.6492 6.84805 17.6891C6.94139 17.7291 7.04188 17.7498 7.14342 17.7498C7.24497 17.7498 7.34546 17.7291 7.4388 17.6891C7.53213 17.6492 7.61638 17.5906 7.68642 17.5171L10.5434 14.5171ZM13.0004 15.2501C12.8015 15.2501 12.6107 15.3291 12.4701 15.4698C12.3294 15.6104 12.2504 15.8012 12.2504 16.0001C12.2504 16.199 12.3294 16.3898 12.4701 16.5304C12.6107 16.6711 12.8015 16.7501 13.0004 16.7501H18.0004C18.1993 16.7501 18.3901 16.6711 18.5308 16.5304C18.6714 16.3898 18.7504 16.199 18.7504 16.0001C18.7504 15.8012 18.6714 15.6104 18.5308 15.4698C18.3901 15.3291 18.1993 15.2501 18.0004 15.2501H13.0004Z" fill="black"/>
</g>
</svg>
