<svg width="24" height="24" viewBox="0 0 24 24" fill="none" xmlns="http://www.w3.org/2000/svg">
<g id="solar:revote-bold-duotone">
<path id="Vector" opacity="0.5" fill-rule="evenodd" clip-rule="evenodd" d="M10.435 0.306003C10.5726 0.362528 10.6903 0.458692 10.7731 0.582268C10.8559 0.705845 10.9001 0.851252 10.9 1V1.978L11.983 1.977H12.058C14.13 1.977 15.763 1.977 17.039 2.151C18.349 2.33 19.395 2.705 20.216 3.538C21.036 4.37 21.403 5.428 21.579 6.752C21.75 8.045 21.75 9.702 21.75 11.807V11.92C21.75 14.025 21.75 15.681 21.579 16.974C21.403 18.3 21.036 19.356 20.216 20.188C19.396 21.022 18.35 21.397 17.039 21.576C15.763 21.75 14.13 21.75 12.058 21.75H11.942C9.87 21.75 8.237 21.75 6.961 21.576C5.651 21.396 4.605 21.022 3.784 20.188C2.964 19.356 2.597 18.3 2.421 16.974C2.25 15.681 2.25 14.025 2.25 11.92V11.807C2.25 9.701 2.25 8.045 2.421 6.752C2.597 5.427 2.964 4.37 3.784 3.538C3.85272 3.46605 3.93507 3.4085 4.02625 3.36869C4.11743 3.32887 4.21562 3.3076 4.3151 3.30611C4.41458 3.30462 4.51337 3.32293 4.6057 3.35999C4.69804 3.39705 4.78208 3.4521 4.85293 3.52196C4.92377 3.59181 4.98002 3.67506 5.01837 3.76686C5.05673 3.85866 5.07644 3.95718 5.07636 4.05667C5.07627 4.15617 5.05639 4.25465 5.01787 4.34638C4.97935 4.43812 4.92297 4.52127 4.852 4.591C4.354 5.097 4.062 5.786 3.908 6.949C3.752 8.132 3.75 9.689 3.75 11.863C3.75 14.038 3.752 15.594 3.908 16.778C4.062 17.94 4.354 18.63 4.852 19.136C5.349 19.64 6.024 19.934 7.164 20.09C8.327 20.248 9.857 20.25 12 20.25C14.143 20.25 15.673 20.248 16.836 20.09C17.976 19.934 18.651 19.64 19.148 19.136C19.646 18.63 19.938 17.94 20.092 16.778C20.249 15.594 20.25 14.038 20.25 11.863C20.25 9.689 20.248 8.133 20.092 6.949C19.938 5.786 19.646 5.097 19.148 4.591C18.651 4.087 17.977 3.793 16.836 3.637C15.673 3.478 14.143 3.477 12 3.477H10.9V4.554C10.8999 4.70273 10.8555 4.84806 10.7726 4.97152C10.6897 5.09499 10.5719 5.19101 10.4343 5.24739C10.2967 5.30377 10.1454 5.31796 9.9997 5.28815C9.85399 5.25835 9.72043 5.1859 9.616 5.08L7.866 3.303C7.72798 3.16272 7.65063 2.9738 7.65063 2.777C7.65063 2.5802 7.72798 2.39129 7.866 2.251L9.616 0.474003C9.72042 0.367869 9.85407 0.295217 9.99992 0.265298C10.1458 0.23538 10.2972 0.24955 10.435 0.306003Z" fill="black"/>
<path id="Vector_2" d="M16.0298 10.0302C16.1035 9.96149 16.1626 9.87869 16.2036 9.78669C16.2446 9.69469 16.2667 9.59538 16.2684 9.49468C16.2702 9.39397 16.2517 9.29394 16.214 9.20056C16.1762 9.10717 16.1201 9.02233 16.0489 8.95112C15.9777 8.8799 15.8928 8.82375 15.7994 8.78603C15.7061 8.74831 15.606 8.72979 15.5053 8.73156C15.4046 8.73334 15.3053 8.75538 15.2133 8.79637C15.1213 8.83736 15.0385 8.89647 14.9698 8.97015L10.4998 13.4402L9.02985 11.9702C8.88767 11.8377 8.69963 11.7656 8.50532 11.769C8.31102 11.7724 8.12564 11.8511 7.98822 11.9885C7.85081 12.1259 7.7721 12.3113 7.76867 12.5056C7.76524 12.6999 7.83737 12.888 7.96985 13.0302L9.96985 15.0302C10.1105 15.1706 10.3011 15.2495 10.4998 15.2495C10.6986 15.2495 10.8892 15.1706 11.0298 15.0302L16.0298 10.0302Z" fill="black"/>
</g>
</svg>
