<svg width="24" height="24" viewBox="0 0 24 24" fill="none" xmlns="http://www.w3.org/2000/svg">
<g id="solar:user-plus-bold-duotone">
<path id="Vector" d="M16 6C16 7.06087 15.5786 8.07828 14.8284 8.82843C14.0783 9.57857 13.0609 10 12 10C10.9391 10 9.92172 9.57857 9.17157 8.82843C8.42143 8.07828 8 7.06087 8 6C8 4.93913 8.42143 3.92172 9.17157 3.17157C9.92172 2.42143 10.9391 2 12 2C13.0609 2 14.0783 2.42143 14.8284 3.17157C15.5786 3.92172 16 4.93913 16 6Z" fill="#73A3CE"/>
<path id="Vector_2" opacity="0.5" d="M14.477 21.92C13.751 21.973 12.93 22 12 22C4 22 4 19.985 4 17.5C4 15.015 7.582 13 12 13C14.88 13 17.406 13.856 18.814 15.141C18.298 15 17.574 15 16.5 15C14.85 15 14.025 15 13.513 15.513C13 16.025 13 16.85 13 18.5C13 20.15 13 20.975 13.513 21.487C13.75 21.725 14.055 21.851 14.477 21.92Z" fill="#73A3CE"/>
<path id="Vector_3" fill-rule="evenodd" clip-rule="evenodd" d="M16.5 22C14.85 22 14.025 22 13.513 21.487C13 20.975 13 20.15 13 18.5C13 16.85 13 16.025 13.513 15.513C14.025 15 14.85 15 16.5 15C18.15 15 18.975 15 19.487 15.513C20 16.025 20 16.85 20 18.5C20 20.15 20 20.975 19.487 21.487C18.975 22 18.15 22 16.5 22ZM17.083 16.944C17.083 16.7894 17.0216 16.6411 16.9122 16.5318C16.8029 16.4224 16.6546 16.361 16.5 16.361C16.3454 16.361 16.1971 16.4224 16.0878 16.5318C15.9784 16.6411 15.917 16.7894 15.917 16.944V17.917H14.944C14.7894 17.917 14.6411 17.9784 14.5318 18.0878C14.4224 18.1971 14.361 18.3454 14.361 18.5C14.361 18.6546 14.4224 18.8029 14.5318 18.9122C14.6411 19.0216 14.7894 19.083 14.944 19.083H15.917V20.056C15.917 20.2106 15.9784 20.3589 16.0878 20.4682C16.1971 20.5776 16.3454 20.639 16.5 20.639C16.6546 20.639 16.8029 20.5776 16.9122 20.4682C17.0216 20.3589 17.083 20.2106 17.083 20.056V19.083H18.056C18.2106 19.083 18.3589 19.0216 18.4682 18.9122C18.5776 18.8029 18.639 18.6546 18.639 18.5C18.639 18.3454 18.5776 18.1971 18.4682 18.0878C18.3589 17.9784 18.2106 17.917 18.056 17.917H17.083V16.944Z" fill="#73A3CE"/>
</g>
</svg>
