<svg width="20" height="20" viewBox="0 0 20 20" fill="none" xmlns="http://www.w3.org/2000/svg">
<g id="solar:city-bold-duotone">
<path id="Vector" fill-rule="evenodd" clip-rule="evenodd" d="M1.66699 17.7083C1.50123 17.7083 1.34226 17.7742 1.22505 17.8914C1.10784 18.0086 1.04199 18.1676 1.04199 18.3333C1.04199 18.4991 1.10784 18.6581 1.22505 18.7753C1.34226 18.8925 1.50123 18.9583 1.66699 18.9583H18.3337C18.4994 18.9583 18.6584 18.8925 18.7756 18.7753C18.8928 18.6581 18.9587 18.4991 18.9587 18.3333C18.9587 18.1676 18.8928 18.0086 18.7756 17.8914C18.6584 17.7742 18.4994 17.7083 18.3337 17.7083H14.167V13.3333C14.167 11.7617 14.167 10.9767 13.6787 10.4883C13.1903 10 12.4053 10 10.8337 10H9.16699C7.59532 10 6.81032 10 6.32199 10.4883C5.83366 10.9767 5.83366 11.7617 5.83366 13.3333V17.7083H1.66699ZM7.70866 12.5C7.70866 12.3342 7.77451 12.1753 7.89172 12.0581C8.00893 11.9408 8.1679 11.875 8.33366 11.875H11.667C11.8328 11.875 11.9917 11.9408 12.1089 12.0581C12.2261 12.1753 12.292 12.3342 12.292 12.5C12.292 12.6658 12.2261 12.8247 12.1089 12.9419C11.9917 13.0592 11.8328 13.125 11.667 13.125H8.33366C8.1679 13.125 8.00893 13.0592 7.89172 12.9419C7.77451 12.8247 7.70866 12.6658 7.70866 12.5ZM7.70866 15C7.70866 14.8342 7.77451 14.6753 7.89172 14.5581C8.00893 14.4408 8.1679 14.375 8.33366 14.375H11.667C11.8328 14.375 11.9917 14.4408 12.1089 14.5581C12.2261 14.6753 12.292 14.8342 12.292 15C12.292 15.1658 12.2261 15.3247 12.1089 15.4419C11.9917 15.5592 11.8328 15.625 11.667 15.625H8.33366C8.1679 15.625 8.00893 15.5592 7.89172 15.4419C7.77451 15.3247 7.70866 15.1658 7.70866 15Z" fill="#73A3CE"/>
<path id="Vector_2" opacity="0.5" d="M6.66667 3.75C7.4525 3.75 7.845 3.75 8.08917 3.99417C8.33333 4.23833 8.33333 4.63083 8.33333 5.41667V6.91C8.46417 6.97417 8.5775 7.05417 8.67833 7.155C9.015 7.49167 9.12 7.97 9.1525 8.75V10C7.59083 10 6.80833 10.0017 6.32167 10.4883C5.83333 10.9767 5.83333 11.7617 5.83333 13.3333V17.7083H2.5V10C2.5 8.42833 2.5 7.64333 2.98833 7.155C3.08868 7.05445 3.20533 6.97161 3.33333 6.91V5.41667C3.33333 4.63083 3.33333 4.23833 3.5775 3.99417C3.82167 3.75 4.21417 3.75 5 3.75H5.20833V2.5C5.20833 2.33424 5.27418 2.17527 5.39139 2.05806C5.5086 1.94085 5.66757 1.875 5.83333 1.875C5.99909 1.875 6.15806 1.94085 6.27527 2.05806C6.39249 2.17527 6.45833 2.33424 6.45833 2.5V3.75H6.66667ZM17.2033 4.3725C16.9067 3.94417 16.3833 3.7475 15.3367 3.35583C13.2908 2.58833 12.2683 2.205 11.5508 2.70167C10.8333 3.2 10.8333 4.29167 10.8333 6.47667V10C12.405 10 13.19 10 13.6783 10.4883C14.1667 10.9767 14.1667 11.7617 14.1667 13.3333V17.7083H17.5V6.47667C17.5 5.36 17.5 4.80083 17.2033 4.3725Z" fill="#73A3CE"/>
</g>
</svg>
