<svg width="24" height="24" viewBox="0 0 24 24" fill="none" xmlns="http://www.w3.org/2000/svg">
<g id="solar:clapperboard-text-bold-duotone">
<path id="Vector" d="M16.5405 2.088C15.3305 2 13.8465 2 12.0005 2H11.9025L8.40247 7.25H13.0995L16.5405 2.088ZM10.0965 2.004C6.62247 2.031 4.71747 2.212 3.46547 3.464C2.60747 4.322 2.25247 5.486 2.10547 7.25H6.59947L10.0965 2.004ZM20.5365 3.464C21.3935 4.322 21.7495 5.486 21.8965 7.25H14.9025L18.1995 2.304C19.1935 2.514 19.9395 2.867 20.5365 3.464Z" fill="black"/>
<path id="Vector_2" opacity="0.5" d="M2 12C2 10.763 2 9.689 2.026 8.75H21.974C22 9.689 22 10.763 22 12C22 16.714 22 19.071 20.535 20.535C19.072 22 16.714 22 12 22C7.286 22 4.929 22 3.464 20.535C2 19.072 2 16.714 2 12Z" fill="black"/>
<path id="Vector_3" d="M5.75 17.5C5.75 17.3011 5.82902 17.1103 5.96967 16.9697C6.11032 16.829 6.30109 16.75 6.5 16.75H12C12.1989 16.75 12.3897 16.829 12.5303 16.9697C12.671 17.1103 12.75 17.3011 12.75 17.5C12.75 17.6989 12.671 17.8897 12.5303 18.0303C12.3897 18.171 12.1989 18.25 12 18.25H6.5C6.30109 18.25 6.11032 18.171 5.96967 18.0303C5.82902 17.8897 5.75 17.6989 5.75 17.5ZM6.5 13.25C6.30109 13.25 6.11032 13.329 5.96967 13.4697C5.82902 13.6103 5.75 13.8011 5.75 14C5.75 14.1989 5.82902 14.3897 5.96967 14.5303C6.11032 14.671 6.30109 14.75 6.5 14.75H14.5C14.6989 14.75 14.8897 14.671 15.0303 14.5303C15.171 14.3897 15.25 14.1989 15.25 14C15.25 13.8011 15.171 13.6103 15.0303 13.4697C14.8897 13.329 14.6989 13.25 14.5 13.25H6.5Z" fill="black"/>
</g>
</svg>
