<svg width="24" height="24" viewBox="0 0 24 24" fill="none" xmlns="http://www.w3.org/2000/svg">
<g id="solar:box-minimalistic-bold-duotone">
<path id="Vector" d="M8.422 20.6182C10.178 21.5402 11.056 22.0002 12 22.0002V12.0002L2.638 7.07324C2.62439 7.09541 2.61106 7.11775 2.598 7.14024C2 8.15424 2 9.41724 2 11.9422V12.0592C2 14.5832 2 15.8462 2.597 16.8602C3.195 17.8752 4.271 18.4402 6.422 19.5692L8.422 20.6182Z" fill="black"/>
<path id="Vector_2" opacity="0.7" d="M17.5767 4.432L15.5767 3.382C13.8217 2.461 12.9437 2 11.9997 2C11.0547 2 10.1777 2.46 8.4217 3.382L6.4217 4.432C4.3177 5.536 3.2417 6.1 2.6377 7.072L11.9997 12L21.3617 7.073C20.7557 6.1 19.6817 5.536 17.5767 4.432Z" fill="black"/>
<path id="Vector_3" opacity="0.5" d="M21.403 7.14024C21.3896 7.11774 21.3759 7.0954 21.362 7.07324L12 12.0002V22.0002C12.944 22.0002 13.822 21.5402 15.578 20.6182L17.578 19.5682C19.729 18.4392 20.805 17.8752 21.403 16.8602C22 15.8462 22 14.5832 22 12.0602V11.9432C22 9.41824 22 8.15424 21.403 7.14024Z" fill="black"/>
</g>
</svg>
