<svg width="24" height="24" viewBox="0 0 24 24" fill="none" xmlns="http://www.w3.org/2000/svg">
<g id="solar:passport-minimalistic-bold-duotone">
<path id="Vector" d="M12 10.75C11.4033 10.75 10.831 10.9871 10.409 11.409C9.98705 11.831 9.75 12.4033 9.75 13C9.75 13.5967 9.98705 14.169 10.409 14.591C10.831 15.0129 11.4033 15.25 12 15.25C12.5967 15.25 13.169 15.0129 13.591 14.591C14.0129 14.169 14.25 13.5967 14.25 13C14.25 12.4033 14.0129 11.831 13.591 11.409C13.169 10.9871 12.5967 10.75 12 10.75Z" fill="black"/>
<path id="Vector_2" fill-rule="evenodd" clip-rule="evenodd" d="M4 4.69434V18.6943C4 19.49 4.31607 20.253 4.87868 20.8157C5.44129 21.3783 6.20435 21.6943 7 21.6943H17C17.7956 21.6943 18.5587 21.3783 19.1213 20.8157C19.6839 20.253 20 19.49 20 18.6943V8.69434C20 7.89869 19.6839 7.13562 19.1213 6.57302C18.5587 6.01041 17.7956 5.69434 17 5.69434H5C4.73478 5.69434 4.48043 5.58898 4.29289 5.40144C4.10536 5.21391 4 4.95955 4 4.69434ZM12 9.25034C11.0054 9.25034 10.0516 9.64542 9.34835 10.3487C8.64509 11.0519 8.25 12.0058 8.25 13.0003C8.25 13.9949 8.64509 14.9487 9.34835 15.652C10.0516 16.3552 11.0054 16.7503 12 16.7503C12.9946 16.7503 13.9484 16.3552 14.6517 15.652C15.3549 14.9487 15.75 13.9949 15.75 13.0003C15.75 12.0058 15.3549 11.0519 14.6517 10.3487C13.9484 9.64542 12.9946 9.25034 12 9.25034Z" fill="black"/>
<path id="Vector_3" opacity="0.5" d="M18 4.00012V5.86512C17.687 5.75512 17.35 5.69512 17 5.69512H5C4.73478 5.69512 4.48043 5.58977 4.29289 5.40223C4.10536 5.21469 4 4.96034 4 4.69512V4.62312C4 4.09012 4.392 3.63812 4.92 3.56312L15.717 2.02012C16.0007 1.97957 16.2898 2.00046 16.5647 2.08137C16.8396 2.16228 17.0939 2.30132 17.3104 2.48908C17.5269 2.67684 17.7005 2.90893 17.8195 3.16963C17.9385 3.43033 18 3.71356 18 4.00012Z" fill="black"/>
</g>
</svg>
