<svg width="24" height="24" viewBox="0 0 24 24" fill="none" xmlns="http://www.w3.org/2000/svg">
<g id="solar:upload-bold-duotone">
<path id="Vector" opacity="0.5" d="M22 16V15C22 12.171 22 10.758 21.121 9.879C20.242 9 18.828 9 16 9H8C5.17 9 3.757 9 2.878 9.88C2 10.757 2 12.17 2 14.998V16C2 18.828 2 20.242 2.879 21.121C3.757 22 5.172 22 8 22H16C18.828 22 20.243 22 21.121 21.121C22 20.242 22 18.828 22 16Z" fill="black"/>
<path id="Vector_2" fill-rule="evenodd" clip-rule="evenodd" d="M12.0004 15.7496C12.1993 15.7496 12.39 15.6706 12.5307 15.5299C12.6713 15.3893 12.7504 15.1985 12.7504 14.9996V4.02658L14.4304 5.98758C14.5598 6.13875 14.744 6.23232 14.9424 6.2477C15.1408 6.26308 15.3372 6.19901 15.4884 6.06958C15.6395 5.94016 15.7331 5.75598 15.7485 5.55756C15.7639 5.35915 15.6998 5.16275 15.5704 5.01158L12.5704 1.51158C12.5 1.42925 12.4125 1.36314 12.3141 1.31782C12.2157 1.27249 12.1087 1.24902 12.0004 1.24902C11.892 1.24902 11.785 1.27249 11.6866 1.31782C11.5882 1.36314 11.5008 1.42925 11.4304 1.51158L8.43036 5.01158C8.36628 5.08643 8.31756 5.17318 8.287 5.26686C8.25644 5.36054 8.24463 5.45932 8.25224 5.55756C8.25986 5.65581 8.28675 5.75159 8.33138 5.83944C8.37601 5.9273 8.43751 6.0055 8.51236 6.06958C8.58722 6.13367 8.67396 6.18238 8.76764 6.21294C8.86132 6.2435 8.9601 6.25531 9.05835 6.2477C9.15659 6.24009 9.25237 6.2132 9.34022 6.16856C9.42808 6.12393 9.50628 6.06243 9.57036 5.98758L11.2504 4.02758V14.9996C11.2504 15.4136 11.5864 15.7496 12.0004 15.7496Z" fill="black"/>
</g>
</svg>
