<svg width="24" height="24" viewBox="0 0 24 24" fill="none" xmlns="http://www.w3.org/2000/svg">
<g id="solar:notebook-bookmark-bold-duotone">
<path id="Vector" fill-rule="evenodd" clip-rule="evenodd" d="M14.25 4.47979V7.53679C14.25 7.64779 14.25 7.80679 14.27 7.94279C14.2879 8.08282 14.3372 8.217 14.4142 8.33528C14.4913 8.45356 14.5941 8.55287 14.715 8.62579C14.833 8.69238 14.9638 8.73322 15.0988 8.74563C15.2337 8.75804 15.3698 8.74173 15.498 8.69779C15.628 8.65779 15.77 8.58979 15.876 8.53879L17 8.00479L18.124 8.53879C18.23 8.58879 18.372 8.65779 18.502 8.69879C18.6302 8.74271 18.7664 8.75892 18.9013 8.74633C19.0363 8.73375 19.1671 8.69266 19.285 8.62579C19.4057 8.55276 19.5083 8.4534 19.5852 8.33512C19.6621 8.21685 19.7112 8.08273 19.729 7.94279C19.75 7.80679 19.75 7.64779 19.75 7.53679V3.03079C19.863 3.02579 19.974 3.02079 20.082 3.01779C21.154 2.97979 22 3.85979 22 4.93279V16.1428C22 17.2548 21.094 18.1528 19.985 18.2228C19.015 18.2828 17.877 18.4018 17 18.6328C15.918 18.9188 15.01 19.7008 13.627 20.0688C13.001 20.2358 12.303 20.3258 12 20.3918V5.17379C12.32 5.09479 13.382 4.97079 13.674 4.80279C13.858 4.69579 14.051 4.58679 14.25 4.47979ZM19.728 12.8178C19.752 12.9134 19.7568 13.0128 19.7424 13.1103C19.7279 13.2078 19.6943 13.3014 19.6436 13.386C19.5929 13.4705 19.526 13.5442 19.4468 13.6028C19.3676 13.6615 19.2776 13.7039 19.182 13.7278L15.182 14.7278C14.9889 14.7761 14.7846 14.7457 14.6139 14.6433C14.4433 14.5409 14.3203 14.3749 14.272 14.1818C14.2237 13.9887 14.2541 13.7844 14.3565 13.6137C14.4589 13.443 14.6249 13.3201 14.818 13.2718L18.818 12.2718C18.9136 12.2478 19.013 12.243 19.1105 12.2574C19.208 12.2719 19.3017 12.3055 19.3862 12.3562C19.4707 12.4069 19.5444 12.4738 19.603 12.553C19.6617 12.6322 19.7041 12.7222 19.728 12.8178Z" fill="black"/>
<path id="Vector_2" d="M18.25 3.15139C17.63 3.22439 17.02 3.33139 16.5 3.48739C16.2458 3.56518 15.9955 3.65529 15.75 3.75739V6.93939L16.5 6.58339L16.508 6.57839C16.66 6.49821 16.8282 6.45375 17 6.44839C17.047 6.44839 17.094 6.45239 17.138 6.45839C17.313 6.48739 17.453 6.55839 17.492 6.57839L17.501 6.58339L18.25 6.93939V3.15139Z" fill="black"/>
<path id="Vector_3" opacity="0.5" d="M12 5.21393C11.666 5.14993 10.943 5.05293 10.282 4.87493C8.938 4.51493 8.05 3.76493 7 3.48693C6.113 3.25293 4.959 3.13493 3.982 3.07493C2.886 3.00693 2 3.89993 2 4.99793V16.1439C2 17.2539 2.906 18.1539 4.015 18.2229C4.985 18.2829 6.123 18.4019 7 18.6329C7.486 18.7619 8.216 19.0639 8.873 19.3589C9.878 19.8099 10.925 20.1559 12 20.3929V5.21293V5.21393Z" fill="black"/>
<path id="Vector_4" d="M4.27287 12.8182C4.29683 12.7227 4.33938 12.6328 4.39808 12.5537C4.45678 12.4746 4.53049 12.4078 4.61499 12.3572C4.69949 12.3066 4.79314 12.2731 4.89058 12.2587C4.98801 12.2443 5.08734 12.2492 5.18287 12.2732L9.18287 13.2732C9.37582 13.3216 9.54163 13.4447 9.64384 13.6153C9.74605 13.786 9.77628 13.9903 9.72787 14.1832C9.67947 14.3761 9.5564 14.542 9.38575 14.6442C9.21509 14.7464 9.01082 14.7766 8.81787 14.7282L4.81787 13.7282C4.72233 13.7042 4.63245 13.6617 4.55335 13.603C4.47426 13.5443 4.4075 13.4706 4.35689 13.3861C4.30628 13.3016 4.27282 13.2079 4.2584 13.1105C4.24398 13.0131 4.2489 12.9137 4.27287 12.8182ZM5.18187 8.2732C5.0858 8.24767 4.9856 8.2415 4.88711 8.25504C4.78863 8.26857 4.69382 8.30156 4.60819 8.35207C4.52257 8.40258 4.44784 8.46961 4.38835 8.54926C4.32887 8.62891 4.28581 8.71959 4.26168 8.81603C4.23755 8.91247 4.23284 9.01274 4.24782 9.11102C4.26279 9.2093 4.29715 9.30362 4.34891 9.3885C4.40066 9.47338 4.46877 9.54712 4.54928 9.60544C4.62979 9.66375 4.72109 9.70549 4.81787 9.7282L8.81787 10.7282C9.00968 10.7732 9.21149 10.741 9.37971 10.6384C9.54792 10.5358 9.66902 10.3712 9.71684 10.1801C9.76465 9.98894 9.73534 9.78667 9.63524 9.61698C9.53514 9.44729 9.37228 9.3238 9.18187 9.2732L5.18187 8.2732Z" fill="black"/>
</g>
</svg>
