<svg width="24" height="24" viewBox="0 0 24 24" fill="none" xmlns="http://www.w3.org/2000/svg">
<g id="solar:graph-up-bold-duotone">
<path id="Vector" opacity="0.5" d="M2 12C2 7.286 2 4.929 3.464 3.464C4.93 2 7.286 2 12 2C16.714 2 19.071 2 20.535 3.464C22 4.93 22 7.286 22 12C22 16.714 22 19.071 20.535 20.535C19.072 22 16.714 22 12 22C7.286 22 4.929 22 3.464 20.535C2 19.072 2 16.714 2 12Z" fill="black"/>
<path id="Vector_2" d="M14.4998 10.75C14.3009 10.75 14.1102 10.671 13.9695 10.5303C13.8289 10.3897 13.7498 10.1989 13.7498 10C13.7498 9.80109 13.8289 9.61032 13.9695 9.46967C14.1102 9.32902 14.3009 9.25 14.4998 9.25H16.9998C17.1988 9.25 17.3895 9.32902 17.5302 9.46967C17.6708 9.61032 17.7498 9.80109 17.7498 10V12.5C17.7498 12.6989 17.6708 12.8897 17.5302 13.0303C17.3895 13.171 17.1988 13.25 16.9998 13.25C16.8009 13.25 16.6102 13.171 16.4695 13.0303C16.3289 12.8897 16.2498 12.6989 16.2498 12.5V11.81L14.2368 13.823C13.9087 14.1509 13.4638 14.3351 12.9998 14.3351C12.5359 14.3351 12.091 14.1509 11.7628 13.823L10.1768 12.237C10.1536 12.2137 10.126 12.1952 10.0957 12.1826C10.0653 12.17 10.0327 12.1636 9.99985 12.1636C9.96696 12.1636 9.9344 12.17 9.90403 12.1826C9.87366 12.1952 9.84607 12.2137 9.82285 12.237L7.52985 14.53C7.38767 14.6625 7.19963 14.7346 7.00532 14.7312C6.81102 14.7277 6.62564 14.649 6.48822 14.5116C6.35081 14.3742 6.2721 14.1888 6.26867 13.9945C6.26524 13.8002 6.33737 13.6122 6.46985 13.47L8.76285 11.177C9.091 10.8491 9.53593 10.6649 9.99985 10.6649C10.4638 10.6649 10.9087 10.8491 11.2368 11.177L12.8228 12.763C12.8461 12.7863 12.8737 12.8048 12.904 12.8174C12.9344 12.83 12.967 12.8364 12.9998 12.8364C13.0327 12.8364 13.0653 12.83 13.0957 12.8174C13.126 12.8048 13.1536 12.7863 13.1768 12.763L15.1888 10.75H14.4998Z" fill="black"/>
</g>
</svg>
