<svg width="24" height="24" viewBox="0 0 24 24" fill="none" xmlns="http://www.w3.org/2000/svg">
<g id="solar:notes-bold-duotone">
<path id="Vector" fill-rule="evenodd" clip-rule="evenodd" d="M20.83 10.715L20.312 12.647C19.707 14.902 19.405 16.03 18.72 16.761C18.1795 17.3382 17.48 17.7422 16.71 17.922C16.613 17.945 16.515 17.962 16.415 17.974C15.5 18.087 14.383 17.788 12.351 17.244C10.096 16.639 8.96799 16.337 8.23699 15.652C7.65966 15.1112 7.25563 14.4114 7.07599 13.641C6.84799 12.665 7.14999 11.538 7.75499 9.28299L8.27199 7.35099L8.51599 6.44599C8.97099 4.77999 9.27699 3.86299 9.86399 3.23599C10.4046 2.65919 11.1041 2.25553 11.874 2.07599C12.85 1.84799 13.978 2.14999 16.234 2.75499C18.488 3.35899 19.616 3.66099 20.347 4.34499C20.9245 4.88605 21.3285 5.58625 21.508 6.35699C21.736 7.33299 21.434 8.45999 20.83 10.715ZM11.052 9.80499C11.0775 9.70984 11.1215 9.62065 11.1815 9.54251C11.2415 9.46437 11.3164 9.39883 11.4017 9.34961C11.487 9.30039 11.5812 9.26847 11.6789 9.25566C11.7766 9.24286 11.8759 9.24943 11.971 9.27499L16.801 10.57C16.8986 10.5931 16.9907 10.6357 17.0716 10.695C17.1525 10.7544 17.2207 10.8294 17.2721 10.9156C17.3235 11.0018 17.3571 11.0974 17.3709 11.1968C17.3846 11.2963 17.3783 11.3974 17.3523 11.4943C17.3262 11.5913 17.281 11.682 17.2193 11.7611C17.1575 11.8402 17.0805 11.9062 16.9929 11.955C16.9052 12.0038 16.8086 12.0346 16.7088 12.0454C16.609 12.0562 16.5081 12.0469 16.412 12.018L11.582 10.724C11.39 10.6724 11.2264 10.5468 11.127 10.3747C11.0277 10.2025 11.0007 9.99701 11.052 9.80499ZM10.276 12.703C10.3276 12.511 10.4532 12.3474 10.6253 12.248C10.7974 12.1487 11.002 12.1217 11.194 12.173L14.092 12.95C14.1901 12.9726 14.2827 13.0148 14.3641 13.074C14.4456 13.1332 14.5143 13.2082 14.5662 13.2945C14.6181 13.3808 14.652 13.4767 14.666 13.5764C14.68 13.6761 14.6738 13.7776 14.6478 13.8749C14.6217 13.9722 14.5763 14.0632 14.5143 14.1425C14.4523 14.2219 14.375 14.2879 14.2869 14.3368C14.1988 14.3856 14.1018 14.4162 14.0017 14.4267C13.9015 14.4372 13.8003 14.4274 13.704 14.398L10.806 13.622C10.7108 13.5965 10.6216 13.5524 10.5435 13.4924C10.4654 13.4324 10.3998 13.3576 10.3506 13.2723C10.3014 13.1869 10.2695 13.0927 10.2567 12.9951C10.2439 12.8974 10.2504 12.7981 10.276 12.703Z" fill="black"/>
<path id="Vector_2" opacity="0.5" d="M16.4155 17.9753C16.2063 18.6153 15.8389 19.1921 15.3475 19.6523C14.6165 20.3373 13.4885 20.6393 11.2335 21.2433C8.97846 21.8473 7.85046 22.1503 6.87546 21.9223C6.10507 21.7427 5.40524 21.3386 4.86446 20.7613C4.17946 20.0303 3.87646 18.9023 3.27246 16.6473L2.75546 14.7153C2.15046 12.4603 1.84846 11.3323 2.07546 10.3573C2.25537 9.58681 2.65975 8.88697 3.23746 8.34631C3.96846 7.66131 5.09646 7.35931 7.35146 6.75431C7.77746 6.64031 8.16446 6.53631 8.51646 6.44531L8.27246 7.35131L7.75546 9.28331C7.15046 11.5383 6.84846 12.6653 7.07546 13.6413C7.25537 14.4118 7.65975 15.1117 8.23746 15.6523C8.96846 16.3373 10.0965 16.6393 12.3515 17.2443C14.3835 17.7883 15.5005 18.0883 16.4155 17.9753Z" fill="black"/>
</g>
</svg>
