<svg width="24" height="24" viewBox="0 0 24 24" fill="none" xmlns="http://www.w3.org/2000/svg">
<g id="solar:women-bold-duotone">
<path id="Vector" opacity="0.5" d="M12 16C15.866 16 19 12.866 19 9C19 5.13401 15.866 2 12 2C8.13401 2 5 5.13401 5 9C5 12.866 8.13401 16 12 16Z" fill="#1665AE"/>
<path id="Vector_2" d="M11.25 15.96V17.75H9.5C9.30109 17.75 9.11032 17.829 8.96967 17.9696C8.82902 18.1103 8.75 18.301 8.75 18.5C8.75 18.6989 8.82902 18.8896 8.96967 19.0303C9.11032 19.1709 9.30109 19.25 9.5 19.25H11.25V22C11.25 22.1989 11.329 22.3896 11.4697 22.5303C11.6103 22.6709 11.8011 22.75 12 22.75C12.1989 22.75 12.3897 22.6709 12.5303 22.5303C12.671 22.3896 12.75 22.1989 12.75 22V19.25H14.5C14.6989 19.25 14.8897 19.1709 15.0303 19.0303C15.171 18.8896 15.25 18.6989 15.25 18.5C15.25 18.301 15.171 18.1103 15.0303 17.9696C14.8897 17.829 14.6989 17.75 14.5 17.75H12.75V15.96C12.2514 16.013 11.7486 16.013 11.25 15.96Z" fill="#1665AE"/>
</g>
</svg>
