<svg width="24" height="24" viewBox="0 0 24 24" fill="none" xmlns="http://www.w3.org/2000/svg">
<g id="solar:gallery-edit-bold-duotone">
<path id="Vector" opacity="0.5" d="M22 12.698C21.998 14.168 21.987 15.416 21.904 16.441C21.807 17.631 21.608 18.625 21.164 19.45C20.9702 19.8117 20.7243 20.143 20.434 20.433C19.601 21.266 18.541 21.643 17.197 21.823C15.884 22 14.2 22 12.053 22H11.947C9.799 22 8.117 22 6.803 21.823C5.46 21.643 4.399 21.266 3.567 20.433C2.829 19.695 2.447 18.777 2.245 17.638C2.045 16.518 2.009 15.126 2.002 13.397C2 12.957 2 12.492 2 12V11.946C2 9.79802 2 8.11602 2.177 6.80202C2.357 5.45902 2.734 4.39802 3.567 3.56602C4.399 2.73302 5.46 2.35602 6.803 2.17602C7.971 2.01902 9.473 2.00102 11.302 1.99902C11.4871 1.99902 11.6647 2.07256 11.7956 2.20346C11.9265 2.33436 12 2.5119 12 2.69702C12 2.88214 11.9265 3.05968 11.7956 3.19058C11.6647 3.32148 11.4871 3.39502 11.302 3.39502C9.447 3.39702 8.068 3.41302 6.989 3.55802C5.8 3.71802 5.083 4.02202 4.553 4.55202C4.023 5.08202 3.72 5.80002 3.56 6.99002C3.397 8.20002 3.395 9.78802 3.395 12V12.784L4.327 11.97C4.73553 11.6126 5.26462 11.4238 5.80715 11.4418C6.34967 11.4598 6.86508 11.6833 7.249 12.067L11.239 16.057C11.5486 16.3668 11.9575 16.5574 12.3938 16.5952C12.83 16.6331 13.2657 16.5158 13.624 16.264L13.902 16.069C14.4188 15.7058 15.0435 15.5287 15.674 15.5666C16.3046 15.6046 16.9035 15.8554 17.373 16.278L20.006 18.648C20.271 18.091 20.429 17.36 20.513 16.328C20.592 15.356 20.603 14.176 20.604 12.698C20.604 12.5129 20.6775 12.3354 20.8084 12.2045C20.9393 12.0736 21.1169 12 21.302 12C21.4871 12 21.6647 12.0736 21.7956 12.2045C21.9265 12.3354 22 12.5129 22 12.698Z" fill="black"/>
<path id="Vector_2" fill-rule="evenodd" clip-rule="evenodd" d="M17.5 11C15.379 11 14.318 11 13.659 10.341C13 9.682 13 8.621 13 6.5C13 4.379 13 3.318 13.659 2.659C14.318 2 15.379 2 17.5 2C19.621 2 20.682 2 21.341 2.659C22 3.318 22 4.379 22 6.5C22 8.621 22 9.682 21.341 10.341C20.682 11 19.621 11 17.5 11ZM19.712 4.288C19.8963 4.47234 19.9998 4.72233 19.9998 4.983C19.9998 5.24367 19.8963 5.49366 19.712 5.678L19.654 5.736C19.6269 5.76343 19.5935 5.78386 19.5568 5.79553C19.52 5.8072 19.481 5.80976 19.443 5.803C19.136 5.74037 18.8543 5.58873 18.633 5.367C18.4112 5.14571 18.2596 4.86398 18.197 4.557C18.1902 4.51903 18.1928 4.47999 18.2045 4.44324C18.2161 4.40648 18.2366 4.37311 18.264 4.346L18.322 4.288C18.5063 4.1037 18.7563 4.00017 19.017 4.00017C19.2777 4.00017 19.5277 4.1037 19.712 4.288ZM17.35 8.04C17.2573 8.13914 17.1584 8.23232 17.054 8.319C16.9601 8.39218 16.8585 8.45488 16.751 8.506C16.661 8.549 16.563 8.582 16.37 8.646L15.349 8.986C15.3023 9.00149 15.2523 9.0037 15.2045 8.99237C15.1566 8.98105 15.1129 8.95664 15.0781 8.92188C15.0434 8.88712 15.019 8.84338 15.0076 8.79554C14.9963 8.7477 14.9985 8.69766 15.014 8.651L15.354 7.631C15.418 7.437 15.451 7.34 15.494 7.249C15.545 7.141 15.608 7.039 15.681 6.946C15.743 6.866 15.815 6.794 15.96 6.65L17.759 4.851C17.802 4.808 17.877 4.828 17.897 4.886C17.9955 5.16722 18.156 5.42265 18.3667 5.63334C18.5773 5.84402 18.8328 6.00455 19.114 6.103C19.172 6.123 19.192 6.198 19.149 6.241L17.35 8.041V8.04Z" fill="black"/>
</g>
</svg>
