<svg width="20" height="20" viewBox="0 0 20 20" fill="none" xmlns="http://www.w3.org/2000/svg">
<g id="Layer_1" clip-path="url(#clip0_3012_108480)">
<path id="Vector" opacity="0.5" d="M0 8C0 4.23 0 2.34 1.17 1.17C2.34 0 4.23 0 8 0H10C13.77 0 15.66 0 16.83 1.17C18 2.34 18 4.23 18 8V12C18 15.77 18 17.66 16.83 18.83C15.66 20 13.77 20 10 20H8C4.23 20 2.34 20 1.17 18.83C0 17.66 0 15.77 0 12V8Z" fill="#73A3CE"/>
<path id="Vector_2" d="M13.52 14.5001C13.7468 14.3078 13.9637 14.1042 14.17 13.8901L18.17 9.89014C18.1921 9.86782 18.2079 9.84012 18.216 9.80979C18.224 9.77946 18.224 9.74755 18.2159 9.71723C18.2079 9.68691 18.192 9.65923 18.1699 9.63694C18.1478 9.61464 18.1203 9.59851 18.09 9.59014C17.4749 9.38342 16.9126 9.04439 16.4427 8.59691C15.9728 8.14943 15.6066 7.60438 15.37 7.00014C15.3617 6.96989 15.3455 6.94237 15.3232 6.92028C15.301 6.8982 15.2733 6.88233 15.2429 6.87424C15.2126 6.86616 15.1807 6.86614 15.1504 6.87419C15.1201 6.88224 15.0924 6.89808 15.07 6.92014L11.07 10.9201C10.8533 11.1238 10.6495 11.3409 10.46 11.5701C10.2989 11.7776 10.1614 12.0023 10.05 12.2401C9.92634 12.5122 9.82273 12.7929 9.74004 13.0801L9.55004 13.6301L9.26004 14.5001L9.00004 15.2301C8.97004 15.3347 8.97004 15.4456 9.00004 15.5501C9.0215 15.6561 9.07373 15.7535 9.15021 15.83C9.22669 15.9065 9.32403 15.9587 9.43004 15.9801C9.5346 16.0101 9.64549 16.0101 9.75004 15.9801L10.57 15.7101L11.44 15.4101L11.99 15.2301C12.2772 15.1475 12.558 15.0438 12.83 14.9201C13.0753 14.8069 13.3068 14.666 13.52 14.5001Z" fill="#73A3CE"/>
<path id="Vector_3" fill-rule="evenodd" clip-rule="evenodd" d="M4.25 7C4.25 6.80109 4.32902 6.61032 4.46967 6.46967C4.61032 6.32902 4.80109 6.25 5 6.25H11.5C11.6989 6.25 11.8897 6.32902 12.0303 6.46967C12.171 6.61032 12.25 6.80109 12.25 7C12.25 7.19891 12.171 7.38968 12.0303 7.53033C11.8897 7.67098 11.6989 7.75 11.5 7.75H5C4.80109 7.75 4.61032 7.67098 4.46967 7.53033C4.32902 7.38968 4.25 7.19891 4.25 7ZM4.25 11C4.25 10.8011 4.32902 10.6103 4.46967 10.4697C4.61032 10.329 4.80109 10.25 5 10.25H8C8.19891 10.25 8.38968 10.329 8.53033 10.4697C8.67098 10.6103 8.75 10.8011 8.75 11C8.75 11.1989 8.67098 11.3897 8.53033 11.5303C8.38968 11.671 8.19891 11.75 8 11.75H5C4.80109 11.75 4.61032 11.671 4.46967 11.5303C4.32902 11.3897 4.25 11.1989 4.25 11ZM4.25 15C4.25 14.8011 4.32902 14.6103 4.46967 14.4697C4.61032 14.329 4.80109 14.25 5 14.25H6.5C6.69891 14.25 6.88968 14.329 7.03033 14.4697C7.17098 14.6103 7.25 14.8011 7.25 15C7.25 15.1989 7.17098 15.3897 7.03033 15.5303C6.88968 15.671 6.69891 15.75 6.5 15.75H5C4.80109 15.75 4.61032 15.671 4.46967 15.5303C4.32902 15.3897 4.25 15.1989 4.25 15Z" fill="#73A3CE"/>
<path id="Vector_4" d="M19.3504 8.86003C19.5537 8.6616 19.7137 8.42328 19.8204 8.16003C19.9358 7.89834 19.997 7.61601 20.0004 7.33003C19.9968 6.90222 19.868 6.48482 19.6299 6.12939C19.3917 5.77396 19.0547 5.49607 18.6604 5.33003C18.3973 5.22153 18.115 5.16711 17.8304 5.17003C17.5496 5.17286 17.2717 5.22709 17.0104 5.33003C16.746 5.44008 16.505 5.59961 16.3004 5.80003L16.1804 5.93003C16.1167 5.98926 16.0716 6.06568 16.0504 6.15003C16.0301 6.23213 16.0301 6.31794 16.0504 6.40003C16.0827 6.55198 16.1228 6.70218 16.1704 6.85003C16.3448 7.34953 16.6283 7.80388 17.0004 8.18003C17.3731 8.54423 17.8199 8.8239 18.3104 9.00003L18.7604 9.12003C18.8425 9.14036 18.9283 9.14036 19.0104 9.12003C19.0913 9.09569 19.1662 9.05483 19.2304 9.00003L19.3504 8.87003V8.86003Z" fill="#73A3CE"/>
</g>
<defs>
<clipPath id="clip0_3012_108480">
<rect width="19.99" height="20" fill="white"/>
</clipPath>
</defs>
</svg>
