<svg width="24" height="24" viewBox="0 0 24 24" fill="none" xmlns="http://www.w3.org/2000/svg">
<g id="solar:men-bold-duotone">
<path id="Vector" opacity="0.5" d="M10 22C14.4183 22 18 18.4183 18 14C18 9.58172 14.4183 6 10 6C5.58172 6 2 9.58172 2 14C2 18.4183 5.58172 22 10 22Z" fill="#1665AE"/>
<path id="Vector_2" d="M16.9996 1.25C16.8006 1.25 16.6099 1.32902 16.4692 1.46967C16.3286 1.61032 16.2496 1.80109 16.2496 2C16.2496 2.19891 16.3286 2.38968 16.4692 2.53033C16.6099 2.67098 16.8006 2.75 16.9996 2.75H20.1896L15.1016 7.838C15.4866 8.158 15.8416 8.512 16.1616 8.898L21.2496 3.811V7C21.2496 7.19891 21.3286 7.38968 21.4692 7.53033C21.6099 7.67098 21.8007 7.75 21.9996 7.75C22.1985 7.75 22.3892 7.67098 22.5299 7.53033C22.6705 7.38968 22.7496 7.19891 22.7496 7V2.25C22.7496 1.98478 22.6442 1.73043 22.4567 1.54289C22.2691 1.35536 22.0148 1.25 21.7496 1.25H16.9996Z" fill="#1665AE"/>
</g>
</svg>
