<svg width="24" height="24" viewBox="0 0 24 24" fill="none" xmlns="http://www.w3.org/2000/svg">
<g id="solar:diploma-verified-bold-duotone">
<path id="Vector" fill-rule="evenodd" clip-rule="evenodd" d="M13.1099 13.5001C12.8004 13.2359 12.4068 13.0908 11.9999 13.0908C11.593 13.0908 11.1995 13.2359 10.8899 13.5001C10.6161 13.7334 10.2756 13.8744 9.91694 13.9031C9.51156 13.9353 9.13095 14.111 8.8434 14.3985C8.55585 14.6861 8.38019 15.0667 8.34794 15.4721C8.31994 15.8311 8.17794 16.1721 7.94494 16.4451C7.68107 16.7545 7.53613 17.1479 7.53613 17.5546C7.53613 17.9612 7.68107 18.3546 7.94494 18.6641C8.17888 18.9375 8.31999 19.2782 8.34794 19.6371C8.37999 20.0428 8.5557 20.4237 8.84347 20.7115C9.13125 20.9993 9.51223 21.175 9.91794 21.2071C10.2759 21.2351 10.6169 21.3761 10.8909 21.6091C11.2003 21.8727 11.5935 22.0174 11.9999 22.0174C12.4064 22.0174 12.7996 21.8727 13.1089 21.6091C13.3828 21.3757 13.7233 21.2347 14.0819 21.2061C14.4875 21.174 14.8683 20.9985 15.1561 20.7109C15.4439 20.4233 15.6197 20.0426 15.6519 19.6371C15.6799 19.2791 15.8209 18.9371 16.0539 18.6641C16.3178 18.3546 16.4627 17.9612 16.4627 17.5546C16.4627 17.1479 16.3178 16.7545 16.0539 16.4451C15.8206 16.1712 15.6796 15.8307 15.6509 15.4721C15.6187 15.0667 15.443 14.6861 15.1555 14.3985C14.8679 14.111 14.4873 13.9353 14.0819 13.9031C13.7233 13.8744 13.3838 13.7334 13.1099 13.5001ZM14.0119 17.1031C14.084 17.0358 14.142 16.955 14.1829 16.8654C14.2237 16.7757 14.2464 16.6788 14.2498 16.5804C14.2532 16.4819 14.2372 16.3837 14.2026 16.2914C14.1681 16.1992 14.1157 16.1146 14.0484 16.0426C13.9812 15.9705 13.9004 15.9124 13.8108 15.8716C13.7211 15.8308 13.6242 15.8081 13.5257 15.8047C13.4273 15.8013 13.3291 15.8173 13.2368 15.8519C13.1445 15.8864 13.06 15.9388 12.9879 16.0061L11.3579 17.5291L11.0119 17.2061C10.8665 17.0703 10.673 16.9978 10.4741 17.0047C10.2752 17.0115 10.0872 17.0971 9.95144 17.2426C9.81565 17.388 9.74321 17.5815 9.75005 17.7804C9.7569 17.9792 9.84247 18.1673 9.98794 18.3031L10.8449 19.1031C10.9838 19.2328 11.1668 19.305 11.3569 19.305C11.547 19.305 11.73 19.2328 11.8689 19.1031L14.0119 17.1031Z" fill="black"/>
<path id="Vector_2" opacity="0.5" d="M2 12V8C2 5.172 2 3.757 2.879 2.879C3.757 2 5.172 2 8 2H16C18.828 2 20.243 2 21.121 2.879C22 3.757 22 5.172 22 8V12C22 14.828 22 16.243 21.121 17.121C20.286 17.957 18.965 17.998 16.404 18C16.4763 17.7319 16.4822 17.4502 16.4213 17.1792C16.3603 16.9083 16.2342 16.6563 16.054 16.445C15.8207 16.1711 15.6796 15.8307 15.651 15.472C15.6187 15.0666 15.4431 14.686 15.1555 14.3985C14.868 14.1109 14.4874 13.9353 14.082 13.903C13.7233 13.8744 13.3829 13.7334 13.109 13.5C12.7995 13.2361 12.4062 13.0912 11.9995 13.0912C11.5928 13.0912 11.1995 13.2361 10.89 13.5C10.6161 13.7334 10.2757 13.8744 9.917 13.903C9.51162 13.9353 9.13101 14.1109 8.84346 14.3985C8.55591 14.686 8.38025 15.0666 8.348 15.472C8.32 15.831 8.178 16.172 7.945 16.445C7.76478 16.6563 7.63873 16.9083 7.57774 17.1792C7.51676 17.4502 7.52268 17.7319 7.595 18C5.035 17.998 3.715 17.957 2.879 17.121C2 16.243 2 14.828 2 12Z" fill="black"/>
<path id="Vector_3" d="M8.25 6C8.25 5.80109 8.32902 5.61032 8.46967 5.46967C8.61032 5.32902 8.80109 5.25 9 5.25H15C15.1989 5.25 15.3897 5.32902 15.5303 5.46967C15.671 5.61032 15.75 5.80109 15.75 6C15.75 6.19891 15.671 6.38968 15.5303 6.53033C15.3897 6.67098 15.1989 6.75 15 6.75H9C8.80109 6.75 8.61032 6.67098 8.46967 6.53033C8.32902 6.38968 8.25 6.19891 8.25 6ZM7 8.75C6.80109 8.75 6.61032 8.82902 6.46967 8.96967C6.32902 9.11032 6.25 9.30109 6.25 9.5C6.25 9.69891 6.32902 9.88968 6.46967 10.0303C6.61032 10.171 6.80109 10.25 7 10.25H17C17.1989 10.25 17.3897 10.171 17.5303 10.0303C17.671 9.88968 17.75 9.69891 17.75 9.5C17.75 9.30109 17.671 9.11032 17.5303 8.96967C17.3897 8.82902 17.1989 8.75 17 8.75H7Z" fill="black"/>
</g>
</svg>
