<svg width="24" height="24" viewBox="0 0 24 24" fill="none" xmlns="http://www.w3.org/2000/svg">
<g id="solar:global-bold-duotone">
<path id="Vector" fill-rule="evenodd" clip-rule="evenodd" d="M2.02832 11.25C2.2175 8.73474 3.35021 6.38388 5.19948 4.6685C7.04875 2.95313 9.47796 1.99996 12.0003 2C11.1703 2 10.4303 2.364 9.82032 2.921C9.21532 3.475 8.70432 4.249 8.29032 5.163C7.87432 6.083 7.55032 7.159 7.33132 8.326C7.1528 9.29141 7.04651 10.2688 7.01332 11.25H2.02832ZM2.02832 12.75H7.01332C7.04932 13.752 7.15632 14.738 7.33132 15.674C7.55132 16.841 7.87432 17.917 8.29032 18.837C8.70432 19.751 9.21532 20.525 9.82032 21.079C10.4303 21.636 11.1703 22 12.0003 22C6.73032 22 2.41132 17.923 2.02832 12.75Z" fill="black"/>
<path id="Vector_2" d="M12 2C12.831 2 13.57 2.364 14.18 2.921C14.785 3.475 15.297 4.249 15.71 5.163C16.127 6.083 16.45 7.159 16.669 8.326C16.844 9.262 16.951 10.248 16.987 11.25H21.972C21.7831 8.73465 20.6504 6.38366 18.8011 4.66824C16.9518 2.95281 14.5224 1.99972 12 2ZM16.669 15.674C16.45 16.841 16.127 17.917 15.71 18.837C15.297 19.751 14.785 20.525 14.18 21.079C13.57 21.636 12.831 22 12 22C17.27 22 21.589 17.923 21.972 12.75H16.987C16.9538 13.7312 16.8475 14.7086 16.669 15.674Z" fill="black"/>
<path id="Vector_3" opacity="0.5" d="M11.9998 3.39648C11.7248 3.39648 11.3698 3.51348 10.9568 3.89148C10.5408 4.27148 10.1238 4.86848 9.75577 5.68148C9.38977 6.48948 9.09277 7.46548 8.88877 8.55448C8.72877 9.41348 8.62877 10.3225 8.59277 11.2505H15.4068C15.3743 10.3458 15.2754 9.44469 15.1108 8.55448C14.9068 7.46448 14.6108 6.48948 14.2438 5.68248C13.8758 4.86848 13.4598 4.27248 13.0438 3.89148C12.6298 3.51348 12.2748 3.39648 11.9998 3.39648ZM8.88877 15.4465C9.09277 16.5365 9.38977 17.5115 9.75577 18.3195C10.1238 19.1325 10.5408 19.7295 10.9558 20.1095C11.3698 20.4885 11.7258 20.6055 11.9998 20.6055C12.2748 20.6055 12.6298 20.4885 13.0438 20.1105C13.4598 19.7295 13.8758 19.1325 14.2438 18.3195C14.6098 17.5115 14.9068 16.5365 15.1108 15.4465C15.2718 14.5885 15.3718 13.6785 15.4068 12.7505H8.59277C8.62777 13.6785 8.72777 14.5885 8.88877 15.4465Z" fill="black"/>
</g>
</svg>
