<svg width="24" height="24" viewBox="0 0 24 24" fill="none" xmlns="http://www.w3.org/2000/svg">
<g id="solar:lightbulb-minimalistic-bold-duotone">
<path id="Vector" opacity="0.5" d="M7.41 13.828L8.515 14.881C8.825 15.176 9 15.588 9 16.018C9 16.665 9.518 17.19 10.157 17.19H13.843C14.482 17.19 15 16.665 15 16.018C15 15.588 15.176 15.176 15.485 14.881L16.589 13.828C18.131 12.348 18.991 10.403 18.999 8.382L19 8.297C19 4.842 15.866 2 12 2C8.134 2 5 4.842 5 8.297V8.382C5.009 10.403 5.87 12.348 7.41 13.828Z" fill="black"/>
<path id="Vector_2" fill-rule="evenodd" clip-rule="evenodd" d="M9.25002 18.7092C9.25002 18.2892 9.58602 17.9492 10 17.9492H14C14.414 17.9492 14.75 18.2892 14.75 18.7092C14.75 19.1292 14.414 19.4692 14 19.4692H10C9.90087 19.4686 9.80282 19.4484 9.71147 19.4098C9.62012 19.3713 9.53726 19.3151 9.46761 19.2446C9.39797 19.174 9.3429 19.0904 9.30557 18.9985C9.26824 18.9067 9.24936 18.8084 9.25002 18.7092ZM9.91702 21.2402C9.91702 20.8202 10.252 20.4802 10.667 20.4802H13.333C13.748 20.4802 14.083 20.8202 14.083 21.2402C14.083 21.6602 13.748 22.0002 13.333 22.0002H10.667C10.5679 21.9996 10.4698 21.9794 10.3785 21.9408C10.2871 21.9023 10.2043 21.8461 10.1346 21.7756C10.065 21.705 10.0099 21.6214 9.97257 21.5295C9.93524 21.4377 9.91636 21.3394 9.91702 21.2402Z" fill="black"/>
</g>
</svg>
