<svg width="24" height="24" viewBox="0 0 24 24" fill="none" xmlns="http://www.w3.org/2000/svg">
<g id="solar:chat-square-bold-duotone">
<path id="Vector" d="M21.975 13.8143C20.4336 14.5971 18.7288 15.0038 17 15.0013C10.925 15.0003 6 10.0763 6 4.00032C6 3.37032 6.053 2.75432 6.154 2.15332C5.439 2.25932 4.877 2.43732 4.388 2.73732C3.7152 3.14936 3.14945 3.71477 2.737 4.38732C2 5.59132 2 7.22832 2 10.5013V11.5013C2 13.8313 2 14.9963 2.38 15.9143C2.63139 16.521 2.99984 17.0723 3.46432 17.5366C3.92879 18.0009 4.48018 18.3692 5.087 18.6203C5.747 18.8943 6.534 18.9703 7.79 18.9923C8.64 19.0073 9.065 19.0143 9.403 19.2113C9.74 19.4073 9.951 19.7623 10.371 20.4733L10.913 21.3893C11.396 22.2053 12.603 22.2053 13.087 21.3893L13.629 20.4733C14.049 19.7633 14.259 19.4073 14.597 19.2113C14.935 19.0143 15.36 19.0073 16.21 18.9923C17.466 18.9713 18.253 18.8943 18.913 18.6203C19.5196 18.369 20.0708 18.0007 20.5351 17.5365C20.9994 17.0722 21.3677 16.521 21.619 15.9143C21.846 15.3673 21.938 14.7323 21.975 13.8143Z" fill="black"/>
<path id="Vector_2" fill-rule="evenodd" clip-rule="evenodd" d="M13.087 21.3893L13.629 20.4733C14.049 19.7633 14.259 19.4073 14.597 19.2113C14.935 19.0143 15.36 19.0073 16.21 18.9923C17.466 18.9713 18.253 18.8943 18.913 18.6203C19.5196 18.369 20.0708 18.0007 20.5351 17.5365C20.9994 17.0722 21.3677 16.521 21.619 15.9143C21.846 15.3673 21.938 14.7323 21.975 13.8143C20.4336 14.5971 18.7288 15.0038 17 15.0013C10.925 15.0003 6 10.0763 6 4.00032C6 3.37032 6.053 2.75432 6.154 2.15332C5.439 2.25932 4.877 2.43732 4.388 2.73732C3.7152 3.14936 3.14945 3.71477 2.737 4.38732C2 5.59132 2 7.22832 2 10.5013V11.5013C2 13.8313 2 14.9963 2.38 15.9143C2.63139 16.521 2.99984 17.0723 3.46432 17.5366C3.92879 18.0009 4.48018 18.3692 5.087 18.6203C5.747 18.8943 6.534 18.9703 7.79 18.9923C8.64 19.0073 9.065 19.0143 9.403 19.2113C9.74 19.4073 9.951 19.7623 10.371 20.4733L10.913 21.3893C11.396 22.2053 12.603 22.2053 13.087 21.3893Z" fill="black"/>
<path id="Vector_3" opacity="0.5" d="M13.5 2H10.5C8.56 2 7.195 2 6.154 2.153C6.053 2.753 6 3.371 6 4C6 10.075 10.925 15 17 15C18.79 15 20.48 14.572 21.975 13.813C22 13.192 22 12.441 22 11.5V10.5C22 7.227 22 5.59 21.263 4.388C20.851 3.7152 20.2856 3.14945 19.613 2.737C18.41 2 16.773 2 13.5 2Z" fill="black"/>
</g>
</svg>
