<svg width="24" height="24" viewBox="0 0 24 24" fill="none" xmlns="http://www.w3.org/2000/svg">
<g id="solar:clipboard-bold-duotone">
<path id="Vector" opacity="0.5" d="M21 15.998V9.998C21 7.17 21 5.756 20.121 4.877C19.353 4.109 18.175 4.012 16 4H8C5.825 4.012 4.647 4.109 3.879 4.877C3 5.756 3 7.17 3 9.998V15.998C3 18.827 3 20.241 3.879 21.12C4.757 21.998 6.172 21.998 9 21.998H15C17.828 21.998 19.243 21.998 20.121 21.12C21 20.24 21 18.827 21 15.998Z" fill="black"/>
<path id="Vector_2" d="M8 3.5C8 3.10218 8.15804 2.72064 8.43934 2.43934C8.72064 2.15804 9.10218 2 9.5 2H14.5C14.8978 2 15.2794 2.15804 15.5607 2.43934C15.842 2.72064 16 3.10218 16 3.5V4.5C16 4.89782 15.842 5.27936 15.5607 5.56066C15.2794 5.84196 14.8978 6 14.5 6H9.5C9.10218 6 8.72064 5.84196 8.43934 5.56066C8.15804 5.27936 8 4.89782 8 4.5V3.5Z" fill="black"/>
<path id="Vector_3" fill-rule="evenodd" clip-rule="evenodd" d="M6.25 10.5C6.25 10.3011 6.32902 10.1103 6.46967 9.96967C6.61032 9.82902 6.80109 9.75 7 9.75H17C17.1989 9.75 17.3897 9.82902 17.5303 9.96967C17.671 10.1103 17.75 10.3011 17.75 10.5C17.75 10.6989 17.671 10.8897 17.5303 11.0303C17.3897 11.171 17.1989 11.25 17 11.25H7C6.80109 11.25 6.61032 11.171 6.46967 11.0303C6.32902 10.8897 6.25 10.6989 6.25 10.5ZM7.25 14C7.25 13.8011 7.32902 13.6103 7.46967 13.4697C7.61032 13.329 7.80109 13.25 8 13.25H16C16.1989 13.25 16.3897 13.329 16.5303 13.4697C16.671 13.6103 16.75 13.8011 16.75 14C16.75 14.1989 16.671 14.3897 16.5303 14.5303C16.3897 14.671 16.1989 14.75 16 14.75H8C7.80109 14.75 7.61032 14.671 7.46967 14.5303C7.32902 14.3897 7.25 14.1989 7.25 14ZM8.25 17.5C8.25 17.3011 8.32902 17.1103 8.46967 16.9697C8.61032 16.829 8.80109 16.75 9 16.75H15C15.1989 16.75 15.3897 16.829 15.5303 16.9697C15.671 17.1103 15.75 17.3011 15.75 17.5C15.75 17.6989 15.671 17.8897 15.5303 18.0303C15.3897 18.171 15.1989 18.25 15 18.25H9C8.80109 18.25 8.61032 18.171 8.46967 18.0303C8.32902 17.8897 8.25 17.6989 8.25 17.5Z" fill="black"/>
</g>
</svg>
