<svg width="24" height="24" viewBox="0 0 24 24" fill="none" xmlns="http://www.w3.org/2000/svg">
<g id="solar:pen-2-bold-duotone">
<path id="Vector" opacity="0.5" fill-rule="evenodd" clip-rule="evenodd" d="M3.25 22C3.25 21.8011 3.32902 21.6103 3.46967 21.4697C3.61032 21.329 3.80109 21.25 4 21.25H20C20.1989 21.25 20.3897 21.329 20.5303 21.4697C20.671 21.6103 20.75 21.8011 20.75 22C20.75 22.1989 20.671 22.3897 20.5303 22.5303C20.3897 22.671 20.1989 22.75 20 22.75H4C3.80109 22.75 3.61032 22.671 3.46967 22.5303C3.32902 22.3897 3.25 22.1989 3.25 22Z" fill="black"/>
<path id="Vector_2" opacity="0.5" d="M19.0799 7.37184C19.6551 6.77866 19.9739 5.98309 19.9675 5.15689C19.9611 4.33069 19.6301 3.54014 19.0458 2.95591C18.4616 2.37169 17.6711 2.04065 16.8449 2.03427C16.0187 2.0279 15.2231 2.34669 14.6299 2.92184L13.9199 3.63184L13.9509 3.72084C14.2109 4.47084 14.7019 5.45384 15.6259 6.37684C16.3955 7.15136 17.3355 7.73523 18.3709 8.08184L19.0799 7.37184Z" fill="black"/>
<path id="Vector_3" d="M13.9505 3.59961L13.9205 3.62961L13.9505 3.71961C14.2105 4.46961 14.7005 5.45161 15.6245 6.37561C16.3943 7.14974 17.3343 7.73326 18.3695 8.07961L11.5195 14.9296C11.0575 15.3916 10.8265 15.6226 10.5715 15.8206C10.2715 16.0546 9.94653 16.2556 9.60253 16.4206C9.31153 16.5586 9.00154 16.6616 8.38254 16.8686L5.11454 17.9586C4.965 18.0083 4.8046 18.0153 4.65129 17.979C4.49797 17.9426 4.35779 17.8644 4.24643 17.7529C4.13507 17.6414 4.05693 17.5012 4.02074 17.3478C3.98456 17.1945 3.99175 17.0341 4.04154 16.8846L5.13054 13.6166C5.33654 12.9966 5.44054 12.6866 5.57854 12.3966C5.74254 12.0526 5.94354 11.7266 6.17854 11.4266C6.37654 11.1726 6.60754 10.9416 7.06854 10.4796L13.9505 3.59961Z" fill="black"/>
</g>
</svg>
