<svg width="22" height="20" viewBox="0 0 22 20" fill="none" xmlns="http://www.w3.org/2000/svg">
<g id="Group">
<path id="Vector" fill-rule="evenodd" clip-rule="evenodd" d="M9.75 0H11.75C14.578 0 15.993 -5.96046e-08 16.871 0.879C17.75 1.757 17.75 3.172 17.75 6V14C17.75 16.828 17.75 18.243 16.871 19.121C15.993 20 14.578 20 11.75 20H9.75C6.922 20 5.507 20 4.629 19.121C3.75 18.243 3.75 16.828 3.75 14V6C3.75 3.172 3.75 1.757 4.629 0.879C5.507 -5.96046e-08 6.922 0 9.75 0ZM7 11C7 10.8011 7.07902 10.6103 7.21967 10.4697C7.36032 10.329 7.55109 10.25 7.75 10.25H13.75C13.9489 10.25 14.1397 10.329 14.2803 10.4697C14.421 10.6103 14.5 10.8011 14.5 11C14.5 11.1989 14.421 11.3897 14.2803 11.5303C14.1397 11.671 13.9489 11.75 13.75 11.75H7.75C7.55109 11.75 7.36032 11.671 7.21967 11.5303C7.07902 11.3897 7 11.1989 7 11ZM7 7C7 6.80109 7.07902 6.61032 7.21967 6.46967C7.36032 6.32902 7.55109 6.25 7.75 6.25H13.75C13.9489 6.25 14.1397 6.32902 14.2803 6.46967C14.421 6.61032 14.5 6.80109 14.5 7C14.5 7.19891 14.421 7.38968 14.2803 7.53033C14.1397 7.67098 13.9489 7.75 13.75 7.75H7.75C7.55109 7.75 7.36032 7.67098 7.21967 7.53033C7.07902 7.38968 7 7.19891 7 7ZM7 15C7 14.8011 7.07902 14.6103 7.21967 14.4697C7.36032 14.329 7.55109 14.25 7.75 14.25H10.75C10.9489 14.25 11.1397 14.329 11.2803 14.4697C11.421 14.6103 11.5 14.8011 11.5 15C11.5 15.1989 11.421 15.3897 11.2803 15.5303C11.1397 15.671 10.9489 15.75 10.75 15.75H7.75C7.55109 15.75 7.36032 15.671 7.21967 15.5303C7.07902 15.3897 7 15.1989 7 15Z" fill="black"/>
<path id="Vector_2" opacity="0.5" fill-rule="evenodd" clip-rule="evenodd" d="M0.75 2.25C0.948912 2.25 1.13968 2.32902 1.28033 2.46967C1.42098 2.61032 1.5 2.80109 1.5 3V17C1.5 17.1989 1.42098 17.3897 1.28033 17.5303C1.13968 17.671 0.948912 17.75 0.75 17.75C0.551088 17.75 0.360322 17.671 0.21967 17.5303C0.0790177 17.3897 2.96403e-09 17.1989 0 17V3C0 2.80109 0.0790177 2.61032 0.21967 2.46967C0.360322 2.32902 0.551088 2.25 0.75 2.25ZM20.75 2.25C20.9489 2.25 21.1397 2.32902 21.2803 2.46967C21.421 2.61032 21.5 2.80109 21.5 3V17C21.5 17.1989 21.421 17.3897 21.2803 17.5303C21.1397 17.671 20.9489 17.75 20.75 17.75C20.5511 17.75 20.3603 17.671 20.2197 17.5303C20.079 17.3897 20 17.1989 20 17V3C20 2.80109 20.079 2.61032 20.2197 2.46967C20.3603 2.32902 20.5511 2.25 20.75 2.25Z" fill="black"/>
</g>
</svg>
