<svg width="24" height="24" viewBox="0 0 24 24" fill="none" xmlns="http://www.w3.org/2000/svg">
<g id="solar:calendar-date-bold-duotone">
<path id="Vector" d="M6.96 2C7.378 2 7.716 2.31 7.716 2.692V4.09C8.386 4.078 9.138 4.078 9.984 4.078H14.016C14.862 4.078 15.613 4.078 16.284 4.09V2.692C16.284 2.31 16.622 2 17.04 2C17.458 2 17.796 2.31 17.796 2.692V4.15C19.246 4.256 20.199 4.518 20.899 5.158C21.599 5.799 21.884 6.671 22 8V9H2V8C2.116 6.671 2.401 5.8 3.101 5.158C3.801 4.518 4.753 4.256 6.204 4.15V2.692C6.204 2.31 6.543 2 6.96 2Z" fill="black"/>
<path id="Vector_2" opacity="0.5" d="M21.9998 14V12C21.9998 11.161 21.9868 9.665 21.9738 9H2.00578C1.99278 9.665 2.00578 11.161 2.00578 12V14C2.00578 17.771 2.00578 19.657 3.17578 20.828C4.34878 22 6.23378 22 10.0038 22H14.0038C17.7738 22 19.6578 22 20.8298 20.828C21.9998 19.657 21.9998 17.771 21.9998 14Z" fill="black"/>
<path id="Vector_3" fill-rule="evenodd" clip-rule="evenodd" d="M14 12.25C13.5359 12.25 13.0908 12.4344 12.7626 12.7626C12.4344 13.0908 12.25 13.5359 12.25 14V16C12.25 16.4641 12.4344 16.9092 12.7626 17.2374C13.0908 17.5656 13.5359 17.75 14 17.75C14.4641 17.75 14.9092 17.5656 15.2374 17.2374C15.5656 16.9092 15.75 16.4641 15.75 16V14C15.75 13.5359 15.5656 13.0908 15.2374 12.7626C14.9092 12.4344 14.4641 12.25 14 12.25ZM14 13.75C13.9337 13.75 13.8701 13.7763 13.8232 13.8232C13.7763 13.8701 13.75 13.9337 13.75 14V16C13.75 16.0663 13.7763 16.1299 13.8232 16.1768C13.8701 16.2237 13.9337 16.25 14 16.25C14.0663 16.25 14.1299 16.2237 14.1768 16.1768C14.2237 16.1299 14.25 16.0663 14.25 16V14C14.25 13.9337 14.2237 13.8701 14.1768 13.8232C14.1299 13.7763 14.0663 13.75 14 13.75Z" fill="black"/>
<path id="Vector_4" d="M11.2498 13.0003C11.2497 12.8521 11.2057 12.7072 11.1232 12.584C11.0408 12.4608 10.9237 12.3647 10.7868 12.308C10.6498 12.2513 10.4991 12.2365 10.3537 12.2654C10.2083 12.2942 10.0747 12.3656 9.96985 12.4703L8.46985 13.9703C8.33737 14.1125 8.26524 14.3005 8.26867 14.4948C8.2721 14.6891 8.35081 14.8745 8.48823 15.0119C8.62564 15.1494 8.81102 15.2281 9.00532 15.2315C9.19963 15.2349 9.38767 15.1628 9.52985 15.0303L9.74985 14.8103V17.0003C9.74985 17.1992 9.82886 17.39 9.96952 17.5306C10.1102 17.6713 10.3009 17.7503 10.4998 17.7503C10.6988 17.7503 10.8895 17.6713 11.0302 17.5306C11.1708 17.39 11.2498 17.1992 11.2498 17.0003V13.0003Z" fill="black"/>
</g>
</svg>
