<svg width="24" height="24" viewBox="0 0 24 24" fill="none" xmlns="http://www.w3.org/2000/svg">
<g id="solar:plate-bold-duotone">
<path id="Vector" opacity="0.5" d="M1 12C1 8.25 1 6.375 1.955 5.061C2.26306 4.63667 2.63595 4.26344 3.06 3.955C4.375 3 6.251 3 10 3H14C17.75 3 19.625 3 20.939 3.955C21.3634 4.26336 21.7366 4.6366 22.045 5.061C23 6.375 23 8.251 23 12C23 15.75 23 17.625 22.045 18.939C21.7366 19.3634 21.3634 19.7366 20.939 20.045C19.625 21 17.749 21 14 21H10C6.25 21 4.375 21 3.061 20.045C2.6366 19.7366 2.26336 19.3634 1.955 18.939C1 17.625 1 15.749 1 12Z" fill="#12518B"/>
<path id="Vector_2" d="M12.75 3C12.75 2.80109 12.671 2.61032 12.5303 2.46967C12.3897 2.32902 12.1989 2.25 12 2.25C11.8011 2.25 11.6103 2.32902 11.4697 2.46967C11.329 2.61032 11.25 2.80109 11.25 3V5C11.25 5.19891 11.329 5.38968 11.4697 5.53033C11.6103 5.67098 11.8011 5.75 12 5.75C12.1989 5.75 12.3897 5.67098 12.5303 5.53033C12.671 5.38968 12.75 5.19891 12.75 5V3ZM8 9.75C7.80109 9.75 7.61032 9.82902 7.46967 9.96967C7.32902 10.1103 7.25 10.3011 7.25 10.5C7.25 10.6989 7.32902 10.8897 7.46967 11.0303C7.61032 11.171 7.80109 11.25 8 11.25H16C16.1989 11.25 16.3897 11.171 16.5303 11.0303C16.671 10.8897 16.75 10.6989 16.75 10.5C16.75 10.3011 16.671 10.1103 16.5303 9.96967C16.3897 9.82902 16.1989 9.75 16 9.75H8ZM8 13.25C7.80109 13.25 7.61032 13.329 7.46967 13.4697C7.32902 13.6103 7.25 13.8011 7.25 14C7.25 14.1989 7.32902 14.3897 7.46967 14.5303C7.61032 14.671 7.80109 14.75 8 14.75H13.5C13.6989 14.75 13.8897 14.671 14.0303 14.5303C14.171 14.3897 14.25 14.1989 14.25 14C14.25 13.8011 14.171 13.6103 14.0303 13.4697C13.8897 13.329 13.6989 13.25 13.5 13.25H8Z" fill="#12518B"/>
</g>
</svg>
