<svg width="24" height="24" viewBox="0 0 24 24" fill="none" xmlns="http://www.w3.org/2000/svg">
<g id="solar:widget-5-bold-duotone">
<path id="Vector" opacity="0.5" d="M13 15.4C13 13.326 13 12.289 13.659 11.644C14.318 11 15.379 11 17.5 11C19.621 11 20.682 11 21.341 11.644C22 12.29 22 13.326 22 15.4V17.6C22 19.674 22 20.711 21.341 21.356C20.682 22 19.621 22 17.5 22C15.379 22 14.318 22 13.659 21.356C13 20.71 13 19.674 13 17.6V15.4Z" fill="black"/>
<path id="Vector_2" d="M2 8.6C2 10.674 2 11.711 2.659 12.356C3.318 13 4.379 13 6.5 13C8.621 13 9.682 13 10.341 12.356C11 11.71 11 10.674 11 8.6V6.4C11 4.326 11 3.289 10.341 2.644C9.682 2 8.621 2 6.5 2C4.379 2 3.318 2 2.659 2.644C2 3.29 2 4.326 2 6.4V8.6ZM13 5.5C13 4.413 13 3.87 13.171 3.44C13.3937 2.87455 13.8318 2.42064 14.389 2.178C14.802 2 15.327 2 16.375 2H18.625C19.673 2 20.198 2 20.611 2.178C21.162 2.414 21.601 2.868 21.829 3.44C22 3.87 22 4.413 22 5.5C22 6.587 22 7.13 21.829 7.56C21.6063 8.12545 21.1682 8.57936 20.611 8.822C20.198 9 19.673 9 18.625 9H16.375C15.327 9 14.802 9 14.389 8.822C13.8318 8.57936 13.3937 8.12545 13.171 7.56C13 7.13 13 6.587 13 5.5Z" fill="black"/>
<path id="Vector_3" opacity="0.5" d="M2 18.5C2 19.587 2 20.13 2.171 20.56C2.39372 21.1255 2.8318 21.5794 3.389 21.822C3.802 22 4.327 22 5.375 22H7.625C8.673 22 9.198 22 9.611 21.822C10.162 21.586 10.601 21.132 10.829 20.56C11 20.13 11 19.587 11 18.5C11 17.413 11 16.87 10.829 16.44C10.6063 15.8745 10.1682 15.4206 9.611 15.178C9.198 15 8.673 15 7.625 15H5.375C4.327 15 3.802 15 3.389 15.178C2.838 15.414 2.399 15.868 2.171 16.44C2 16.87 2 17.413 2 18.5Z" fill="black"/>
</g>
</svg>
