<svg width="24" height="24" viewBox="0 0 24 24" fill="none" xmlns="http://www.w3.org/2000/svg">
<g id="solar:clapperboard-play-bold-duotone">
<path id="Vector" opacity="0.5" fill-rule="evenodd" clip-rule="evenodd" d="M2 12C2 10.763 2 9.689 2.026 8.75H21.974C22 9.689 22 10.763 22 12C22 16.714 22 19.071 20.535 20.535C19.072 22 16.714 22 12 22C7.286 22 4.929 22 3.464 20.535C2 19.072 2 16.714 2 12Z" fill="black"/>
<path id="Vector_2" d="M14.9995 14.5C14.9995 13.867 14.3375 13.44 13.0135 12.585C11.6715 11.719 11.0005 11.286 10.4995 11.605C9.99952 11.922 9.99952 12.781 9.99952 14.5C9.99952 16.219 9.99952 17.078 10.4995 17.396C10.9995 17.714 11.6715 17.281 13.0135 16.415C14.3375 15.56 14.9995 15.133 14.9995 14.5ZM11.9995 2C13.8445 2 15.3295 2 16.5395 2.088L13.0975 7.25H8.40052L11.9005 2H11.9995ZM3.46352 3.464C4.71652 2.212 6.62152 2.031 10.0945 2.004L6.59852 7.25H2.10352C2.25052 5.486 2.60652 4.322 3.46352 3.464ZM21.8955 7.25C21.7475 5.486 21.3925 4.322 20.5355 3.464C19.9375 2.867 19.1915 2.514 18.1975 2.304L14.9005 7.25H21.8955Z" fill="black"/>
</g>
</svg>
