<svg width="24" height="24" viewBox="0 0 24 24" fill="none" xmlns="http://www.w3.org/2000/svg">
<g id="solar:library-bold-duotone">
<path id="Vector" fill-rule="evenodd" clip-rule="evenodd" d="M8.67233 7.54199H15.3283C18.7023 7.54199 20.3903 7.54199 21.3383 8.52899C22.2853 9.51599 22.0623 11.04 21.6163 14.089L21.1943 16.981C20.8443 19.372 20.6693 20.568 19.7723 21.284C18.8753 22 17.5523 22 14.9053 22H9.09533C6.44933 22 5.12533 22 4.22833 21.284C3.33133 20.568 3.15633 19.372 2.80633 16.981L2.38433 14.089C1.93733 11.04 1.71433 9.51599 2.66233 8.52899C3.61033 7.54199 5.29833 7.54199 8.67233 7.54199ZM8.00033 18C8.00033 17.586 8.37333 17.25 8.83333 17.25H15.1673C15.6273 17.25 16.0003 17.586 16.0003 18C16.0003 18.414 15.6273 18.75 15.1673 18.75H8.83333C8.37333 18.75 8.00033 18.414 8.00033 18Z" fill="black"/>
<path id="Vector_2" opacity="0.4" d="M8.50995 2H15.4899C15.7229 2 15.8999 2 16.0569 2.015C17.1649 2.124 18.0709 2.79 18.4559 3.687H5.54395C5.92895 2.79 6.83594 2.124 7.94394 2.015C8.09894 2 8.27795 2 8.50995 2Z" fill="black"/>
<path id="Vector_3" opacity="0.7" d="M6.30998 4.72266C4.91998 4.72266 3.77998 5.56266 3.39998 6.67566C3.39165 6.69888 3.38365 6.72221 3.37598 6.74566C3.77905 6.62783 4.19109 6.54321 4.60798 6.49266C5.68798 6.35466 7.05398 6.35466 8.63998 6.35466H15.532C17.118 6.35466 18.484 6.35466 19.564 6.49266C19.984 6.54666 20.398 6.62566 20.796 6.74566C20.7886 6.72222 20.7809 6.69889 20.773 6.67566C20.393 5.56166 19.253 4.72266 17.862 4.72266H6.30998Z" fill="black"/>
</g>
</svg>
