<svg width="24" height="24" viewBox="0 0 24 24" fill="none" xmlns="http://www.w3.org/2000/svg">
<g id="solar:sort-from-bottom-to-top-bold-duotone">
<path id="Vector" fill-rule="evenodd" clip-rule="evenodd" d="M17 20.75C17.1989 20.75 17.3897 20.671 17.5303 20.5303C17.671 20.3897 17.75 20.1989 17.75 20V6.25L19.4 8.45C19.4591 8.52879 19.5331 8.59518 19.6179 8.64536C19.7026 8.69554 19.7964 8.72853 19.8939 8.74246C19.9914 8.75639 20.0907 8.75098 20.1861 8.72653C20.2815 8.70209 20.3712 8.6591 20.45 8.6C20.5288 8.54091 20.5952 8.46687 20.6454 8.38212C20.6955 8.29737 20.7285 8.20357 20.7425 8.10607C20.7564 8.00856 20.751 7.90927 20.7265 7.81386C20.7021 7.71845 20.6591 7.62879 20.6 7.55L17.6 3.55C17.5056 3.42407 17.3739 3.33105 17.2236 3.28411C17.0734 3.23718 16.9122 3.23871 16.7628 3.28849C16.6135 3.33827 16.4836 3.43377 16.3916 3.56147C16.2995 3.68917 16.25 3.84259 16.25 4V20C16.25 20.414 16.586 20.75 17 20.75Z" fill="#12518B"/>
<path id="Vector_2" d="M3.25 8C3.25 8.414 3.586 8.75 4 8.75H13C13.1989 8.75 13.3897 8.67098 13.5303 8.53033C13.671 8.38968 13.75 8.19891 13.75 8C13.75 7.80109 13.671 7.61032 13.5303 7.46967C13.3897 7.32902 13.1989 7.25 13 7.25H4C3.80109 7.25 3.61032 7.32902 3.46967 7.46967C3.32902 7.61032 3.25 7.80109 3.25 8Z" fill="#12518B"/>
<path id="Vector_3" opacity="0.7" d="M5.25 13C5.25 13.414 5.586 13.75 6 13.75H13C13.1989 13.75 13.3897 13.671 13.5303 13.5303C13.671 13.3897 13.75 13.1989 13.75 13C13.75 12.8011 13.671 12.6103 13.5303 12.4697C13.3897 12.329 13.1989 12.25 13 12.25H6C5.80109 12.25 5.61032 12.329 5.46967 12.4697C5.32902 12.6103 5.25 12.8011 5.25 13Z" fill="#12518B"/>
<path id="Vector_4" opacity="0.4" d="M7.25 18C7.25 18.414 7.586 18.75 8 18.75H13C13.1989 18.75 13.3897 18.671 13.5303 18.5303C13.671 18.3897 13.75 18.1989 13.75 18C13.75 17.8011 13.671 17.6103 13.5303 17.4697C13.3897 17.329 13.1989 17.25 13 17.25H8C7.80109 17.25 7.61032 17.329 7.46967 17.4697C7.32902 17.6103 7.25 17.8011 7.25 18Z" fill="#12518B"/>
</g>
</svg>
