<svg width="24" height="24" viewBox="0 0 24 24" fill="none" xmlns="http://www.w3.org/2000/svg">
<g id="solar:gallery-wide-bold-duotone">
<path id="Vector" d="M18.5117 10.0773C18.5117 10.8153 17.8867 11.4143 17.1157 11.4143C16.3457 11.4143 15.7207 10.8153 15.7207 10.0773C15.7207 9.33826 16.3457 8.73926 17.1157 8.73926C17.8857 8.73926 18.5117 9.33826 18.5117 10.0773Z" fill="black"/>
<path id="Vector_2" fill-rule="evenodd" clip-rule="evenodd" d="M18.036 5.53166C16.976 5.39466 15.622 5.39466 13.913 5.39566H10.087C8.377 5.39566 7.023 5.39566 5.964 5.53166C4.874 5.67166 3.99 5.96866 3.294 6.63566C2.598 7.30266 2.29 8.14866 2.142 9.19466C2 10.2097 2 11.5077 2 13.1467V13.2467C2 14.8867 2 16.1837 2.142 17.1997C2.289 18.2457 2.598 19.0917 3.294 19.7587C3.99 20.4257 4.874 20.7217 5.964 20.8627C7.024 20.9987 8.378 20.9987 10.087 20.9987H13.913C15.623 20.9987 16.977 20.9987 18.036 20.8627C19.126 20.7227 20.01 20.4257 20.706 19.7587C21.402 19.0917 21.711 18.2447 21.858 17.1997C22 16.1837 22 14.8857 22 13.2477V13.1477C22 11.5077 22 10.2107 21.858 9.19466C21.711 8.14866 21.402 7.30266 20.706 6.63566C20.01 5.96866 19.126 5.67266 18.036 5.53166ZM6.15 6.85766C5.214 6.97766 4.675 7.20366 4.28 7.58166C3.887 7.95866 3.651 8.47566 3.525 9.37266C3.425 10.0927 3.402 10.9917 3.397 12.1677L3.867 11.7727C4.992 10.8307 6.686 10.8847 7.742 11.8967L11.732 15.7217C11.9297 15.9081 12.1849 16.0219 12.4558 16.0445C12.7267 16.067 12.9972 15.9969 13.223 15.8457L13.501 15.6587C14.1531 15.2226 14.9297 15.011 15.7129 15.0561C16.4961 15.1013 17.2433 15.4006 17.841 15.9087L20.248 17.9857C20.346 17.7217 20.421 17.4067 20.475 17.0217C20.603 16.1057 20.605 14.8977 20.605 13.1977C20.605 11.4977 20.603 10.2887 20.475 9.37266C20.349 8.47566 20.113 7.95866 19.719 7.58166C19.326 7.20366 18.786 6.97766 17.85 6.85766C16.894 6.73366 15.634 6.73266 13.86 6.73266H10.14C8.366 6.73266 7.106 6.73366 6.15 6.85766Z" fill="black"/>
<path id="Vector_3" opacity="0.5" d="M17.0871 2.61C16.2271 2.5 15.1321 2.5 13.7671 2.5H10.6771C9.31309 2.5 8.21809 2.5 7.35909 2.61C6.46909 2.725 5.72609 2.968 5.13709 3.53C4.81202 3.84202 4.56413 4.22549 4.41309 4.65C4.91709 4.42 5.48709 4.284 6.12709 4.2C7.21209 4.06 8.59709 4.06 10.3471 4.06H14.2621C16.0111 4.06 17.3961 4.06 18.4811 4.2C19.0401 4.273 19.5451 4.386 20.0011 4.566C19.8485 4.1745 19.6119 3.82121 19.3081 3.531C18.7191 2.968 17.9771 2.725 17.0871 2.611V2.61Z" fill="black"/>
</g>
</svg>
