<svg width="24" height="24" viewBox="0 0 24 24" fill="none" xmlns="http://www.w3.org/2000/svg">
<g id="solar:widget-4-bold-duotone">
<path id="Vector" opacity="0.5" d="M2 6.21C2 4.226 2 3.233 2.659 2.617C3.318 2 4.379 2 6.5 2C8.621 2 9.682 2 10.341 2.617C11 3.233 11 4.226 11 6.21V17.79C11 19.774 11 20.767 10.341 21.383C9.682 22 8.621 22 6.5 22C4.379 22 3.318 22 2.659 21.383C2 20.767 2 19.774 2 17.79V6.21Z" fill="black"/>
<path id="Vector_2" d="M13 15.4C13 13.326 13 12.289 13.659 11.644C14.318 11 15.379 11 17.5 11C19.621 11 20.682 11 21.341 11.644C22 12.29 22 13.326 22 15.4V17.6C22 19.674 22 20.711 21.341 21.356C20.682 22 19.621 22 17.5 22C15.379 22 14.318 22 13.659 21.356C13 20.71 13 19.674 13 17.6V15.4ZM13 5.5C13 4.413 13 3.87 13.171 3.44C13.3937 2.87455 13.8318 2.42064 14.389 2.178C14.802 2 15.327 2 16.375 2H18.625C19.673 2 20.198 2 20.611 2.178C21.162 2.414 21.601 2.868 21.829 3.44C22 3.87 22 4.413 22 5.5C22 6.587 22 7.13 21.829 7.56C21.6063 8.12545 21.1682 8.57936 20.611 8.822C20.198 9 19.673 9 18.625 9H16.375C15.327 9 14.802 9 14.389 8.822C13.8318 8.57936 13.3937 8.12545 13.171 7.56C13 7.13 13 6.587 13 5.5Z" fill="black"/>
</g>
</svg>
