<svg width="24" height="24" viewBox="0 0 24 24" fill="none" xmlns="http://www.w3.org/2000/svg">
<g id="solar:case-round-minimalistic-bold-duotone">
<path id="Vector" fill-rule="evenodd" clip-rule="evenodd" d="M9.87808 4.24976C10.0334 3.81106 10.3208 3.43128 10.7008 3.16267C11.0808 2.89406 11.5347 2.74983 12.0001 2.74983C12.4654 2.74983 12.9194 2.89406 13.2994 3.16267C13.6794 3.43128 13.9668 3.81106 14.1221 4.24976C14.1537 4.34412 14.2038 4.43124 14.2695 4.50605C14.3351 4.58085 14.415 4.64184 14.5044 4.68546C14.5939 4.72908 14.6912 4.75447 14.7905 4.76013C14.8899 4.76579 14.9894 4.75162 15.0832 4.71844C15.177 4.68526 15.2633 4.63373 15.337 4.56687C15.4108 4.5 15.4704 4.41914 15.5126 4.32898C15.5547 4.23882 15.5785 4.14117 15.5826 4.04173C15.5866 3.94228 15.5708 3.84303 15.5361 3.74976C15.2775 3.01842 14.7986 2.38522 14.1652 1.93736C13.5319 1.48951 12.7753 1.24902 11.9996 1.24902C11.2239 1.24902 10.4673 1.48951 9.83391 1.93736C9.20056 2.38522 8.72163 3.01842 8.46308 3.74976C8.43025 3.84267 8.41604 3.94113 8.42126 4.03953C8.42649 4.13794 8.45104 4.23435 8.49352 4.32326C8.53601 4.41217 8.59559 4.49184 8.66886 4.55773C8.74213 4.62362 8.82767 4.67443 8.92058 4.70726C9.10822 4.77356 9.31451 4.76261 9.49408 4.67681C9.67365 4.59101 9.81177 4.4374 9.87808 4.24976ZM2.74808 8.08976C2.69566 8.05588 2.63923 8.02867 2.58008 8.00876C2.73308 7.69076 2.92708 7.41476 3.17108 7.17076C4.34308 5.99976 6.23008 5.99976 10.0001 5.99976H14.0001C17.7711 5.99976 19.6571 5.99976 20.8281 7.17176C21.0721 7.41502 21.2723 7.6985 21.4201 8.00976C21.3613 8.02978 21.3052 8.05698 21.2531 8.09076C19.1531 9.45576 17.8331 10.3108 16.7361 10.8578C16.7003 10.6751 16.5978 10.5122 16.4486 10.4009C16.2994 10.2895 16.1141 10.2377 15.9287 10.2554C15.7434 10.2731 15.5713 10.3591 15.4458 10.4967C15.3204 10.6343 15.2506 10.8136 15.2501 10.9998V11.4578C13.1301 12.0978 10.8701 12.0978 8.75008 11.4578V10.9998C8.75083 10.8127 8.68162 10.6321 8.55606 10.4934C8.43049 10.3547 8.25762 10.2679 8.07138 10.2502C7.88514 10.2324 7.69898 10.2848 7.54943 10.3972C7.39989 10.5097 7.29775 10.6739 7.26308 10.8578C6.16708 10.3098 4.84808 9.45576 2.74808 8.08976Z" fill="black"/>
<path id="Vector_2" opacity="0.5" d="M2 14C2 12.05 2 10.603 2.162 9.5C4.439 10.98 5.898 11.923 7.25 12.504V13C7.24788 13.1989 7.32486 13.3905 7.46401 13.5327C7.60317 13.6748 7.79309 13.7559 7.992 13.758C8.19091 13.7601 8.38252 13.6831 8.52467 13.544C8.66683 13.4048 8.74788 13.2149 8.75 13.016C10.88 13.578 13.12 13.578 15.25 13.016C15.2521 13.2149 15.3332 13.4048 15.4753 13.544C15.6175 13.6831 15.8091 13.7601 16.008 13.758C16.2069 13.7559 16.3968 13.6748 16.536 13.5327C16.6751 13.3905 16.7521 13.1989 16.75 13V12.505C18.102 11.923 19.561 10.98 21.838 9.5C22 10.604 22 12.05 22 14C22 17.771 22 19.657 20.828 20.828C19.657 22 17.771 22 14 22H10C6.229 22 4.343 22 3.172 20.828C2 19.657 2 17.771 2 14Z" fill="black"/>
</g>
</svg>
