<svg width="24" height="24" viewBox="0 0 24 24" fill="none" xmlns="http://www.w3.org/2000/svg">
<g id="solar:clipboard-text-bold-duotone">
<path id="Vector" opacity="0.5" d="M21 15.998V9.998C21 7.17 21 5.756 20.121 4.877C19.353 4.109 18.175 4.012 16 4H8C5.825 4.012 4.647 4.109 3.879 4.877C3 5.756 3 7.17 3 9.998V15.998C3 18.827 3 20.241 3.879 21.12C4.757 21.998 6.172 21.998 9 21.998H15C17.828 21.998 19.243 21.998 20.121 21.12C21 20.24 21 18.827 21 15.998Z" fill="black"/>
<path id="Vector_2" d="M8 3.5C8 3.10218 8.15804 2.72064 8.43934 2.43934C8.72064 2.15804 9.10218 2 9.5 2H14.5C14.8978 2 15.2794 2.15804 15.5607 2.43934C15.842 2.72064 16 3.10218 16 3.5V4.5C16 4.89782 15.842 5.27936 15.5607 5.56066C15.2794 5.84196 14.8978 6 14.5 6H9.5C9.10218 6 8.72064 5.84196 8.43934 5.56066C8.15804 5.27936 8 4.89782 8 4.5V3.5Z" fill="black"/>
<path id="Vector_3" fill-rule="evenodd" clip-rule="evenodd" d="M6.25 14.5C6.25 14.3011 6.32902 14.1103 6.46967 13.9697C6.61032 13.829 6.80109 13.75 7 13.75H15C15.1989 13.75 15.3897 13.829 15.5303 13.9697C15.671 14.1103 15.75 14.3011 15.75 14.5C15.75 14.6989 15.671 14.8897 15.5303 15.0303C15.3897 15.171 15.1989 15.25 15 15.25H7C6.80109 15.25 6.61032 15.171 6.46967 15.0303C6.32902 14.8897 6.25 14.6989 6.25 14.5ZM6.25 18C6.25 17.8011 6.32902 17.6103 6.46967 17.4697C6.61032 17.329 6.80109 17.25 7 17.25H12.5C12.6989 17.25 12.8897 17.329 13.0303 17.4697C13.171 17.6103 13.25 17.8011 13.25 18C13.25 18.1989 13.171 18.3897 13.0303 18.5303C12.8897 18.671 12.6989 18.75 12.5 18.75H7C6.80109 18.75 6.61032 18.671 6.46967 18.5303C6.32902 18.3897 6.25 18.1989 6.25 18Z" fill="black"/>
</g>
</svg>
