<svg width="20" height="18" viewBox="0 0 20 18" fill="none" xmlns="http://www.w3.org/2000/svg">
<g id="Group">
<path id="Vector" d="M12.2169 0.500451C11.5241 0.171589 10.7668 0.000976563 9.99993 0.000976562C9.23303 0.000976563 8.47574 0.171589 7.78293 0.500451L1.09193 3.63745C0.0159318 4.14145 -0.265068 5.56445 0.249932 6.54745V11.5005C0.249932 11.6994 0.328949 11.8901 0.469602 12.0308C0.610254 12.1714 0.801019 12.2505 0.999932 12.2505C1.19884 12.2505 1.38961 12.1714 1.53026 12.0308C1.67091 11.8901 1.74993 11.6994 1.74993 11.5005V7.67245L7.78293 10.5005C8.47574 10.8293 9.23303 10.9999 9.99993 10.9999C10.7668 10.9999 11.5241 10.8293 12.2169 10.5005L18.9079 7.36345C20.3639 6.68145 20.3639 4.31945 18.9079 3.63745L12.2179 0.500451H12.2169Z" fill="#6D6E73"/>
<path id="Vector_2" opacity="0.5" d="M3 8.25879L7.783 10.5008C8.47581 10.8297 9.2331 11.0003 10 11.0003C10.7669 11.0003 11.5242 10.8297 12.217 10.5008L17 8.25879V13.6258C17 14.6338 16.497 15.5778 15.615 16.0658C14.146 16.8808 11.796 18.0008 10 18.0008C8.204 18.0008 5.854 16.8798 4.385 16.0658C3.504 15.5778 3 14.6338 3 13.6258V8.25879Z" fill="#6D6E73"/>
</g>
</svg>
