<svg width="20" height="20" viewBox="0 0 20 20" fill="none" xmlns="http://www.w3.org/2000/svg">
<g id="Group">
<path id="Vector" opacity="0.5" d="M1.464 18.535C0 17.072 0 14.714 0 10C0 5.286 0 2.929 1.464 1.464C2.93 0 5.286 0 10 0C14.714 0 17.071 0 18.535 1.464C20 2.93 20 5.286 20 10C20 14.714 20 17.071 18.535 18.535C17.072 20 14.714 20 10 20C5.286 20 2.929 20 1.464 18.535Z" fill="#6D6E73"/>
<path id="Vector_2" d="M12.0303 12.4702C12.104 12.5388 12.1631 12.6216 12.2041 12.7136C12.2451 12.8056 12.2671 12.9049 12.2689 13.0056C12.2707 13.1063 12.2522 13.2064 12.2144 13.2998C12.1767 13.3931 12.1206 13.478 12.0494 13.5492C11.9781 13.6204 11.8933 13.6766 11.7999 13.7143C11.7065 13.752 11.6065 13.7705 11.5058 13.7687C11.4051 13.767 11.3058 13.7449 11.2138 13.7039C11.1218 13.6629 11.039 13.6038 10.9703 13.5302L7.97032 10.5302C7.82987 10.3895 7.75098 10.1989 7.75098 10.0002C7.75098 9.8014 7.82987 9.61078 7.97032 9.47015L10.9703 6.47015C11.039 6.39647 11.1218 6.33736 11.2138 6.29637C11.3058 6.25538 11.4051 6.23334 11.5058 6.23156C11.6065 6.22979 11.7065 6.24831 11.7999 6.28603C11.8933 6.32375 11.9781 6.3799 12.0494 6.45112C12.1206 6.52233 12.1767 6.60717 12.2144 6.70056C12.2522 6.79394 12.2707 6.89397 12.2689 6.99468C12.2671 7.09538 12.2451 7.19469 12.2041 7.28669C12.1631 7.37869 12.104 7.46149 12.0303 7.53015L9.56032 10.0002L12.0303 12.4702Z" fill="#6D6E73"/>
</g>
</svg>
