<svg width="20" height="20" viewBox="0 0 20 20" fill="none" xmlns="http://www.w3.org/2000/svg">
<g id="Group">
<path id="Vector" opacity="0.5" d="M18.535 18.535C20 17.072 20 14.714 20 10C20 5.286 20 2.929 18.535 1.464C17.072 0 14.714 0 10 0C5.286 0 2.929 0 1.464 1.464C0 2.93 0 5.286 0 10C0 14.714 0 17.071 1.464 18.535C2.93 20 5.286 20 10 20C14.714 20 17.071 20 18.535 18.535Z" fill="#6D6E73"/>
<path id="Vector_2" d="M9.25457 9.44537C9.40176 9.5793 9.48972 9.76622 9.4991 9.96501C9.50848 10.1638 9.4385 10.3582 9.30457 10.5054C9.17063 10.6526 8.98371 10.7405 8.78492 10.7499C8.58614 10.7593 8.39176 10.6893 8.24457 10.5554L5.49457 8.05537C5.41723 7.98507 5.35544 7.89939 5.31315 7.80381C5.27087 7.70824 5.24902 7.60488 5.24902 7.50037C5.24902 7.39586 5.27087 7.2925 5.31315 7.19692C5.35544 7.10135 5.41723 7.01566 5.49457 6.94537L8.24457 4.44537C8.39176 4.31143 8.58614 4.24146 8.78492 4.25083C8.98371 4.26021 9.17063 4.34817 9.30457 4.49537C9.4385 4.64256 9.50848 4.83693 9.4991 5.03572C9.48972 5.23451 9.40176 5.42143 9.25457 5.55537L7.93957 6.75037H13.9996C14.1985 6.75037 14.3892 6.82939 14.5299 6.97004C14.6706 7.11069 14.7496 7.30146 14.7496 7.50037C14.7496 7.69928 14.6706 7.89004 14.5299 8.0307C14.3892 8.17135 14.1985 8.25037 13.9996 8.25037H7.93957L9.25457 9.44537Z" fill="#6D6E73"/>
<path id="Vector_3" d="M10.745 14.4454C10.6721 14.5117 10.613 14.5917 10.5711 14.6809C10.5291 14.77 10.5051 14.8666 10.5005 14.965C10.4958 15.0634 10.5106 15.1618 10.544 15.2545C10.5774 15.3473 10.6287 15.4325 10.695 15.5054C10.7613 15.5782 10.8413 15.6374 10.9305 15.6793C11.0197 15.7213 11.1162 15.7453 11.2146 15.7499C11.3131 15.7545 11.4115 15.7398 11.5042 15.7064C11.5969 15.673 11.6821 15.6217 11.755 15.5554L14.505 13.0554C14.5823 12.9851 14.6441 12.8994 14.6864 12.8038C14.7287 12.7082 14.7505 12.6049 14.7505 12.5004C14.7505 12.3959 14.7287 12.2925 14.6864 12.1969C14.6441 12.1013 14.5823 12.0157 14.505 11.9454L11.755 9.44537C11.6821 9.37905 11.5969 9.32774 11.5042 9.29436C11.4115 9.26098 11.3131 9.24619 11.2146 9.25083C11.1162 9.25548 11.0197 9.27946 10.9305 9.32142C10.8413 9.36338 10.7613 9.42248 10.695 9.49537C10.6287 9.56825 10.5774 9.65348 10.544 9.7462C10.5106 9.83891 10.4958 9.93729 10.5005 10.0357C10.5051 10.1342 10.5291 10.2307 10.5711 10.3199C10.613 10.409 10.6721 10.489 10.745 10.5554L12.06 11.7504H6C5.80109 11.7504 5.61032 11.8294 5.46967 11.97C5.32902 12.1107 5.25 12.3015 5.25 12.5004C5.25 12.6993 5.32902 12.89 5.46967 13.0307C5.61032 13.1713 5.80109 13.2504 6 13.2504H12.06L10.745 14.4454Z" fill="#6D6E73"/>
</g>
</svg>
