<svg width="22" height="22" viewBox="0 0 22 22" fill="none" xmlns="http://www.w3.org/2000/svg">
<g id="Group">
<path id="Vector" opacity="0.5" d="M1 11C1 16.523 5.477 21 11 21C11.648 21 12.25 20.7 12.708 20.242L20.242 12.708C20.7 12.25 21 11.648 21 11C21 5.477 16.523 1 11 1C5.477 1 1 5.477 1 11Z" stroke="#6D6E73" stroke-width="0.75" stroke-linejoin="round"/>
<path id="Vector_2" d="M11 16C9.885 16 8.85 15.63 8 15" stroke="#6D6E73" stroke-width="0.75" stroke-linecap="round"/>
<path id="Vector_3" d="M14 11C14.5523 11 15 10.3284 15 9.5C15 8.67157 14.5523 8 14 8C13.4477 8 13 8.67157 13 9.5C13 10.3284 13.4477 11 14 11Z" fill="#6D6E73"/>
<path id="Vector_4" d="M8 11C8.55228 11 9 10.3284 9 9.5C9 8.67157 8.55228 8 8 8C7.44772 8 7 8.67157 7 9.5C7 10.3284 7.44772 11 8 11Z" fill="#6D6E73"/>
<path id="Vector_5" d="M11 21C11 18.207 11 16.81 11.393 15.688C11.7403 14.6955 12.3068 13.7939 13.0504 13.0504C13.7939 12.3068 14.6955 11.7403 15.688 11.393C16.811 11 18.208 11 21 11" stroke="#6D6E73" stroke-width="0.75"/>
</g>
</svg>
