<svg width="22" height="22" viewBox="0 0 22 22" fill="none" xmlns="http://www.w3.org/2000/svg">
<g id="Group">
<path id="Vector" d="M17 11C17 12.5913 16.3679 14.1174 15.2426 15.2426C14.1174 16.3679 12.5913 17 11 17C9.4087 17 7.88258 16.3679 6.75736 15.2426C5.63214 14.1174 5 12.5913 5 11C5 9.4087 5.63214 7.88258 6.75736 6.75736C7.88258 5.63214 9.4087 5 11 5C12.5913 5 14.1174 5.63214 15.2426 6.75736C16.3679 7.88258 17 9.4087 17 11Z" fill="#6D6E73"/>
<path id="Vector_2" fill-rule="evenodd" clip-rule="evenodd" d="M11 0.25C11.1989 0.25 11.3897 0.329018 11.5303 0.46967C11.671 0.610322 11.75 0.801088 11.75 1V2C11.75 2.19891 11.671 2.38968 11.5303 2.53033C11.3897 2.67098 11.1989 2.75 11 2.75C10.8011 2.75 10.6103 2.67098 10.4697 2.53033C10.329 2.38968 10.25 2.19891 10.25 2V1C10.25 0.801088 10.329 0.610322 10.4697 0.46967C10.6103 0.329018 10.8011 0.25 11 0.25ZM0.25 11C0.25 10.8011 0.329018 10.6103 0.46967 10.4697C0.610322 10.329 0.801088 10.25 1 10.25H2C2.19891 10.25 2.38968 10.329 2.53033 10.4697C2.67098 10.6103 2.75 10.8011 2.75 11C2.75 11.1989 2.67098 11.3897 2.53033 11.5303C2.38968 11.671 2.19891 11.75 2 11.75H1C0.801088 11.75 0.610322 11.671 0.46967 11.5303C0.329018 11.3897 0.25 11.1989 0.25 11ZM19.25 11C19.25 10.8011 19.329 10.6103 19.4697 10.4697C19.6103 10.329 19.8011 10.25 20 10.25H21C21.1989 10.25 21.3897 10.329 21.5303 10.4697C21.671 10.6103 21.75 10.8011 21.75 11C21.75 11.1989 21.671 11.3897 21.5303 11.5303C21.3897 11.671 21.1989 11.75 21 11.75H20C19.8011 11.75 19.6103 11.671 19.4697 11.5303C19.329 11.3897 19.25 11.1989 19.25 11ZM11 19.25C11.1989 19.25 11.3897 19.329 11.5303 19.4697C11.671 19.6103 11.75 19.8011 11.75 20V21C11.75 21.1989 11.671 21.3897 11.5303 21.5303C11.3897 21.671 11.1989 21.75 11 21.75C10.8011 21.75 10.6103 21.671 10.4697 21.5303C10.329 21.3897 10.25 21.1989 10.25 21V20C10.25 19.8011 10.329 19.6103 10.4697 19.4697C10.6103 19.329 10.8011 19.25 11 19.25Z" fill="#6D6E73"/>
<path id="Vector_3" opacity="0.5" d="M3.39786 3.39757C3.46751 3.32788 3.55022 3.27259 3.64124 3.23487C3.73227 3.19715 3.82983 3.17773 3.92836 3.17773C4.0269 3.17773 4.12446 3.19715 4.21549 3.23487C4.30651 3.27259 4.38921 3.32788 4.45886 3.39757L4.85186 3.79057C4.98434 3.93275 5.05647 4.1208 5.05304 4.3151C5.04961 4.5094 4.9709 4.69478 4.83349 4.8322C4.69607 4.96961 4.51069 5.04832 4.31639 5.05175C4.12209 5.05518 3.93404 4.98305 3.79186 4.85057L3.39786 4.45857C3.25741 4.31795 3.17852 4.12732 3.17852 3.92857C3.17852 3.72982 3.25741 3.5392 3.39786 3.39857V3.39757ZM18.5999 3.39857C18.7403 3.5392 18.8192 3.72982 18.8192 3.92857C18.8192 4.12732 18.7403 4.31795 18.5999 4.45857L18.2079 4.85157C18.0657 4.98405 17.8776 5.05618 17.6833 5.05275C17.489 5.04932 17.3037 4.97061 17.1662 4.8332C17.0288 4.69578 16.9501 4.5104 16.9467 4.3161C16.9433 4.1218 17.0154 3.93375 17.1479 3.79157L17.5399 3.39857C17.6805 3.25812 17.8711 3.17923 18.0699 3.17923C18.2686 3.17923 18.4592 3.25812 18.5999 3.39857ZM17.1469 17.1466C17.2165 17.0769 17.2992 17.0216 17.3902 16.9839C17.4813 16.9462 17.5788 16.9267 17.6774 16.9267C17.7759 16.9267 17.8735 16.9462 17.9645 16.9839C18.0555 17.0216 18.1382 17.0769 18.2079 17.1466L18.6009 17.5396C18.7333 17.6818 18.8055 17.8698 18.802 18.0641C18.7986 18.2584 18.7199 18.4438 18.5825 18.5812C18.4451 18.7186 18.2597 18.7973 18.0654 18.8007C17.8711 18.8042 17.683 18.7321 17.5409 18.5996L17.1469 18.2076C17.0064 18.0669 16.9275 17.8763 16.9275 17.6776C16.9275 17.4788 17.0064 17.2882 17.1469 17.1476V17.1466ZM4.85186 17.1476C4.99232 17.2882 5.0712 17.4788 5.0712 17.6776C5.0712 17.8763 4.99232 18.0669 4.85186 18.2076L4.45886 18.6006C4.3902 18.6743 4.3074 18.7334 4.2154 18.7744C4.1234 18.8153 4.02409 18.8374 3.92339 18.8392C3.82268 18.8409 3.72265 18.8224 3.62927 18.7847C3.53588 18.747 3.45104 18.6908 3.37983 18.6196C3.30861 18.5484 3.25246 18.4636 3.21474 18.3702C3.17702 18.2768 3.1585 18.1768 3.16027 18.0761C3.16205 17.9753 3.18409 17.876 3.22508 17.784C3.26608 17.692 3.32518 17.6092 3.39886 17.5406L3.79086 17.1476C3.93149 17.0071 4.12211 16.9282 4.32086 16.9282C4.51962 16.9282 4.71024 17.0071 4.85086 17.1476H4.85186Z" fill="#6D6E73"/>
</g>
</svg>
