<svg width="20" height="20" viewBox="0 0 20 20" fill="none" xmlns="http://www.w3.org/2000/svg">
<g id="Group">
<path id="Vector" opacity="0.5" d="M15.9662 4.55787L14.1362 2.72787C12.5912 1.18287 11.8192 0.409866 10.8162 0.122866C9.81324 -0.165134 8.74825 0.0808662 6.61925 0.572866L5.39125 0.855866C3.59925 1.26887 2.70325 1.47587 2.08925 2.08887C1.47625 2.70287 1.26925 3.59887 0.856245 5.39087L0.572245 6.61887C0.0812454 8.74887 -0.164755 9.81287 0.122245 10.8159C0.410245 11.8189 1.18325 12.5909 2.72825 14.1359L4.55825 15.9659C7.24825 18.6569 8.59225 19.9999 10.2622 19.9999C11.9332 19.9999 13.2772 18.6549 15.9662 15.9659C18.6572 13.2769 20.0002 11.9329 20.0002 10.2619C20.0002 8.59187 18.6552 7.24687 15.9662 4.55787Z" fill="#6D6E73"/>
<path id="Vector_2" d="M9.14726 12.3281C8.47426 11.6561 8.48026 10.6901 8.88226 9.92507C8.78249 9.78096 8.73634 9.60646 8.75183 9.43188C8.76732 9.25729 8.84346 9.09364 8.96704 8.96935C9.09062 8.84506 9.25383 8.76797 9.42833 8.75148C9.60282 8.73499 9.77758 8.78013 9.92226 8.87907C10.2623 8.69907 10.6353 8.60307 11.0073 8.60707C11.2062 8.60893 11.3962 8.68972 11.5355 8.83169C11.6749 8.97365 11.7521 9.16516 11.7503 9.36407C11.7484 9.56298 11.6676 9.75301 11.5256 9.89235C11.3837 10.0317 11.1922 10.1089 10.9933 10.1071C10.7617 10.1156 10.5429 10.2152 10.3843 10.3841C9.99726 10.7711 10.0993 11.1591 10.2073 11.2681C10.3173 11.3771 10.7043 11.4781 11.0913 11.0911C11.8753 10.3071 13.2293 10.0471 14.0973 10.9141C14.7703 11.5871 14.7643 12.5531 14.3613 13.3181C14.4604 13.4622 14.506 13.6365 14.4903 13.8107C14.4745 13.9849 14.3983 14.1482 14.2749 14.2722C14.1515 14.3961 13.9886 14.4731 13.8145 14.4897C13.6403 14.5063 13.4659 14.4615 13.3213 14.3631C12.8725 14.6092 12.352 14.6912 11.8493 14.5951C11.7527 14.5752 11.6611 14.5366 11.5795 14.4813C11.4979 14.4261 11.428 14.3553 11.3738 14.273C11.3195 14.1907 11.282 14.0986 11.2634 14.0018C11.2448 13.9051 11.2454 13.8056 11.2653 13.7091C11.2851 13.6125 11.3237 13.5209 11.379 13.4393C11.4343 13.3577 11.505 13.2878 11.5873 13.2336C11.6696 13.1793 11.7617 13.1418 11.8585 13.1232C11.9553 13.1046 12.0547 13.1052 12.1513 13.1251C12.3283 13.1621 12.6143 13.1041 12.8593 12.8591C13.2473 12.4711 13.1453 12.0841 13.0363 11.9751C12.9273 11.8661 12.5403 11.7651 12.1523 12.1521C11.3683 12.9361 10.0143 13.1961 9.14726 12.3281ZM8.02126 8.29307C8.21228 8.10858 8.36464 7.88789 8.46946 7.64388C8.57428 7.39987 8.62945 7.13743 8.63176 6.87187C8.63407 6.60631 8.58346 6.34295 8.4829 6.09716C8.38234 5.85137 8.23383 5.62806 8.04605 5.44028C7.85826 5.25249 7.63496 5.10399 7.38917 5.00343C7.14338 4.90286 6.88002 4.85226 6.61446 4.85457C6.3489 4.85688 6.08646 4.91205 5.84245 5.01687C5.59844 5.12168 5.37775 5.27405 5.19326 5.46507C4.82894 5.84227 4.62735 6.34748 4.63191 6.87187C4.63647 7.39626 4.84681 7.89789 5.21762 8.26871C5.58844 8.63952 6.09006 8.84986 6.61446 8.85442C7.13885 8.85897 7.64406 8.65739 8.02126 8.29307Z" fill="#6D6E73"/>
</g>
</svg>
