<svg width="20" height="16" viewBox="0 0 20 16" fill="none" xmlns="http://www.w3.org/2000/svg">
<g id="Group">
<path id="Vector" d="M13.5 3.5C13.5 3.95963 13.4095 4.41475 13.2336 4.83939C13.0577 5.26403 12.7999 5.64987 12.4749 5.97487C12.1499 6.29988 11.764 6.55769 11.3394 6.73358C10.9148 6.90947 10.4596 7 10 7C9.54037 7 9.08525 6.90947 8.66061 6.73358C8.23597 6.55769 7.85013 6.29988 7.52513 5.97487C7.20012 5.64987 6.94231 5.26403 6.76642 4.83939C6.59053 4.41475 6.5 3.95963 6.5 3.5C6.5 2.57174 6.86875 1.6815 7.52513 1.02513C8.1815 0.368749 9.07174 0 10 0C10.9283 0 11.8185 0.368749 12.4749 1.02513C13.1313 1.6815 13.5 2.57174 13.5 3.5Z" fill="#6D6E73"/>
<path id="Vector_2" opacity="0.4" d="M17.5 3.5C17.5 4.16304 17.2366 4.79893 16.7678 5.26777C16.2989 5.73661 15.663 6 15 6C14.337 6 13.7011 5.73661 13.2322 5.26777C12.7634 4.79893 12.5 4.16304 12.5 3.5C12.5 2.83696 12.7634 2.20107 13.2322 1.73223C13.7011 1.26339 14.337 1 15 1C15.663 1 16.2989 1.26339 16.7678 1.73223C17.2366 2.20107 17.5 2.83696 17.5 3.5ZM2.5 3.5C2.5 4.16304 2.76339 4.79893 3.23223 5.26777C3.70107 5.73661 4.33696 6 5 6C5.66304 6 6.29893 5.73661 6.76777 5.26777C7.23661 4.79893 7.5 4.16304 7.5 3.5C7.5 2.83696 7.23661 2.20107 6.76777 1.73223C6.29893 1.26339 5.66304 1 5 1C4.33696 1 3.70107 1.26339 3.23223 1.73223C2.76339 2.20107 2.5 2.83696 2.5 3.5Z" fill="#6D6E73"/>
<path id="Vector_3" d="M16 12.5C16 14.433 13.314 16 10 16C6.686 16 4 14.433 4 12.5C4 10.567 6.686 9 10 9C13.314 9 16 10.567 16 12.5Z" fill="#6D6E73"/>
<path id="Vector_4" opacity="0.4" d="M20 12.5C20 13.88 18.21 15 16 15C13.79 15 12 13.88 12 12.5C12 11.12 13.79 10 16 10C18.21 10 20 11.12 20 12.5ZM0 12.5C0 13.88 1.79 15 4 15C6.21 15 8 13.88 8 12.5C8 11.12 6.21 10 4 10C1.79 10 0 11.12 0 12.5Z" fill="#6D6E73"/>
</g>
</svg>
