<svg width="26" height="22" viewBox="0 0 26 22" fill="none" xmlns="http://www.w3.org/2000/svg">
<g id="Group">
<path id="Vector" d="M24.9552 10.3472C24.6888 10.192 24.3859 10.1107 24.0776 10.1118C23.7694 10.1128 23.467 10.1961 23.2017 10.3531L20.0003 12.2209V18.5297L23.2017 20.3975C23.4776 20.5585 23.7803 20.639 24.0837 20.639C24.3898 20.6385 24.6903 20.5574 24.9552 20.4039C25.2233 20.2521 25.4461 20.0314 25.6006 19.7647C25.755 19.498 25.8355 19.1949 25.8337 18.8867V11.8657C25.8337 11.2316 25.5052 10.664 24.9552 10.3484V10.3472ZM16.8515 9.41742C17.4668 8.9569 17.9663 8.35932 18.3104 7.67208C18.6544 6.98485 18.8336 6.22689 18.8337 5.45833C18.8337 4.1433 18.3113 2.88213 17.3814 1.95226C16.4515 1.02239 15.1904 0.5 13.8753 0.5C12.5603 0.5 11.2991 1.02239 10.3693 1.95226C9.43939 2.88213 8.91699 4.1433 8.91699 5.45833C8.91653 6.18101 9.07444 6.895 9.37961 7.55008C9.68477 8.20516 10.1298 8.78541 10.6833 9.25H7.50941C7.95316 8.84165 8.30737 8.34568 8.54965 7.79344C8.79193 7.24121 8.91701 6.64471 8.91699 6.04167C8.91699 4.88134 8.45606 3.76855 7.63558 2.94807C6.81511 2.1276 5.70231 1.66667 4.54199 1.66667C3.38167 1.66667 2.26887 2.1276 1.4484 2.94807C0.627928 3.76855 0.166992 4.88134 0.166992 6.04167C0.166992 6.71378 0.322242 7.37682 0.620634 7.97906C0.919026 8.58131 1.3525 9.1065 1.88724 9.51367C0.875742 9.97217 0.166992 10.986 0.166992 12.1667V18.5833C0.166992 20.1916 1.47541 21.5 3.08366 21.5H15.917C17.5252 21.5 18.8337 20.1916 18.8337 18.5833V12.1667C18.8337 10.8868 18.0001 9.80942 16.8515 9.41742ZM2.79199 6.04167C2.79199 5.81185 2.83726 5.58429 2.9252 5.37197C3.01315 5.15965 3.14205 4.96673 3.30456 4.80423C3.46706 4.64173 3.65998 4.51282 3.8723 4.42488C4.08462 4.33693 4.31218 4.29167 4.54199 4.29167C4.77181 4.29167 4.99937 4.33693 5.21169 4.42488C5.42401 4.51282 5.61693 4.64173 5.77943 4.80423C5.94193 4.96673 6.07084 5.15965 6.15878 5.37197C6.24673 5.58429 6.29199 5.81185 6.29199 6.04167C6.29199 6.5058 6.10762 6.95091 5.77943 7.2791C5.45124 7.60729 5.00612 7.79167 4.54199 7.79167C4.07786 7.79167 3.63274 7.60729 3.30456 7.2791C2.97637 6.95091 2.79199 6.5058 2.79199 6.04167ZM6.00033 18.5833H3.66699C3.51228 18.5833 3.36391 18.5219 3.25451 18.4125C3.14512 18.3031 3.08366 18.1547 3.08366 18C3.08366 17.8453 3.14512 17.6969 3.25451 17.5875C3.36391 17.4781 3.51228 17.4167 3.66699 17.4167H6.00033C6.15504 17.4167 6.30341 17.4781 6.4128 17.5875C6.5222 17.6969 6.58366 17.8453 6.58366 18C6.58366 18.1547 6.5222 18.3031 6.4128 18.4125C6.30341 18.5219 6.15504 18.5833 6.00033 18.5833ZM13.8753 7.79167C13.2565 7.79167 12.663 7.54583 12.2254 7.10825C11.7878 6.67066 11.542 6.07717 11.542 5.45833C11.542 4.83949 11.7878 4.246 12.2254 3.80842C12.663 3.37083 13.2565 3.125 13.8753 3.125C14.4942 3.125 15.0877 3.37083 15.5252 3.80842C15.9628 4.246 16.2087 4.83949 16.2087 5.45833C16.2087 6.07717 15.9628 6.67066 15.5252 7.10825C15.0877 7.54583 14.4942 7.79167 13.8753 7.79167Z" fill="#A2C1DF"/>
</g>
</svg>
