<svg width="28" height="22" viewBox="0 0 28 22" fill="none" xmlns="http://www.w3.org/2000/svg">
<g id="Group">
<path id="Vector" d="M13.9418 10.0537L15.7798 8.9925L13.9418 7.93134L12.1038 8.9925L13.9418 10.0537ZM5.39377 11.0008C5.39377 8.13773 6.80334 5.59805 8.96465 4.03814C8.21767 4.281 7.48951 4.57829 6.78601 4.92763C4.56389 6.03227 2.59744 7.66173 1.09933 9.64006L0 11.0008L1.09933 12.3617C2.59744 14.34 4.56389 15.9695 6.78601 17.0741C7.48952 17.4234 8.21768 17.7207 8.96465 17.9636C6.80334 16.4036 5.39377 13.864 5.39377 11.0008ZM14.7621 11.4744V13.5968L16.6 12.5355V10.4133L14.7621 11.4744ZM21.1658 4.92763C20.4622 4.57826 19.7339 4.28095 18.9869 4.03809C21.1483 5.59799 22.5578 8.13773 22.5578 11.0008C22.5578 13.864 21.1482 16.4037 18.9869 17.9636C19.734 17.7208 20.4622 17.4234 21.1658 17.0741C23.3879 15.9694 25.3543 14.3399 26.8524 12.3616L28 11.0008L26.8524 9.64C25.3543 7.66179 23.3879 6.03227 21.1658 4.92763Z" fill="#A2C1DF"/>
<path id="Vector_2" d="M13.9756 17.9415C17.8031 17.9415 20.917 14.8275 20.917 11C20.917 7.1725 17.8031 4.05859 13.9756 4.05859C10.1481 4.05859 7.03418 7.1725 7.03418 11C7.03418 14.8275 10.1481 17.9415 13.9756 17.9415ZM9.64272 8.51809L13.9416 6.03609L18.2405 8.51809V13.482L13.9416 15.964L9.64272 13.482V8.51809Z" fill="#A2C1DF"/>
<path id="Vector_3" d="M13.1215 11.4741L11.2836 10.413V12.5352L13.1215 13.5964V11.4741ZM1.63729 2.25735H3.90075V0.620117H0V4.52087H1.63729V2.25735ZM1.63729 17.4801H0V21.3808H3.90075V19.7436H1.63729V17.4801ZM26.3627 19.7436H24.0993V21.3808H28V17.4801H26.3627V19.7436ZM24.0993 0.620117V2.25735H26.3627V4.52087H28V0.620117H24.0993Z" fill="#A2C1DF"/>
</g>
</svg>
