<svg width="20" height="16" viewBox="0 0 20 16" fill="none" xmlns="http://www.w3.org/2000/svg">
<g id="Group">
<path id="Vector" d="M0.00287868 7.71635C0.0398787 5.87335 0.0588787 4.95235 0.670879 4.16435C0.794727 4.00806 0.933003 3.86375 1.08388 3.73335C1.83588 3.09735 2.82988 3.09735 4.81688 3.09735C5.52688 3.09735 5.88188 3.09735 6.21988 3.00535C6.28988 2.98535 6.35988 2.96335 6.42888 2.93835C6.75888 2.81735 7.05588 2.60835 7.64888 2.19235C9.98688 0.547354 11.1569 -0.274646 12.1379 0.0823543C12.3259 0.151354 12.5079 0.250355 12.6709 0.372355C13.5189 1.00735 13.5839 2.48735 13.7129 5.44535C13.755 6.29647 13.7816 7.14827 13.7929 8.00035C13.7929 8.52135 13.7609 9.46035 13.7129 10.5554C13.5829 13.5134 13.5189 14.9934 12.6709 15.6284C12.5081 15.7502 12.3286 15.8479 12.1379 15.9184C11.1559 16.2754 9.98788 15.4534 7.64788 13.8084C7.05588 13.3924 6.75888 13.1834 6.42788 13.0624C6.35951 13.0371 6.29012 13.0148 6.21988 12.9954C5.88188 12.9034 5.52688 12.9034 4.81688 12.9034C2.82988 12.9034 1.83688 12.9034 1.08388 12.2674C0.932906 12.1374 0.794618 11.9934 0.670879 11.8374C0.0588787 11.0474 0.0408787 10.1274 0.00287868 8.28436C-0.000959561 8.09471 -0.000959561 7.906 0.00287868 7.71635Z" fill="#6D6E73"/>
<path id="Vector_2" opacity="0.4" fill-rule="evenodd" clip-rule="evenodd" d="M17.4903 1.55273C17.5584 1.49132 17.6385 1.44477 17.7256 1.41604C17.8126 1.38731 17.9047 1.37705 17.996 1.38589C18.0873 1.39473 18.1757 1.4225 18.2556 1.46741C18.3356 1.51232 18.4053 1.57339 18.4603 1.64673L18.4623 1.64773V1.64973L18.4663 1.65373L18.4733 1.66273C18.5003 1.69937 18.5263 1.73671 18.5513 1.77473C18.6175 1.87393 18.6799 1.97568 18.7383 2.07973C18.8873 2.34473 19.0773 2.73173 19.2643 3.25073C19.6403 4.29173 20.0003 5.85173 20.0003 8.00073C20.0003 10.1507 19.6403 11.7107 19.2643 12.7507C19.0773 13.2707 18.8873 13.6577 18.7383 13.9227C18.6575 14.0664 18.569 14.2056 18.4733 14.3397L18.4663 14.3487L18.4633 14.3517L18.4623 14.3537C18.4623 14.3537 18.4613 14.3547 17.9313 13.8837L18.4613 14.3547C18.4063 14.4284 18.3365 14.4897 18.2563 14.5348C18.1762 14.5799 18.0876 14.6078 17.9961 14.6167C17.9046 14.6255 17.8122 14.6151 17.7249 14.5862C17.6377 14.5573 17.5574 14.5105 17.4893 14.4487C17.349 14.319 17.262 14.1416 17.2452 13.9513C17.2284 13.7609 17.2829 13.5711 17.3983 13.4187L17.4013 13.4137L17.4293 13.3737C17.4739 13.306 17.5159 13.2366 17.5553 13.1657C17.6653 12.9707 17.8193 12.6597 17.9773 12.2227C18.2913 11.3517 18.6203 9.97073 18.6203 8.00073C18.6203 6.03173 18.2913 4.65073 17.9773 3.77873C17.8628 3.45366 17.7216 3.13859 17.5553 2.83673C17.5159 2.76617 17.4739 2.69712 17.4293 2.62973L17.4013 2.58873L17.3983 2.58473" fill="#6D6E73"/>
<path id="Vector_3" opacity="0.7" fill-rule="evenodd" clip-rule="evenodd" d="M15.757 4.41594C16.09 4.21894 16.51 4.34594 16.695 4.70194L16.696 4.70394L16.698 4.70694L16.701 4.71394L16.711 4.73194L16.735 4.78494C16.753 4.82694 16.777 4.88394 16.805 4.95494C16.858 5.09994 16.925 5.30494 16.99 5.57494C17.12 6.11494 17.242 6.91194 17.242 7.99994C17.242 9.08894 17.12 9.88594 16.99 10.4259C16.925 10.6959 16.858 10.9009 16.804 11.0449C16.7757 11.1205 16.7443 11.1949 16.71 11.2679L16.701 11.2859L16.698 11.2929L16.696 11.2959V11.2979C16.696 11.2979 16.695 11.2989 16.092 10.9419L16.695 11.2989C16.51 11.6539 16.09 11.7819 15.757 11.5849C15.427 11.3889 15.307 10.9469 15.485 10.5939L15.489 10.5839C15.5567 10.4138 15.6118 10.239 15.654 10.0609C15.754 9.64494 15.862 8.97094 15.862 8.00094C15.862 7.02994 15.754 6.35594 15.654 5.93994C15.6118 5.76184 15.5567 5.58704 15.489 5.41694L15.485 5.40694C15.306 5.05294 15.427 4.61094 15.757 4.41594Z" fill="#6D6E73"/>
</g>
</svg>
