<svg width="22" height="20" viewBox="0 0 22 20" fill="none" xmlns="http://www.w3.org/2000/svg">
<g id="Group">
<path id="Vector" d="M20.78 1.52985C20.9125 1.38767 20.9846 1.19963 20.9812 1.00532C20.9777 0.811023 20.899 0.625638 20.7616 0.488225C20.6242 0.350812 20.4388 0.2721 20.2445 0.268672C20.0502 0.265243 19.8622 0.337366 19.72 0.469847L15.27 4.91885C15.2346 4.45195 15.1702 3.98772 15.077 3.52885C14.905 2.74085 14.6 2.05585 13.961 1.60585C13.7243 1.44027 13.4654 1.30897 13.192 1.21585C12.374 0.935847 11.561 1.15885 10.735 1.56085C9.921 1.95585 8.935 2.60685 7.703 3.41785L7.436 3.59385C6.989 3.88885 6.834 3.98785 6.676 4.05785C6.5053 4.134 6.32548 4.18778 6.141 4.21785C5.97 4.24785 5.787 4.24985 5.251 4.24985H5.089C3.872 4.24985 3.027 4.24885 2.275 4.59685C1.54722 4.94897 0.944588 5.51531 0.548 6.21985C0.156 6.94885 0.11 7.71085 0.044 8.79485L0.036 8.92485C0.014 9.29385 0 9.65785 0 9.99985C0 10.3418 0.014 10.7058 0.036 11.0738L0.044 11.2038C0.11 12.2878 0.156 13.0498 0.548 13.7788C0.944428 14.4838 1.54708 15.0505 2.275 15.4028C2.885 15.6858 3.558 15.7388 4.441 15.7478L1.72 18.4698C1.64631 18.5385 1.58721 18.6213 1.54622 18.7133C1.50523 18.8053 1.48319 18.9046 1.48141 19.0053C1.47963 19.106 1.49816 19.2061 1.53588 19.2994C1.5736 19.3928 1.62974 19.4777 1.70096 19.5489C1.77218 19.6201 1.85701 19.6762 1.9504 19.714C2.04379 19.7517 2.14382 19.7702 2.24452 19.7684C2.34523 19.7667 2.44454 19.7446 2.53654 19.7036C2.62854 19.6626 2.71134 19.6035 2.78 19.5298L20.78 1.52985Z" fill="#6D6E73"/>
<path id="Vector_2" opacity="0.4" d="M15.2383 7.07136L6.61426 15.6954C7.01026 16.1704 8.02626 16.8134 8.33926 16.9994C9.37726 17.6794 10.2373 18.2244 10.9703 18.5494C11.7123 18.8774 12.4503 19.0374 13.1923 18.7844C13.4657 18.6908 13.7245 18.5591 13.9613 18.3934C14.6673 17.8974 14.9663 17.1134 15.1283 16.2134C15.2873 15.3294 15.3413 14.1574 15.4093 12.6974L15.4123 12.6394C15.4586 11.76 15.488 10.8798 15.5003 9.99936V9.89136C15.5033 9.32436 15.5123 7.46136 15.2383 7.07136ZM19.5143 4.31636C19.6955 4.23457 19.9019 4.22813 20.0879 4.29845C20.2739 4.36878 20.4244 4.51011 20.5063 4.69136C20.9733 5.72636 21.5003 7.45936 21.5003 9.99936C21.5003 12.1914 21.1083 13.7824 20.7003 14.8434C20.4963 15.3734 20.2903 15.7684 20.1273 16.0384C20.0391 16.1852 19.9429 16.3271 19.8393 16.4634L19.8313 16.4734L19.8283 16.4764V16.4784C19.8283 16.4784 19.8263 16.4794 19.2513 16.0004L19.8263 16.4804C19.6995 16.6337 19.517 16.7303 19.319 16.7491C19.1209 16.7678 18.9236 16.7071 18.7703 16.5804C18.617 16.4536 18.5203 16.2711 18.5016 16.0731C18.4828 15.875 18.5435 15.6777 18.6703 15.5244L18.6733 15.5194L18.6833 15.5064L18.7043 15.4784C18.7526 15.4095 18.7983 15.3388 18.8413 15.2664C18.9613 15.0684 19.1293 14.7504 19.3003 14.3054C19.6423 13.4164 20.0003 12.0084 20.0003 9.99936C20.0003 7.67336 19.5203 6.15036 19.1403 5.30836C19.0584 5.12721 19.0518 4.92097 19.1219 4.73496C19.1921 4.54895 19.3332 4.39839 19.5143 4.31636ZM18.3003 7.84736C18.2827 7.74855 18.2456 7.65426 18.191 7.57007C18.1364 7.48589 18.0654 7.41351 17.9823 7.35724C17.8992 7.30097 17.8057 7.26195 17.7072 7.24248C17.6088 7.22302 17.5075 7.22351 17.4092 7.24392C17.3109 7.26433 17.2178 7.30426 17.1352 7.36133C17.0527 7.41839 16.9825 7.49145 16.9287 7.57616C16.8749 7.66087 16.8386 7.75551 16.822 7.85449C16.8055 7.95346 16.809 8.05475 16.8323 8.15236C16.9203 8.57836 17.0003 9.18636 17.0003 9.99936C17.0003 10.9894 16.8823 11.6764 16.7733 12.1004C16.7274 12.2827 16.6676 12.4612 16.5943 12.6344L16.5893 12.6444C16.542 12.7308 16.5122 12.8256 16.5016 12.9236C16.491 13.0215 16.4998 13.1206 16.5274 13.2151C16.5833 13.406 16.7127 13.5669 16.8873 13.6624C17.0618 13.7578 17.2671 13.7801 17.458 13.7242C17.5525 13.6965 17.6407 13.6505 17.7174 13.5888C17.7941 13.527 17.858 13.4508 17.9053 13.3644L17.2513 12.9994C17.9053 13.3624 17.9063 13.3614 17.9063 13.3614V13.3604L17.9093 13.3574L17.9123 13.3494L17.9223 13.3314L17.9483 13.2784C17.9683 13.2354 17.9953 13.1774 18.0243 13.1034C18.105 12.8976 18.1725 12.6868 18.2263 12.4724C18.3683 11.9214 18.5003 11.1084 18.5003 9.99836C18.5003 9.08836 18.4103 8.37736 18.3003 7.84736Z" fill="#6D6E73"/>
</g>
</svg>
